<?xml version="1.0" encoding="UTF-8" standalone="no"?>
<!DOCTYPE svg PUBLIC "-//W3C//DTD SVG 1.1//EN" "http://www.w3.org/Graphics/SVG/1.1/DTD/svg11.dtd">
<svg width="100%" height="100%" viewBox="0 0 312 381" version="1.1" xmlns="http://www.w3.org/2000/svg" xmlns:xlink="http://www.w3.org/1999/xlink" xml:space="preserve" xmlns:serif="http://www.serif.com/" style="fill-rule:evenodd;clip-rule:evenodd;stroke-linejoin:round;stroke-miterlimit:2;">
    <g transform="matrix(1,0,0,1,-55.4631,-1841.12)">
        <g transform="matrix(1,0,0,1,0,1422.08)">
            <g transform="matrix(1.21697,8.32667e-17,-8.32667e-17,1.21697,-14.0866,-79.1239)">
                <g transform="matrix(1,0,0,1,240.142,-167.856)">
                    <g transform="matrix(9.54468e-17,-0.426116,0.426116,1.67032e-16,-302.336,643.615)">
                        <circle cx="92.82" cy="816.956" r="63.048" style="fill:rgb(248,213,216);"/>
                    </g>
                    <g transform="matrix(9.54468e-17,-0.426116,0.426116,1.67032e-16,-302.336,695.924)">
                        <circle cx="92.82" cy="816.956" r="63.048" style="fill:rgb(248,213,216);"/>
                    </g>
                    <g transform="matrix(9.54468e-17,-0.426116,0.426116,1.67032e-16,-302.336,747.623)">
                        <circle cx="92.82" cy="816.956" r="63.048" style="fill:rgb(248,213,216);"/>
                    </g>
                    <g transform="matrix(9.54468e-17,-0.426116,0.426116,1.67032e-16,-302.336,799.152)">
                        <circle cx="92.82" cy="816.956" r="63.048" style="fill:rgb(248,213,216);"/>
                    </g>
                    <g transform="matrix(9.54468e-17,-0.426116,0.426116,1.67032e-16,-302.336,850.703)">
                        <circle cx="92.82" cy="816.956" r="63.048" style="fill:rgb(248,213,216);"/>
                    </g>
                    <g transform="matrix(9.54468e-17,-0.426116,0.426116,1.67032e-16,-302.336,902.365)">
                        <circle cx="92.82" cy="816.956" r="63.048" style="fill:rgb(248,213,216);"/>
                    </g>
                </g>
                <g transform="matrix(1,2.46519e-32,-2.46519e-32,1,38.2345,-167.856)">
                    <g transform="matrix(9.54468e-17,-0.426116,0.426116,1.67032e-16,-302.336,643.615)">
                        <circle cx="92.82" cy="816.956" r="63.048" style="fill:rgb(248,213,216);"/>
                    </g>
                    <g transform="matrix(9.54468e-17,-0.426116,0.426116,1.67032e-16,-302.336,695.924)">
                        <circle cx="92.82" cy="816.956" r="63.048" style="fill:rgb(248,213,216);"/>
                    </g>
                    <g transform="matrix(9.54468e-17,-0.426116,0.426116,1.67032e-16,-302.336,747.623)">
                        <circle cx="92.82" cy="816.956" r="63.048" style="fill:rgb(248,213,216);"/>
                    </g>
                    <g transform="matrix(9.54468e-17,-0.426116,0.426116,1.67032e-16,-302.336,799.152)">
                        <circle cx="92.82" cy="816.956" r="63.048" style="fill:rgb(248,213,216);"/>
                    </g>
                    <g transform="matrix(9.54468e-17,-0.426116,0.426116,1.67032e-16,-302.336,850.703)">
                        <circle cx="92.82" cy="816.956" r="63.048" style="fill:rgb(248,213,216);"/>
                    </g>
                    <g transform="matrix(9.54468e-17,-0.426116,0.426116,1.67032e-16,-302.336,902.365)">
                        <circle cx="92.82" cy="816.956" r="63.048" style="fill:rgb(248,213,216);"/>
                    </g>
                </g>
                <g transform="matrix(1,0,0,1,414.725,-436.515)">
                    <g transform="matrix(0.426116,-2.5262e-17,-4.63232e-17,0.426116,-168.353,524.604)">
                        <circle cx="92.82" cy="816.956" r="63.048" style="fill:rgb(248,213,216);"/>
                    </g>
                    <g transform="matrix(0.426116,-2.5262e-17,-4.63232e-17,0.426116,-218.566,524.604)">
                        <circle cx="92.82" cy="816.956" r="63.048" style="fill:rgb(248,213,216);"/>
                    </g>
                    <g transform="matrix(0.426116,-2.5262e-17,-4.63232e-17,0.426116,-268.882,524.604)">
                        <circle cx="92.82" cy="816.956" r="63.048" style="fill:rgb(248,213,216);"/>
                    </g>
                    <g transform="matrix(0.426116,-2.5262e-17,-4.63232e-17,0.426116,-319.259,524.604)">
                        <circle cx="92.82" cy="816.956" r="63.048" style="fill:rgb(248,213,216);"/>
                    </g>
                    <g transform="matrix(0.426116,-2.5262e-17,-4.63232e-17,0.426116,-369.587,524.604)">
                        <circle cx="92.82" cy="816.956" r="63.048" style="fill:rgb(248,213,216);"/>
                    </g>
                </g>
                <g transform="matrix(1,2.46519e-32,-2.46519e-32,1,414.051,-177.764)">
                    <g transform="matrix(0.426116,-2.5262e-17,-4.63232e-17,0.426116,-168.353,524.604)">
                        <circle cx="92.82" cy="816.956" r="63.048" style="fill:rgb(248,213,216);"/>
                    </g>
                    <g transform="matrix(0.426116,-2.5262e-17,-4.63232e-17,0.426116,-218.566,524.604)">
                        <circle cx="92.82" cy="816.956" r="63.048" style="fill:rgb(248,213,216);"/>
                    </g>
                    <g transform="matrix(0.426116,-2.5262e-17,-4.63232e-17,0.426116,-268.882,524.604)">
                        <circle cx="92.82" cy="816.956" r="63.048" style="fill:rgb(248,213,216);"/>
                    </g>
                    <g transform="matrix(0.426116,-2.5262e-17,-4.63232e-17,0.426116,-319.259,524.604)">
                        <circle cx="92.82" cy="816.956" r="63.048" style="fill:rgb(248,213,216);"/>
                    </g>
                    <g transform="matrix(0.426116,-2.5262e-17,-4.63232e-17,0.426116,-369.587,524.604)">
                        <circle cx="92.82" cy="816.956" r="63.048" style="fill:rgb(248,213,216);"/>
                    </g>
                </g>
            </g>
        </g>
        <g transform="matrix(1,0,0,1,0,1422.08)">
            <g transform="matrix(1.13075,2.90366e-17,2.77701e-17,1.41289,-34.7693,-2266.13)">
                <rect x="101.284" y="1915.58" width="231.437" height="238.493" style="fill:rgb(248,213,216);"/>
            </g>
        </g>
        <g transform="matrix(1,0,0,1,0,1422.08)">
            <g transform="matrix(1.00671,2.77808e-17,2.65691e-17,1.2579,-7.85181,-1950.75)">
                <path d="M332.721,1939.42C332.721,1926.25 319.379,1915.58 302.921,1915.58C258.521,1915.58 175.483,1915.58 131.084,1915.58C114.626,1915.58 101.284,1926.25 101.284,1939.42C101.284,1985.12 101.284,2084.52 101.284,2130.22C101.284,2143.39 114.626,2154.07 131.084,2154.07C175.483,2154.07 258.521,2154.07 302.921,2154.07C319.379,2154.07 332.721,2143.39 332.721,2130.22C332.721,2084.52 332.721,1985.12 332.721,1939.42Z" style="fill:white;"/>
            </g>
        </g>
    </g>
</svg>
