<?xml version="1.0" encoding="UTF-8" standalone="no"?>
<!DOCTYPE svg PUBLIC "-//W3C//DTD SVG 1.1//EN" "http://www.w3.org/Graphics/SVG/1.1/DTD/svg11.dtd">
<svg width="100%" height="100%" viewBox="0 0 470 470" version="1.1" xmlns="http://www.w3.org/2000/svg" xmlns:xlink="http://www.w3.org/1999/xlink" xml:space="preserve" xmlns:serif="http://www.serif.com/" style="fill-rule:evenodd;clip-rule:evenodd;stroke-linejoin:round;stroke-miterlimit:2;">
    <g transform="matrix(1,0,0,1,-1505.37,-242.417)">
        <path d="M1579.95,649.088C1580.95,646.642 1583.01,644.097 1585.58,641.616C1590.54,636.818 1597.46,632.419 1603.8,629.922C1614.84,625.573 1621.27,623.621 1631.72,618.212C1635.42,616.295 1638.63,614.64 1641.62,613.009C1641.29,613.557 1640.96,614.121 1640.61,614.703C1638.16,618.775 1635.69,622.399 1632.2,629.01C1631.07,631.153 1628.55,635.052 1628.08,637.291C1627.73,639.025 1628.14,640.391 1628.84,641.318C1629.48,642.159 1630.41,642.842 1631.88,643.025C1635.17,643.434 1638.54,643.069 1641.86,642.648C1644.62,642.3 1647.34,641.898 1649.93,642.172C1658.98,643.128 1665.7,643.115 1673.64,647.636C1674.31,648.016 1682.05,654.698 1690.13,661.684C1690.31,661.886 1690.52,662.061 1690.74,662.209L1695.46,666.297C1700.8,670.91 1718.86,693.926 1722.71,699.547C1723.81,701.14 1725.99,701.546 1727.58,700.453C1729.17,699.36 1729.58,697.18 1728.49,695.587C1724.47,689.731 1705.6,665.807 1700.04,661.003C1698.47,659.643 1696.85,658.247 1695.24,656.857C1691.43,651.784 1687.3,644.826 1686.65,640.539C1685.62,633.7 1685.11,621.374 1685.23,614.688C1685.31,610.081 1685.08,606.083 1686.86,601.605C1688.71,596.921 1692.88,593.724 1696.53,590.534C1700.51,587.053 1702.29,585.352 1703.66,584.007C1704.4,587.584 1706.42,590.621 1709.07,593.253C1711.7,595.869 1714.95,598.075 1717.72,600.121C1723.81,604.629 1731.57,609.56 1739.19,609.964C1742.68,610.149 1747.04,608.748 1751.66,606.208C1757.77,602.846 1764.51,597.527 1770.3,592.416C1774.47,588.738 1776.47,586.305 1778.1,582.347C1779.92,584.357 1781.74,586.65 1783.26,587.953C1785.27,589.681 1787.56,591.35 1789.48,593.215C1790.97,594.65 1792.26,596.178 1792.72,598.092C1793.42,600.997 1792.2,607.262 1791.61,609.983C1789.52,619.619 1788.53,623.687 1783.72,635.204C1782.24,638.742 1777.65,646.038 1775.51,649.046C1769.14,658.02 1766.54,661.193 1762.77,666.264C1762.74,666.313 1762.7,666.362 1762.67,666.413C1758.76,670.868 1748.58,688.859 1743.82,695.536C1742.7,697.109 1743.07,699.297 1744.64,700.418C1746.21,701.538 1748.4,701.171 1749.52,699.598C1754.31,692.872 1764.67,674.121 1768,670.954C1776.3,663.057 1789,651.344 1794.72,649.368C1799.69,647.655 1808.01,645.43 1815.38,643.926C1819.41,643.104 1823.16,642.495 1825.88,642.331C1832.29,641.942 1834.04,641.726 1838.2,642.01C1842.71,642.319 1845.61,640.873 1846.78,639.226C1847.94,637.597 1848.31,635.366 1846.71,632.664C1843.25,626.779 1839.27,621.336 1834.84,615.705C1832.22,612.372 1829.32,609.135 1826.39,606.072C1827.63,606.455 1828.58,606.76 1829.04,606.924C1837.89,610.031 1839.87,611.767 1847.94,616.563C1859.46,623.408 1867.16,628.006 1877.85,636.306C1880.93,638.694 1889.2,646.491 1896,653.438C1854.53,690.135 1800.03,712.417 1740.37,712.417C1678.38,712.417 1621.97,688.367 1579.95,649.088ZM1574.7,644.024C1531.88,601.44 1505.37,542.5 1505.37,477.417C1505.37,347.717 1610.67,242.417 1740.37,242.417C1870.07,242.417 1975.37,347.717 1975.37,477.417C1975.37,544.939 1946.83,605.847 1901.17,648.72C1894.09,641.473 1885.37,633.275 1882.15,630.777C1871.2,622.276 1863.32,617.555 1851.51,610.545C1842.91,605.436 1840.78,603.629 1831.36,600.32C1829.66,599.723 1821.93,597.342 1816.07,595.899L1813.91,593.845C1810.7,590.79 1806.57,586.201 1803.66,583.497C1801.89,581.85 1800.35,580.84 1799.47,580.56C1797.3,579.872 1793.79,578.359 1782.86,577.053C1782.76,577.041 1782.66,577.033 1782.56,577.031C1781.32,575.684 1780.08,574.431 1778.91,573.604C1778.84,572.36 1778.75,570.976 1778.71,569.387C1778.62,566.195 1778.68,563.555 1778.65,560.725C1778.89,560.312 1779.04,559.861 1779.1,559.401C1789.73,552.488 1799.22,544.025 1806.39,536.819C1811.24,531.952 1814.36,525.094 1817.2,515.771C1826.6,515.643 1835.62,514.027 1843.05,507.499C1854.5,497.444 1858.08,483.53 1860,469.226C1860.61,464.66 1860.83,459.616 1859.82,456.329C1859.14,454.148 1857.45,452.558 1854.99,451.658C1851.5,450.388 1846.01,450.678 1842.86,450.817C1838.06,451.028 1834.63,451.602 1831.56,452.313L1831.69,451.079C1831.84,450.621 1831.89,450.128 1831.83,449.628C1832.1,444.794 1830.27,442.615 1827.63,437.054C1825.42,432.386 1823.45,427.901 1822.29,420.727C1819.81,405.298 1812.18,402.502 1804.71,395.712C1799.99,391.42 1796.35,388.914 1793.4,386.664C1789.58,383.752 1787.09,381.328 1784.76,374.908C1783.24,370.738 1782.53,365.037 1778.03,357.901C1776.92,356.146 1774.82,354.441 1772.18,353.155C1768.73,351.474 1764.37,350.451 1760.92,350.541C1759.08,350.589 1757.27,350.831 1755.69,351.138C1755.76,349.033 1755.8,345.191 1755.9,343.652C1756.5,334.921 1757.31,329.234 1757.79,320.496C1757.82,319.944 1757.91,319.133 1757.96,318.219C1758.11,318.102 1758.25,317.972 1758.38,317.834C1759.4,317.141 1761.78,315.561 1762.51,315.279C1768.39,313.008 1780.15,313.218 1784.97,313.293C1798.33,313.5 1803.1,317.177 1810.74,324.874C1818.33,332.508 1820.29,332.588 1825.41,340.544C1828.79,345.8 1831,352.944 1833.62,359.25C1835.6,364.009 1837.82,368.322 1840.67,371.351C1847.34,378.435 1855.3,384.75 1861.83,391.316C1867.75,397.263 1872.53,403.348 1873.41,410.685C1874.58,420.395 1873.51,428.166 1872.63,436.15C1871.69,444.679 1870.94,453.434 1872.9,464.714C1874.73,475.218 1880.9,482.753 1884.91,492.018C1886.89,496.583 1890.34,503.819 1890.25,508.858C1890.11,517.169 1888.14,526.06 1888.94,534.627C1889.47,540.242 1891.23,543.9 1892.99,547.504C1894.41,550.409 1895.86,553.267 1896.18,557.661C1897.2,571.612 1889.71,576.297 1881.44,585.831C1877.18,590.671 1873.55,592.917 1868.34,592.547C1866.61,592.424 1864.98,592.141 1863.77,591.514C1865.27,590.402 1866.88,589.086 1868.76,587.526C1874.48,582.793 1880.23,573.484 1879.47,563.607C1879.32,561.681 1877.63,560.237 1875.71,560.385C1873.78,560.533 1872.34,562.217 1872.49,564.143C1873.06,571.594 1868.61,578.563 1864.3,582.134C1857.85,587.471 1855.39,589.475 1846.74,590.327C1845.27,590.472 1843.08,590.392 1840.9,590.058C1849.08,585.208 1856.2,577.804 1854.38,563.436C1853.25,554.471 1853.28,548.861 1852.54,538.627C1852.27,534.821 1854.03,529.924 1858.09,529.005C1859.97,528.579 1861.15,526.703 1860.73,524.819C1860.3,522.935 1858.42,521.751 1856.54,522.178C1849.16,523.85 1845.06,532.208 1845.56,539.132C1846.31,549.519 1846.29,555.214 1847.43,564.314C1849.19,578.188 1839.59,583.268 1831.66,586.978C1826.92,589.2 1825.05,589.249 1820.11,587.781C1818.26,587.231 1816.31,588.288 1815.76,590.139C1815.21,591.991 1816.26,593.941 1818.12,594.491C1824.28,596.322 1827.1,596.482 1832.22,594.384C1832.54,594.732 1832.93,595.019 1833.39,595.219C1837.45,596.989 1843.94,597.636 1847.42,597.293C1851.67,596.875 1854.7,596.253 1857.32,595.23C1859.61,597.666 1863.38,599.213 1867.85,599.53C1875.25,600.055 1880.65,597.331 1886.7,590.446C1886.71,590.44 1886.71,590.434 1886.72,590.429C1896.37,579.293 1904.36,573.435 1903.16,557.148C1903.08,556.11 1902.96,555.14 1902.8,554.224C1906.52,554.852 1910.81,553.013 1914.53,549.131C1915.87,547.737 1915.83,545.52 1914.43,544.183C1913.04,542.845 1910.82,542.892 1909.48,544.286C1908.28,545.542 1907.02,546.533 1905.76,547.056C1905.04,547.355 1904.33,547.516 1903.68,547.245C1902.41,546.712 1901.59,545.14 1900.84,542.647C1900.34,540.982 1900.78,539.346 1901.49,537.649C1902.48,535.288 1904.04,532.873 1905.53,530.303C1909.15,524.107 1912.33,517.16 1909.88,508.763C1908.13,502.757 1903.99,498.989 1899.8,495.257C1896.62,492.421 1893.36,489.636 1892.28,484.874C1891.58,481.818 1891.85,477.684 1892.72,473.854C1894.5,465.943 1895.72,461.454 1896.47,453.293C1897.12,446.208 1895.74,436.407 1893.04,429.027C1891.32,424.316 1884.23,415.074 1880.56,411.716C1880.5,411.101 1880.44,410.478 1880.36,409.847C1879.5,402.708 1875.82,396.424 1870.66,390.512C1863.63,382.456 1853.78,375.057 1845.77,366.551C1842.79,363.386 1840.79,358.457 1838.79,353.328C1836.52,347.521 1834.31,341.45 1831.3,336.757C1825.83,328.258 1823.81,328.097 1815.71,319.941C1806.64,310.807 1800.93,306.539 1785.07,306.294C1779.69,306.21 1766.56,306.21 1759.99,308.749C1759.23,309.041 1757.49,310.08 1755.98,311.039C1755.5,310.57 1754.92,310.185 1754.25,309.893C1733.15,300.722 1722.63,307.075 1709.68,311.821C1704.91,313.572 1697.03,314.181 1691.42,316.477C1686.29,318.581 1679.25,325.562 1677,328.418C1672.25,334.456 1667.4,341.008 1662.38,345.994C1659.36,348.995 1656.31,351.425 1653.14,352.626C1643.18,356.403 1640.55,362.492 1633.98,370.489C1626.95,379.049 1625.62,383.979 1624.77,389.011C1624.04,393.324 1623.8,397.758 1619.62,405.544C1614.57,414.965 1612.15,419.526 1606.15,427.769C1605.81,427.815 1605.47,427.913 1605.14,428.066C1602.32,429.388 1599.15,430.125 1596.65,432C1582.69,442.5 1578.36,461.455 1582.9,477.743C1584.44,483.247 1586.83,488.344 1588.72,493.538C1590.4,498.174 1591.67,502.892 1591.19,508.168C1590.62,514.461 1586.07,521.504 1579.67,523.091C1577.78,523.561 1576.99,523.251 1576.01,522.483C1575.21,521.86 1574.34,521.106 1573.2,520.288L1572.41,519.721C1572.27,519.094 1571.96,518.499 1571.47,518.012C1570.1,516.646 1567.88,516.646 1566.52,518.012C1565,519.536 1564.87,521.246 1565.9,523.038C1566.48,524.034 1568.14,525.267 1569.11,525.967C1573.82,529.359 1574.98,531.467 1581.36,529.885C1581.99,529.729 1582.61,529.537 1583.21,529.31C1581.11,532.195 1578.99,535.073 1576.99,537.912C1570.12,547.669 1569.83,556.405 1569.67,565.364C1569.56,571.421 1572.69,578.495 1577.62,582.882C1582.12,586.886 1587.98,588.796 1594.2,586.272C1597.31,589.92 1601.53,592.628 1605.77,594.796C1612.2,598.095 1619.08,600.015 1627.41,598.793C1628.19,598.68 1628.87,598.319 1629.38,597.803C1630.03,598.154 1630.67,598.481 1631.31,598.796C1635.18,600.717 1640.11,602.282 1644.96,603.003C1639.97,606.086 1635.03,608.613 1628.5,611.995C1618.3,617.276 1612.01,619.163 1601.24,623.409C1594.1,626.221 1586.3,631.179 1580.71,636.583C1578.2,639.008 1576.14,641.543 1574.7,644.024ZM1791.27,585.495C1792.83,586.776 1794.36,588.095 1795.65,589.529C1797.5,591.574 1798.89,593.846 1799.52,596.454C1800.4,600.114 1799.19,608.035 1798.45,611.464C1796.26,621.565 1795.22,625.83 1790.18,637.902C1789.25,640.127 1787.21,643.715 1785.19,646.993C1788.07,644.921 1790.6,643.386 1792.44,642.751C1797.62,640.964 1806.29,638.635 1813.99,637.067C1818.39,636.169 1822.48,635.523 1825.45,635.343C1832.34,634.927 1834.22,634.722 1838.67,635.026C1839.08,635.054 1839.54,635.039 1839.96,635.007C1836.82,629.847 1833.26,625.019 1829.34,620.031C1823.05,612.03 1815.07,604.614 1809.09,598.914C1805.89,595.875 1801.78,591.309 1798.89,588.619C1798.24,588.012 1797.33,587.308 1797.14,587.164C1795.97,586.781 1794.35,586.168 1791.27,585.495ZM1692.02,585.18C1691.09,585.515 1690.29,585.802 1689.67,586.024C1682.28,588.645 1676.2,590.88 1669.1,594.196C1661.84,597.586 1660.89,598.69 1655.03,604.888C1652.46,607.611 1650.56,611.732 1646.61,618.309C1644.22,622.284 1641.8,625.82 1638.4,632.273C1637.94,633.131 1637.06,634.77 1636.3,636.18C1637.86,636.103 1639.43,635.9 1640.98,635.704C1644.29,635.285 1647.56,634.883 1650.67,635.211C1660.78,636.279 1668.23,636.5 1677.1,641.552C1677.35,641.694 1678.54,642.661 1680.36,644.178C1680.07,643.249 1679.85,642.378 1679.73,641.588C1678.65,634.439 1678.11,621.557 1678.23,614.569C1678.32,609.089 1678.24,604.356 1680.35,599.03C1682.61,593.299 1687.46,589.166 1691.92,585.265L1692.02,585.18ZM1771.66,566.466C1767.44,569.383 1762.8,572.198 1761.79,572.664C1750.92,577.673 1745.66,579.925 1734.37,583.868C1731.19,584.977 1722.63,587.298 1714.12,588.397C1716.48,590.725 1719.4,592.664 1721.88,594.493C1726.94,598.235 1733.24,602.638 1739.56,602.973C1742.03,603.104 1745.02,601.867 1748.29,600.074C1754,596.935 1760.26,591.94 1765.67,587.168C1768.82,584.38 1770.43,582.624 1771.65,579.604C1772.12,578.458 1772.16,577.395 1772.11,576.148C1772.04,574.365 1771.79,572.31 1771.71,569.584C1771.68,568.489 1771.67,567.46 1771.66,566.466ZM1750.97,316.102C1732.65,308.314 1723.43,314.237 1712.09,318.393C1707.38,320.12 1699.61,320.69 1694.08,322.955C1689.92,324.659 1684.32,330.437 1682.5,332.749C1677.57,339.012 1672.52,345.788 1667.31,350.96C1663.52,354.73 1659.6,357.662 1655.63,359.171C1647.02,362.434 1645.06,368.025 1639.39,374.932C1632.34,383.516 1632.07,387.695 1631.23,392.947C1630.57,397.055 1629.62,401.724 1625.79,408.852C1620.35,418.992 1617.84,423.693 1611.08,432.886C1601.63,445.734 1600.01,451.381 1600.38,466.276C1600.5,471.243 1602.37,476.371 1603.91,481.85C1605.66,488.083 1607.04,494.707 1605.94,501.891C1604.1,513.96 1592.22,528.434 1582.71,541.943C1576.83,550.292 1576.81,557.825 1576.67,565.491C1576.59,569.708 1578.84,574.599 1582.27,577.652C1584.55,579.673 1587.42,580.804 1590.5,580.068C1589.86,578.325 1589.44,576.425 1589.31,574.346C1589.19,572.418 1590.66,570.755 1592.58,570.633C1594.51,570.512 1596.17,571.979 1596.3,573.907C1596.4,575.611 1596.8,577.132 1597.41,578.498C1597.86,578.759 1598.27,579.127 1598.58,579.594C1598.95,580.149 1599.14,580.771 1599.16,581.392C1601.65,584.562 1605.4,586.743 1608.96,588.566C1613.03,590.651 1617.3,592.1 1622.2,592.155C1620.88,590.583 1619.67,588.667 1618.64,586.278C1617.87,584.504 1618.69,582.444 1620.47,581.679C1622.24,580.915 1624.3,581.735 1625.07,583.509C1627.4,588.916 1631.11,590.884 1634.41,592.525C1638.83,594.713 1644.87,596.369 1650.16,596.432C1651.07,596.443 1651.9,596.8 1652.51,597.377C1657.14,592.562 1658.99,591.192 1666.14,587.853C1673.46,584.436 1679.71,582.127 1687.33,579.427C1690.47,578.312 1698.11,575.526 1703.32,573.488C1703.36,572.627 1703.41,571.709 1703.47,570.674C1703.59,568.197 1703.49,565.796 1703.57,561.628C1698.68,559.1 1693.74,556.128 1687.78,552.303C1682.56,548.948 1672.08,540.149 1668.32,534.748C1664.87,529.809 1661.51,524.991 1659.41,518.511C1653.99,518.616 1652.21,518.455 1648.47,516.913C1646.85,516.243 1643.83,513.996 1640.7,510.935C1636.26,506.602 1631.49,500.672 1629.84,496.266C1626.24,486.658 1624.12,478.623 1624.73,468.422C1624.87,465.976 1626.28,457.613 1627.52,455.322C1627.97,454.49 1629.07,453.368 1631.17,452.783C1633.3,452.192 1637.23,451.872 1642.25,452.161C1644.23,452.275 1646.03,452.547 1647.62,452.913C1647.42,451.488 1647.26,450.081 1647.11,448.712C1647.1,448.627 1647.09,448.541 1647.09,448.456C1646.39,441.677 1646.31,435.855 1646.31,433.332C1646.28,420.318 1646.97,411.538 1653.81,402.348C1662.82,390.262 1674.87,384.912 1685.2,374.058C1688.09,371.026 1691.15,364.448 1691.37,358.546C1691.45,356.616 1693.08,355.109 1695.01,355.184C1696.94,355.258 1698.44,356.885 1698.37,358.816C1698.08,366.465 1694.01,374.954 1690.27,378.885C1680.14,389.524 1668.26,394.683 1659.43,406.53C1653.53,414.451 1653.28,422.101 1653.31,433.318C1653.31,434.945 1653.34,438.023 1653.57,441.849C1654.91,440.835 1656.31,439.74 1657.71,438.615C1664.93,432.816 1671.08,428.073 1674.83,420.274C1676.66,416.464 1678.16,412.242 1678.89,408.079C1680.07,401.335 1683.32,394.588 1686.35,390.65C1689.34,386.752 1690.71,384.779 1702.54,382.597C1707.1,381.756 1710.04,379.336 1713.93,376.801C1715.96,375.47 1718.37,372.561 1719.49,369.585C1720.81,366.105 1721.26,363.36 1722.07,361.072C1723.14,358.045 1724.67,355.621 1728.25,353.428C1734.69,349.479 1740.09,349.523 1748.68,351.398C1748.76,349.504 1748.8,344.908 1748.92,343.179C1749.51,334.482 1750.32,328.816 1750.8,320.112C1750.84,319.471 1751.01,318.39 1751.05,317.256C1751.06,316.928 1751,316.41 1750.97,316.102ZM1822.67,558.122C1822.01,560.808 1821.41,562.208 1819.87,565.092C1818.37,567.887 1813.67,571.604 1810.8,572.594C1808.98,573.225 1808.01,575.219 1808.64,577.045C1809.27,578.871 1811.26,579.841 1813.09,579.211C1817.2,577.791 1823.89,572.406 1826.03,568.4C1827.94,564.852 1828.64,563.12 1829.47,559.816C1829.93,557.942 1828.79,556.04 1826.92,555.573C1825.04,555.106 1823.14,556.248 1822.67,558.122ZM1821.87,455.057L1821.58,455.119C1821.47,456.653 1821.26,458.181 1821.1,459.431C1820.83,461.624 1819.03,468.252 1818.4,469.868C1815.04,478.555 1811.83,483.182 1807.17,485.776C1802.69,488.27 1796.61,488.857 1786.91,488.787C1775.94,488.708 1771.88,490.735 1759.94,486.807C1755.77,485.437 1751.93,480.712 1750.9,477.609C1748.66,470.816 1748.16,465.22 1748.4,457.133L1748.41,456.622C1746.53,456.172 1744.49,455.893 1742.22,455.867C1740.44,455.845 1738.23,456.243 1736.13,456.79C1736.1,457.718 1736.03,458.67 1735.93,459.634C1735.34,465.312 1733.72,471.44 1732.24,475.103C1728.82,483.563 1722.88,487.179 1715.91,488.635C1709.79,489.915 1702.77,489.359 1696.2,489.249C1691.35,489.167 1686.07,489.206 1681.3,488.122C1675.84,486.879 1671.03,484.235 1667.86,478.837C1664.44,473.016 1663.89,463.622 1663.84,456.361C1661.73,456.34 1658.8,456.282 1655.25,456.313L1655.42,457.192L1655.65,457.634L1655.78,457.954L1655.92,458.464L1655.95,458.642C1656.94,465.679 1658.15,471.641 1658.82,475.931C1661.29,491.705 1662.86,496.683 1664.63,509.943C1665.89,519.294 1669.98,524.889 1674.06,530.744C1677.43,535.585 1686.88,543.406 1691.57,546.413C1705.57,555.406 1713.7,559.485 1729.69,564.417C1739.9,567.568 1750.56,565.688 1760.72,561.399C1776.69,554.652 1791.41,541.94 1801.44,531.879C1805.16,528.136 1807.59,522.994 1809.79,516.279C1812.16,509.018 1814.19,500.01 1816.88,488.982C1819.28,479.091 1821.15,470.428 1823.49,460.521C1823.66,459.788 1823.95,457.397 1824.27,454.526L1821.87,455.057ZM1643.05,535.428C1640.03,544.416 1641.13,551.195 1645.94,557.088C1648.34,560.02 1649.91,562.523 1653.89,564.369C1655.64,565.183 1657.73,564.42 1658.54,562.668C1659.35,560.916 1658.59,558.833 1656.84,558.02C1654.01,556.708 1653.07,554.743 1651.36,552.658C1648.04,548.588 1647.6,543.865 1649.68,537.655C1650.3,535.824 1649.31,533.838 1647.48,533.224C1645.65,532.609 1643.66,533.596 1643.05,535.428ZM1661.94,543.955C1660.94,550.085 1661.65,552.406 1664.65,556.366C1665.7,557.761 1666.57,558.634 1669.88,560.835C1671.49,561.904 1673.67,561.464 1674.74,559.855C1675.81,558.245 1675.37,556.072 1673.76,555.003C1671.57,553.551 1670.93,553.061 1670.23,552.14C1668.53,549.899 1668.28,548.554 1668.85,545.085C1669.16,543.179 1667.87,541.378 1665.96,541.066C1664.05,540.754 1662.25,542.049 1661.94,543.955ZM1618.25,521.355C1616.17,524.094 1614.23,530.001 1614.1,532.935C1613.78,539.77 1616.15,547.687 1622.1,557.868C1623.07,559.536 1625.22,560.099 1626.89,559.125C1628.56,558.151 1629.12,556.006 1628.14,554.338C1623.1,545.695 1620.82,539.059 1621.09,533.256C1621.18,531.315 1622.45,527.402 1623.82,525.59C1624.99,524.052 1624.69,521.855 1623.15,520.686C1621.62,519.517 1619.42,519.817 1618.25,521.355ZM1725.43,540.259C1726.39,542.679 1728.42,544.633 1730.98,546.018C1734.11,547.722 1738.03,548.572 1740.68,548.784C1745.67,549.181 1749.47,548.435 1752.59,546.713C1755.72,544.988 1758.2,542.251 1760.39,538.356C1761.34,536.672 1760.74,534.537 1759.05,533.591C1757.37,532.644 1755.23,533.244 1754.29,534.928C1752.83,537.518 1751.29,539.438 1749.21,540.584C1747.13,541.733 1744.56,542.071 1741.24,541.806C1739.35,541.655 1736.55,541.08 1734.32,539.867C1733.28,539.307 1732.33,538.655 1731.94,537.676C1731.23,535.881 1729.19,535.002 1727.4,535.714C1725.6,536.427 1724.72,538.463 1725.43,540.259ZM1729.1,530.756C1732.39,534.081 1736.97,536.71 1741.5,537.153C1747.18,537.707 1753.11,536.651 1757.8,531.28L1758.07,531.312C1764.02,531.912 1769.5,531.305 1774,528.764C1775.68,527.813 1776.27,525.676 1775.32,523.994C1774.37,522.313 1772.24,521.719 1770.55,522.67C1767.24,524.545 1763.16,524.79 1758.77,524.347C1756.22,524.09 1753.66,523.03 1751.09,522.189C1747.72,521.087 1744.33,520.324 1740.97,520.911C1736.06,521.767 1729.96,523.951 1725.72,524.12C1724.76,524.159 1723.38,524.138 1722.07,523.814C1721.33,523.63 1720.54,523.44 1720.16,522.804C1719.17,521.144 1717.02,520.599 1715.36,521.587C1713.7,522.574 1713.16,524.724 1714.15,526.384C1715.24,528.222 1717.01,529.478 1719.08,530.214C1721.44,531.059 1724.2,531.187 1726,531.115C1726.95,531.077 1728,530.947 1729.1,530.756ZM1895.92,501.172C1896.75,503.949 1897.29,506.672 1897.25,508.983C1897.11,516.806 1895.25,525.156 1895.85,533.237C1896.37,532.156 1896.97,531.066 1897.61,529.963C1900.81,524.47 1905.42,518.479 1903.16,510.723C1901.91,506.459 1898.91,503.811 1895.92,501.172ZM1749.52,529.043L1748.91,528.843C1746.66,528.106 1744.42,527.415 1742.17,527.807C1740.8,528.047 1739.34,528.378 1737.85,528.739C1739.22,529.508 1740.69,530.041 1742.18,530.186C1744.64,530.426 1747.2,530.256 1749.52,529.043ZM1649.2,460.886C1648.07,460.456 1644.82,459.321 1641.85,459.15C1638.36,458.949 1634.67,459.365 1633.31,459.545C1632.5,462.013 1631.81,467.183 1631.71,468.835C1631.17,477.992 1633.17,485.188 1636.39,493.813C1637.77,497.483 1641.88,502.315 1645.58,505.925C1647.87,508.159 1649.95,509.953 1651.14,510.441C1653.56,511.441 1654.93,511.587 1657.79,511.547C1657.76,511.325 1657.73,511.1 1657.69,510.873C1656.26,500.157 1654.96,494.875 1653.21,484.866L1653.04,484.827C1652.1,484.578 1649.8,483.631 1649.31,483.424C1648.8,483.389 1648.01,483.493 1647.61,483.553C1646.73,486.714 1647.74,489.766 1649.18,492.876C1649.96,494.558 1651.19,497.031 1653.58,498.883C1655.1,500.069 1655.38,502.269 1654.19,503.795C1653.01,505.32 1650.81,505.596 1649.28,504.411C1645.84,501.739 1643.96,498.252 1642.83,495.825C1640.5,490.808 1639.39,485.828 1641.17,480.706C1641.76,479.026 1643.06,477.771 1644.84,477.061C1645.42,476.829 1646.06,476.662 1646.72,476.553C1644.78,475.187 1642.22,474.642 1639.9,475.222C1638.03,475.69 1636.12,474.549 1635.66,472.674C1635.19,470.8 1636.33,468.899 1638.2,468.431C1642.52,467.353 1647.26,468.384 1650.87,470.94C1650.34,467.966 1649.75,464.584 1649.2,460.886ZM1853.17,458.526C1853.06,458.461 1852.78,458.304 1852.59,458.235C1851.95,458.001 1851.2,457.871 1850.41,457.786C1847.88,457.51 1845.03,457.728 1843.17,457.81C1837.61,458.054 1834.09,458.849 1830.68,459.744C1830.53,460.883 1830.4,461.732 1830.31,462.129C1829.8,464.282 1829.31,466.377 1828.84,468.439C1831.11,466.453 1833.85,465.159 1838.1,464.147C1839.98,463.7 1841.87,464.862 1842.32,466.742C1842.76,468.621 1841.6,470.51 1839.72,470.957C1835.27,472.015 1833.21,473.565 1831.05,476.446C1833.26,476.48 1835.16,477.11 1836.68,478.293C1838.07,479.383 1839.2,480.968 1839.84,483.217C1842.26,491.732 1835.68,501.427 1827.6,503.762C1825.75,504.298 1823.8,503.227 1823.27,501.371C1822.73,499.515 1823.8,497.573 1825.66,497.037C1830.4,495.666 1834.52,490.13 1833.1,485.129C1832.94,484.549 1832.73,484.09 1832.37,483.809C1831.74,483.315 1830.85,483.376 1829.85,483.524C1829.32,483.603 1828.41,483.869 1827.81,484.194C1827.35,484.772 1825.83,486.704 1825.73,486.783C1825.28,487.158 1824.84,487.367 1824.44,487.479L1823.68,490.638C1822.04,497.372 1820.6,503.378 1819.19,508.721C1826.17,508.452 1832.87,507.121 1838.43,502.239C1848.55,493.361 1851.37,480.928 1853.06,468.298C1853.52,464.853 1853.89,461.053 1853.17,458.526ZM1730.59,497.568C1730.19,496.992 1728.8,495.024 1727.91,494.307C1726.41,493.091 1724.21,493.323 1722.99,494.825C1721.78,496.326 1722.01,498.532 1723.51,499.747C1724.31,500.396 1725.25,502.128 1725.4,502.282C1727.8,504.762 1731.65,506.895 1735.38,507.742C1741.14,509.051 1748,507.763 1751.75,505.465C1753.9,504.151 1755.03,503.06 1756.86,500.974C1758.13,499.521 1757.99,497.308 1756.54,496.035C1755.08,494.763 1752.87,494.909 1751.6,496.362C1750.34,497.801 1749.58,498.587 1748.1,499.494C1745.54,501.059 1740.86,501.808 1736.93,500.916C1734.59,500.384 1732.15,499.11 1730.59,497.568ZM1598.17,439.884C1588.71,448.947 1586.16,463.376 1589.65,475.862C1591.13,481.193 1593.47,486.12 1595.3,491.15C1596.82,495.34 1598,499.596 1598.25,504.145C1598.59,503.023 1598.85,501.919 1599.02,500.834C1599.96,494.702 1598.66,489.062 1597.17,483.742C1595.47,477.669 1593.52,471.956 1593.38,466.451C1593.08,454.568 1593.9,447.894 1598.17,439.884ZM1826.73,485.452L1826.6,485.705C1826.64,485.619 1826.69,485.535 1826.73,485.452ZM1671.85,444.623C1679.35,440.263 1699.89,435.357 1714.33,441.373C1716.9,442.443 1720.26,443.729 1723.22,445.519C1725.61,446.961 1727.81,448.682 1728.64,451.119C1729.31,453.104 1729.28,455.932 1728.97,458.914C1728.45,463.892 1727.05,469.268 1725.75,472.479C1722.88,479.582 1717.37,481.671 1711.24,482.264C1706.42,482.728 1701.24,482.333 1696.32,482.25C1691.94,482.176 1687.16,482.276 1682.86,481.296C1679.25,480.476 1675.99,478.855 1673.89,475.291C1670.32,469.209 1670.79,458.548 1670.85,452.165C1670.86,450.86 1670.87,448.819 1671.16,446.939C1671.29,446.11 1671.75,444.877 1671.85,444.623ZM1755.43,455.943C1755.41,456.526 1755.4,457.011 1755.39,457.341C1755.18,464.477 1755.58,469.422 1757.55,475.416C1758.08,477.002 1759.99,479.457 1762.12,480.157C1773.12,483.772 1776.87,481.714 1786.96,481.787C1794.99,481.845 1800.06,481.722 1803.77,479.659C1807.3,477.695 1809.33,473.919 1811.87,467.34C1812.4,465.983 1813.93,460.418 1814.15,458.576C1814.39,456.645 1814.99,453.837 1814.6,451.93C1814.12,449.543 1812.35,448.078 1810.38,447.008C1807.79,445.603 1804.78,444.873 1802.49,444.32C1791.12,441.565 1776.83,442.337 1767.27,444.195C1764.47,444.739 1758.74,447.197 1756.84,449.321C1756.3,449.93 1756.07,450.907 1755.87,451.879C1755.8,452.222 1755.74,452.569 1755.69,452.912C1755.98,453.656 1756.01,454.499 1755.73,455.308C1755.65,455.533 1755.55,455.746 1755.43,455.943ZM1880.86,422.532C1880.67,427.521 1880.11,432.184 1879.58,436.917C1878.71,444.859 1877.98,453.013 1879.8,463.516C1880.7,468.695 1882.77,473.087 1885.08,477.347C1885.24,475.67 1885.51,473.968 1885.89,472.312C1887.6,464.745 1888.78,460.456 1889.5,452.651C1890.07,446.454 1888.83,437.885 1886.47,431.429C1885.64,429.155 1883.29,425.646 1880.86,422.532ZM1773.18,456.463C1772.78,458.756 1772.54,461.439 1772.58,463.296C1772.64,465.727 1773.24,469.157 1774.7,471.781C1775.97,474.064 1777.85,475.766 1780.32,476.393C1781.52,476.697 1782.8,476.772 1784.02,476.572C1789.54,475.668 1792.04,470.046 1792.38,465.61C1792.51,463.964 1792.61,461.053 1792.53,460.226C1792.49,459.803 1792.35,458.014 1792.09,456.222C1794.12,456.389 1795.99,456.589 1797.3,456.799C1799.2,457.105 1801,455.804 1801.31,453.897C1801.61,451.989 1800.31,450.193 1798.4,449.887C1794.77,449.306 1787.19,448.78 1782.83,448.777C1777.67,448.773 1769.36,449.666 1765.54,450.893C1763.7,451.484 1762.68,453.457 1763.27,455.296C1763.87,457.135 1765.84,458.149 1767.68,457.558C1769.02,457.127 1771,456.754 1773.18,456.463ZM1690.82,452.961C1690.42,454.88 1690.15,457.175 1690.05,459.381C1689.87,462.994 1690.45,467.353 1692.07,470.52C1693.5,473.292 1695.67,475.232 1698.55,475.834C1699.88,476.112 1703.8,475.787 1704.48,475.671C1706.31,475.361 1707.97,474.075 1709.06,471.82C1710.43,468.976 1710.94,464.121 1710.98,461.117C1710.99,459.929 1710.87,458.945 1710.8,457.758C1710.73,456.317 1710.39,454.579 1709.86,452.705C1711.7,452.91 1713.79,453.182 1716.51,453.516C1718.43,453.752 1720.17,452.387 1720.41,450.47C1720.65,448.552 1719.28,446.804 1717.36,446.569C1709.16,445.56 1706.32,445.108 1699.74,445.282C1696.57,445.365 1690.66,445.847 1685.31,446.574C1683.39,446.834 1682.05,448.599 1682.31,450.513C1682.57,452.427 1684.33,453.77 1686.25,453.511C1687.75,453.306 1689.3,453.122 1690.82,452.961ZM1749.99,358.878C1742.04,356.913 1737.45,355.995 1731.91,359.396C1729.56,360.833 1728.9,362.5 1728.28,364.651C1727.68,366.727 1727.14,369.143 1726.04,372.055C1724.39,376.45 1720.76,380.696 1717.75,382.662C1713.04,385.742 1709.35,388.459 1703.81,389.481C1695.25,391.061 1694.06,392.091 1691.9,394.912C1689.41,398.158 1686.76,403.732 1685.78,409.291C1684.94,414.073 1683.24,418.928 1681.14,423.305C1678.28,429.247 1674.27,433.687 1669.45,437.961C1678.86,433.147 1701.15,428.3 1717.02,434.911C1720.48,436.35 1725.18,438.195 1728.89,440.88C1731.84,443.003 1734.17,445.648 1735.27,448.867C1735.36,449.147 1735.45,449.439 1735.53,449.742C1737.89,449.198 1740.31,448.843 1742.3,448.867C1744.81,448.897 1747.09,449.173 1749.21,449.625C1749.71,447.684 1750.51,445.899 1751.62,444.659C1754.24,441.72 1762.06,438.077 1765.94,437.324C1776.3,435.308 1791.8,434.529 1804.14,437.517C1807.54,438.339 1812.19,439.598 1815.73,442.098C1817.91,443.636 1819.69,445.61 1820.73,448.139L1824.69,447.265C1824.52,446.474 1824.22,445.764 1823.84,444.994C1823.16,443.615 1822.28,442.101 1821.31,440.054C1818.84,434.849 1816.67,429.838 1815.38,421.839C1813.27,408.726 1806.35,406.663 1800,400.892C1795.48,396.779 1791.99,394.387 1789.16,392.231C1784.3,388.533 1781.14,385.453 1778.18,377.297C1776.79,373.468 1776.24,368.19 1772.11,361.638C1771.56,360.773 1770.41,360.081 1769.11,359.448C1766.65,358.25 1763.56,357.474 1761.1,357.538C1758.7,357.601 1755.88,358.288 1754.47,358.676L1754.47,358.678C1754.25,358.843 1754,358.983 1753.74,359.092L1753.23,359.262L1752.92,359.325C1751.2,359.643 1750.28,359.059 1750.06,358.926L1749.99,358.878ZM1665.83,441.044C1664.62,442.04 1663.37,443.045 1662.09,444.075C1659.72,445.973 1657.38,447.787 1655.24,449.313C1658.84,449.283 1661.8,449.342 1663.93,449.362C1664.03,447.26 1664.3,444.807 1664.95,442.919C1665.19,442.23 1665.49,441.602 1665.83,441.044ZM1769.23,432.875C1774.52,430.973 1778.66,429.836 1780.76,429.631C1786.47,429.073 1792.96,429.697 1797.47,430.84C1800.96,431.724 1803.78,432.642 1807.19,434.651C1808.85,435.633 1811,435.079 1811.98,433.415C1812.96,431.751 1812.41,429.604 1810.75,428.622C1806.69,426.231 1803.34,425.106 1799.19,424.055C1794.03,422.747 1786.61,422.026 1780.08,422.664C1777.68,422.899 1772.91,424.112 1766.86,426.287C1765.04,426.94 1764.1,428.947 1764.75,430.765C1765.4,432.582 1767.41,433.528 1769.23,432.875ZM1720.22,423.859C1717.2,422.12 1712.41,420.83 1707.53,420.516C1699.39,419.99 1690.57,420.014 1679.84,426.842C1678.21,427.879 1677.73,430.044 1678.76,431.674C1679.8,433.304 1681.97,433.785 1683.6,432.748C1692.69,426.964 1700.18,427.056 1707.08,427.501C1710.78,427.74 1714.44,428.608 1716.73,429.927C1718.41,430.89 1720.55,430.312 1721.51,428.638C1722.48,426.964 1721.9,424.822 1720.22,423.859Z" style="fill:rgb(223,214,164);"/>
    </g>
</svg>
