<?xml version="1.0" encoding="UTF-8" standalone="no"?>
<!DOCTYPE svg PUBLIC "-//W3C//DTD SVG 1.1//EN" "http://www.w3.org/Graphics/SVG/1.1/DTD/svg11.dtd">
<svg width="100%" height="100%" viewBox="0 0 108 172" version="1.1" xmlns="http://www.w3.org/2000/svg" xmlns:xlink="http://www.w3.org/1999/xlink" xml:space="preserve" xmlns:serif="http://www.serif.com/" style="fill-rule:evenodd;clip-rule:evenodd;stroke-linejoin:round;stroke-miterlimit:2;">
    <g transform="matrix(1,0,0,1,-424.377,-1830.97)">
        <g transform="matrix(1,0,0,1,0,1422.08)">
            <g transform="matrix(1,0,0,1,0,-1422.08)">
                <path d="M502.113,1908.81C500.446,1905.2 497.978,1901.9 494.524,1898.78C487.238,1892.21 481.025,1893.55 477.617,1897.07C474.424,1900.37 473.593,1905.87 476.277,1909.9C477.994,1912.48 481.171,1914.54 486.272,1914.81C491.242,1915.08 495.695,1914.67 499.676,1913.73C501.179,1918.7 501.266,1924.31 500.517,1930.9C498.377,1949.73 491.366,1960.28 476.576,1971.88C467.082,1979.33 456.239,1983.65 444.884,1985.21C443.79,1985.36 443.024,1986.37 443.175,1987.47C443.325,1988.56 444.335,1989.33 445.428,1989.17C457.474,1987.52 468.973,1982.93 479.045,1975.03C494.797,1962.67 502.212,1951.4 504.491,1931.35C505.308,1924.17 505.17,1918.03 503.546,1912.6C523.222,1905.68 529.92,1884.41 531.194,1867.69C532.146,1855.2 530.036,1842.22 526.13,1832.24C525.728,1831.21 524.567,1830.7 523.539,1831.1C522.511,1831.51 522.003,1832.67 522.405,1833.7C526.116,1843.18 528.11,1855.52 527.205,1867.39C526.038,1882.72 520.117,1902.43 502.113,1908.81ZM498.182,1909.93C496.741,1907.01 494.676,1904.31 491.844,1901.75C486.908,1897.3 482.799,1897.47 480.49,1899.85C478.54,1901.87 477.966,1905.22 479.606,1907.68C480.771,1909.43 483.021,1910.64 486.483,1910.82C490.803,1911.05 494.688,1910.72 498.182,1909.93Z" style="fill:rgb(38,16,11);"/>
            </g>
        </g>
        <g transform="matrix(1,0,0,1,0,1422.08)">
            <g transform="matrix(-0.158401,-0.987375,1.01807,-0.163326,-1521.76,1326.94)">
                <path d="M439.79,1980.02L454.829,2005.77L424.751,2005.77L439.79,1980.02Z" style="fill:rgb(38,16,11);"/>
            </g>
        </g>
    </g>
</svg>
