<?xml version="1.0" encoding="UTF-8"?>
<svg id="Ebene_2" data-name="Ebene 2" xmlns="http://www.w3.org/2000/svg" viewBox="0 0 361.67 57.14">
  <defs>
    <style>
      .cls-1 {
        fill: #26100b;
      }

      .cls-2 {
        fill: #d6ca90;
      }
    </style>
  </defs>
  <g id="Ebene_1-2" data-name="Ebene 1">
    <g>
      <g>
        <path class="cls-2" d="M306.62,54.81c-.52,0-1-.27-1.28-.71s-.3-.99-.07-1.46l.14-.27s.08-.14.17-.31c2.33-4.1,4.04-7.96,4.8-10.88l6.94-25.98c1.07-4.06,1-8.65.98-10.38,0-.67-.01-.83.05-1.08l.07-.27c.17-.67.77-1.14,1.46-1.14h21.03c6.63,0,12.13,2.42,15.5,6.81,3.96,5.16,4.8,12.54,2.44,21.33-3.82,14.33-16.65,24.34-31.21,24.34h-21.03ZM325.01,48.64c10.21-.43,15.12-15.78,16.39-20.53,2.15-8.1,2.03-14.49-.31-17.54-1.11-1.45-2.74-2.15-4.97-2.15h-.36l-10.74,40.22Z"/>
        <path class="cls-1" d="M340.92,3.83c12.99,0,20.96,9.62,16.49,26.25-3.85,14.43-16.77,23.23-29.76,23.23h-21.03l.14-.27c.14-.28,3.71-6.25,5.09-11.48l6.94-25.98c1.38-5.22.96-11.2,1.03-11.48l.07-.28h21.03M323.05,50.15h1.51c9.55,0,15.46-11.13,18.28-21.65,2.68-10.1,2.82-21.58-6.73-21.58h-1.51l-11.55,43.23M340.92.83h-21.03c-1.38,0-2.58.94-2.91,2.28l-.07.28c-.11.42-.1.72-.09,1.45.02,1.67.09,6.11-.93,9.98l-6.94,25.97c-.74,2.8-2.39,6.54-4.66,10.53-.12.21-.19.34-.21.38l-.14.28c-.46.93-.41,2.03.13,2.92.55.88,1.51,1.42,2.55,1.42h21.03c15.23,0,28.66-10.47,32.66-25.46,3.14-11.69.27-18.76-2.7-22.63-3.66-4.77-9.59-7.4-16.69-7.4h0ZM327.05,46.79l9.84-36.83c1.76.18,2.55.94,3,1.53,2,2.6,2.02,8.83.05,16.25-1.11,4.13-5.1,16.77-12.89,19.06h0Z"/>
      </g>
      <g>
        <path class="cls-2" d="M279.09,54.81c-.46,0-.9-.21-1.18-.58s-.39-.84-.27-1.29l.07-.27c.06-.24.13-.38.54-1.12.96-1.74,3.5-6.36,4.62-10.39l6.94-25.97c1.07-4.06,1-8.65.98-10.38,0-.67-.01-.83.05-1.08l.07-.27c.17-.67.77-1.14,1.46-1.14h17.59c.46,0,.9.21,1.18.58.28.36.39.84.27,1.29l-.07.28c-.06.25-.14.38-.54,1.1-.97,1.74-3.56,6.35-4.62,10.4l-8.71,32.62h2.65c4.61,0,12.72-8.39,15.38-11.15,1.4-1.45,1.58-1.64,2.28-1.64h.27c.47,0,.91.22,1.19.59.28.37.38.85.26,1.3l-4.26,16.01c-.17.66-.77,1.11-1.45,1.11h-34.71Z"/>
        <path class="cls-1" d="M309.95,3.83l-.07.28c-.07.27-3.78,6.25-5.16,11.48l-9.21,34.5h4.6c6.46,0,17.32-12.78,17.66-12.78h.27l-4.26,16.01h-34.71l.07-.27c.07-.28,3.71-6.25,5.15-11.48l6.94-25.98c1.37-5.22.96-11.2,1.03-11.48l.07-.28h17.59M309.95.83h-17.59c-1.38,0-2.58.94-2.91,2.28l-.07.28c-.11.42-.1.72-.09,1.45.02,1.67.09,6.11-.93,9.98l-6.94,25.97c-1.06,3.84-3.55,8.35-4.48,10.04-.44.81-.58,1.05-.69,1.48l-.07.27c-.22.9-.02,1.84.55,2.57.57.73,1.44,1.15,2.36,1.15h34.71c1.36,0,2.55-.91,2.9-2.23l4.26-16.01c.24-.9.05-1.86-.52-2.6-.57-.74-1.45-1.17-2.38-1.17h-.27c-1.34,0-1.89.57-3.36,2.09-8.53,8.83-12.49,10.69-14.3,10.69h-.7l8.2-30.73c1.02-3.88,3.54-8.37,4.48-10.06.44-.78.57-1.02.68-1.46l.07-.29c.22-.9.02-1.84-.55-2.57-.57-.73-1.44-1.15-2.36-1.15h0Z"/>
      </g>
      <g>
        <path class="cls-2" d="M263.73,54.81c-.46,0-.9-.21-1.18-.58s-.39-.84-.27-1.29l.07-.27c.06-.24.13-.37.53-1.1.96-1.74,3.5-6.35,4.56-10.4l6.94-25.98c1.13-4.08,1.07-8.67,1.04-10.4,0-.65-.01-.82.05-1.06l.07-.26c.17-.67.77-1.14,1.46-1.14h17.46c.46,0,.9.21,1.18.58.28.36.39.84.27,1.29l-.07.28c-.06.24-.13.37-.53,1.09-.96,1.74-3.5,6.35-4.56,10.4l-6.94,25.98c-1.07,4.06-1.05,8.66-1.04,10.39,0,.68,0,.84-.06,1.07l-.07.27c-.17.67-.77,1.14-1.46,1.14h-17.46Z"/>
        <path class="cls-1" d="M294.45,3.83l-.07.28c-.07.27-3.71,6.25-5.09,11.48l-6.94,25.98c-1.37,5.22-1.03,11.2-1.1,11.48l-.07.27h-17.46l.07-.27c.07-.28,3.71-6.25,5.09-11.48l6.94-25.98c1.44-5.22,1.03-11.2,1.1-11.48l.07-.28h17.46M294.45.83h-17.46c-1.38,0-2.58.94-2.91,2.28l-.07.28c-.11.42-.1.71-.09,1.43.02,1.67.08,6.1-.99,9.97l-6.95,26c-1.02,3.89-3.5,8.38-4.43,10.08-.43.78-.56,1.02-.67,1.44l-.07.28c-.22.9-.02,1.84.55,2.57.57.73,1.44,1.15,2.36,1.15h17.46c1.38,0,2.58-.94,2.91-2.27l.07-.27c.1-.41.1-.71.1-1.43,0-1.68-.03-6.13.99-10.01l6.94-25.97c1.02-3.88,3.5-8.38,4.43-10.07.43-.78.56-1.02.67-1.45l.07-.28c.22-.9.02-1.84-.55-2.57-.57-.73-1.44-1.15-2.36-1.15h0Z"/>
      </g>
      <g>
        <path class="cls-2" d="M244.05,54.81c-.79,0-1.44-.61-1.5-1.39l-1.7-22.95-13.51,23.58c-.27.47-.76.75-1.3.75h-6.19c-.79,0-1.44-.6-1.5-1.39l-2.89-38.28c-.32-3.89-1.47-8.29-1.91-9.95-.2-.74-.23-.86-.23-1.09,0-.12.01-.24.04-.36l.07-.28c.17-.67.77-1.14,1.46-1.14h19.31c.46,0,.9.21,1.18.58.29.36.38.84.27,1.29l-.07.28c-.06.23-.14.38-.39.81-2.45,4.32-3.6,7.94-3.42,10.75l.99,15.65,7.32-12.73-.31-3.8c-.32-3.9-1.56-8.24-2.03-9.88-.21-.74-.24-.85-.24-1.1,0-.19.04-.38.11-.55l.14-.34c.23-.57.78-.95,1.39-.95h19.31c.5,0,.96.25,1.24.66.28.41.33.94.15,1.4l-.14.34s-.03.08-.05.11l-.1.19c-1.13,2.02-3.72,7.16-3.45,11.35l1.06,16.55,8.93-15.23c2.05-3.5,3-7.92,2.82-13.11-.01-.41-.02-.58.02-.79l.08-.35c.17-.67.77-1.13,1.46-1.13h10.58c.45,0,.88.2,1.16.55.29.35.4.8.31,1.24l-.07.34c-.11.45-.2.57-1.31,2.02-1.59,2.06-4.54,5.91-6.56,9.37l-22.2,38.21c-.27.46-.76.75-1.3.75h-7.08Z"/>
        <path class="cls-1" d="M281.09,3.83l-.07.34c-.07.28-4.81,5.98-7.7,10.93l-22.2,38.21h-7.08l-2.06-27.83-15.94,27.83h-6.19l-2.89-38.28c-.41-5.02-2.13-10.72-2.13-10.93l.07-.28h19.31l-.07.28c-.07.27-4.19,6.6-3.85,12.03l1.31,20.62,10.03-17.46-.34-4.26c-.41-5.02-2.27-10.65-2.27-10.86l.14-.34h19.31l-.14.34c-.14.28-4.05,6.87-3.71,12.3l1.37,21.44,11.41-19.45c3.78-6.46,2.96-14.02,3.02-14.36l.07-.28h10.58M281.09.83h-10.58c-1.37,0-2.57.93-2.91,2.27l-.07.28s-.02.1-.03.15c-.08.38-.07.67-.05,1.13.17,4.9-.71,9.04-2.62,12.3l-6.45,11-.75-11.67c-.17-2.63,1.05-6.56,3.26-10.52.07-.13.12-.22.14-.25.04-.07.07-.15.1-.23l.14-.34c.37-.92.26-1.97-.3-2.8s-1.49-1.32-2.48-1.32h-19.31c-1,0-1.92.5-2.47,1.3-.03-.05-.07-.1-.11-.15-.57-.73-1.44-1.16-2.37-1.16h-19.31c-1.38,0-2.58.94-2.91,2.28l-.07.28c-.06.24-.09.48-.09.72,0,.43.06.67.27,1.47.43,1.62,1.56,5.93,1.87,9.7l2.89,38.26c.12,1.56,1.42,2.77,2.99,2.77h6.19c1.08,0,2.07-.58,2.6-1.51l11.07-19.33,1.34,18.06c.12,1.57,1.42,2.78,2.99,2.78h7.08c1.07,0,2.06-.57,2.59-1.49l22.2-38.21c1.97-3.38,4.88-7.17,6.45-9.21,1.21-1.57,1.39-1.81,1.56-2.49.01-.05.02-.1.03-.15l.07-.34c.18-.88-.05-1.79-.62-2.49-.57-.69-1.42-1.1-2.32-1.1h0ZM233.97,26.62l-.68-10.67c-.11-1.72.35-4.81,3.16-9.8.52,1.85,1.57,5.7,1.85,9.14l.27,3.33-4.6,8.01h0Z"/>
      </g>
      <g>
        <path class="cls-2" d="M183.7,54.81c-.46,0-.9-.21-1.18-.58s-.39-.84-.27-1.29l.07-.27c.04-.21.14-.39.44-.94.88-1.6,3.54-6.47,3.23-10.54l-.24-3.08h-13.62l-.8,1.38c-2,3.41-2.67,7.71-1.99,12.76.07.5.09.71.04,1l-.07.35c-.14.7-.76,1.2-1.47,1.2h-11.75c-.46,0-.9-.21-1.18-.58s-.39-.84-.27-1.29l.07-.27c.05-.2.14-.39.27-.56,1.96-2.52,6.51-8.79,11.1-16.35l13.67-22.61c1.35-2.26,1.89-5.13,1.6-8.54-.03-.37-.05-.61.02-.9l.06-.25c.17-.67.77-1.14,1.46-1.14h14.5c.78,0,1.43.6,1.49,1.37l3.23,37.25c.43,4.76,1.21,8.54,2.38,11.54.11.29.13.61.06.91l-.07.27c-.17.67-.77,1.14-1.46,1.14h-19.31ZM185.16,31.67l-1.12-13.28-7.99,13.28h9.12Z"/>
        <path class="cls-1" d="M197.38,3.83l3.23,37.25c.48,5.36,1.37,9.14,2.47,11.96l-.07.27h-19.31l.07-.27c.07-.34,4.12-6.6,3.71-11.96l-.34-4.47h-15.88l-1.24,2.13c-3.78,6.46-2.06,13.88-2.13,14.23l-.07.34h-11.75l.07-.27c2.2-2.82,6.74-9.14,11.2-16.49l13.68-22.61c2.68-4.47,1.72-9.62,1.79-9.83l.07-.28h14.5M173.39,33.17h13.4l-1.65-19.52-11.75,19.52M197.38.83h-14.5c-1.38,0-2.58.94-2.91,2.28l-.06.23c-.14.53-.1.98-.07,1.4.1,1.15.4,4.65-1.39,7.65l-13.67,22.6c-4.55,7.5-9.06,13.71-11,16.2-.26.33-.44.71-.55,1.12l-.07.27c-.22.9-.02,1.84.55,2.57.57.73,1.44,1.15,2.36,1.15h11.75c1.43,0,2.66-1.01,2.94-2.41l.07-.34c.11-.54.05-.94-.02-1.5-.63-4.72-.02-8.69,1.8-11.8l.37-.65h11.37l.13,1.7c.28,3.62-2.23,8.2-3.05,9.7-.31.56-.48.89-.59,1.34l-.06.24c-.22.9-.02,1.84.55,2.57.57.73,1.44,1.15,2.36,1.15h19.31c1.38,0,2.58-.94,2.91-2.27l.07-.27c.15-.6.11-1.24-.12-1.82-1.12-2.87-1.87-6.51-2.28-11.14l-3.23-37.24c-.13-1.55-1.43-2.74-2.99-2.74h0ZM178.7,30.17l4.23-7.03.59,7.03h-4.83Z"/>
      </g>
      <g>
        <path class="cls-2" d="M143.67,54.78c-.46,0-.9-.21-1.18-.58-.28-.37-.38-.84-.27-1.29l.07-.27c.06-.24.13-.37.53-1.09.96-1.74,3.5-6.35,4.56-10.4l6.94-25.98c1.13-4.09,1.07-8.68,1.04-10.41,0-.63-.01-.8.05-1.04l.07-.28c.17-.67.77-1.13,1.46-1.13h17.46c.46,0,.9.21,1.18.58.28.36.39.84.27,1.29l-.07.28c-.06.25-.13.37-.53,1.09-.96,1.74-3.5,6.35-4.57,10.41l-6.94,25.98c-1.07,4.07-1.05,8.67-1.04,10.4,0,.66,0,.82-.05,1.05l-.07.28c-.17.67-.77,1.14-1.46,1.14h-17.46Z"/>
        <path class="cls-1" d="M174.39,3.79l-.07.28c-.07.27-3.71,6.25-5.09,11.48l-6.94,25.98c-1.37,5.22-1.03,11.2-1.1,11.48l-.07.27h-17.46l.07-.27c.07-.28,3.71-6.25,5.09-11.48l6.94-25.98c1.44-5.22,1.03-11.2,1.1-11.48l.07-.28h17.46M174.39.79h-17.46c-1.37,0-2.57.93-2.91,2.27l-.07.28c-.11.43-.1.73-.09,1.43.02,1.67.08,6.1-.99,9.98l-6.95,26c-1.02,3.88-3.5,8.38-4.43,10.07-.43.79-.56,1.03-.67,1.46l-.07.26c-.23.9-.03,1.85.54,2.58s1.44,1.16,2.37,1.16h17.46c1.38,0,2.58-.94,2.91-2.27l.07-.27c.1-.42.1-.71.1-1.42,0-1.68-.03-6.13.99-10.02l6.94-25.97c1.02-3.89,3.5-8.39,4.43-10.08.43-.78.56-1.01.66-1.44l.07-.29c.22-.9.02-1.84-.55-2.57-.57-.73-1.44-1.15-2.36-1.15h0Z"/>
      </g>
      <g>
        <path class="cls-2" d="M127.97,54.81c-.46,0-.9-.21-1.18-.58s-.39-.84-.27-1.29l.07-.27c.06-.23.12-.35.54-1.16.91-1.74,3.34-6.37,4.56-10.39l2.84-9.27h-11.27l-2.28,10.03c-.91,4.05-1,8.67-1.04,10.41-.01.73-.02.88-.07,1.1l-.07.28c-.17.67-.77,1.14-1.46,1.14h-17.53c-.46,0-.9-.21-1.18-.58-.28-.36-.39-.84-.27-1.29l.07-.27c.06-.24.13-.37.53-1.09.96-1.74,3.5-6.35,4.56-10.4l6.94-25.98c1.13-4.09,1.07-8.68,1.04-10.41,0-.63-.01-.8.05-1.04l.07-.27c.17-.67.77-1.14,1.46-1.14h17.53c.46,0,.9.21,1.18.58.28.36.39.84.27,1.29l-.07.28c-.06.23-.12.36-.54,1.15-.92,1.74-3.35,6.37-4.57,10.4l-2.85,9.41h11.22l2.34-10.18c.96-4.07,1.02-8.69,1.04-10.42,0-.71.01-.86.07-1.08l.07-.27c.17-.67.77-1.14,1.46-1.14h17.53c.46,0,.9.21,1.18.58.28.36.39.84.27,1.29l-.07.28c-.06.25-.13.37-.53,1.09-.96,1.74-3.5,6.35-4.57,10.41l-6.94,25.98c-1.13,4.09-1.07,8.68-1.04,10.41,0,.63.01.8-.05,1.04l-.07.28c-.17.67-.77,1.14-1.46,1.14h-17.53Z"/>
        <path class="cls-1" d="M158.76,3.83l-.07.28c-.07.27-3.71,6.25-5.09,11.48l-6.94,25.98c-1.44,5.22-1.03,11.2-1.1,11.48l-.07.27h-17.52l.07-.27c.07-.28,3.51-6.25,5.09-11.48l3.44-11.2h-14.5l-2.54,11.2c-1.17,5.22-1.03,11.2-1.1,11.48l-.07.27h-17.52l.07-.27c.07-.28,3.71-6.25,5.09-11.48l6.94-25.98c1.44-5.22,1.03-11.2,1.1-11.48l.07-.28h17.53l-.07.28c-.07.27-3.51,6.25-5.09,11.48l-3.44,11.34h14.43l2.61-11.34c1.24-5.22,1.03-11.2,1.1-11.48l.07-.28h17.53M158.76.83h-17.53c-1.38,0-2.58.94-2.91,2.28l-.07.28c-.1.39-.1.65-.11,1.42-.02,1.69-.07,6.18-1,10.08l-2.08,9.03h-8l2.26-7.47c1.18-3.89,3.56-8.43,4.46-10.13.46-.87.57-1.08.67-1.48l.07-.28c.22-.9.02-1.85-.55-2.57-.57-.73-1.44-1.15-2.36-1.15h-17.53c-1.38,0-2.58.94-2.91,2.28l-.07.28c-.11.42-.1.72-.09,1.43.02,1.67.08,6.1-.99,9.97l-6.95,26c-1.02,3.88-3.5,8.38-4.43,10.07-.43.78-.56,1.02-.67,1.45l-.07.28c-.22.9-.02,1.84.55,2.57.57.73,1.44,1.15,2.36,1.15h17.52c1.38,0,2.58-.94,2.91-2.27l.07-.27c.1-.39.1-.63.12-1.44.03-1.7.13-6.21,1-10.12l2.01-8.86h8.05l-2.25,7.32c-1.18,3.9-3.56,8.43-4.46,10.14-.46.88-.57,1.08-.67,1.49l-.07.28c-.22.9-.02,1.84.55,2.57.57.73,1.44,1.15,2.36,1.15h17.52c1.38,0,2.58-.94,2.91-2.27l.07-.27c.11-.43.1-.72.09-1.43-.02-1.67-.08-6.1.99-9.98l6.95-26c1.02-3.89,3.5-8.39,4.43-10.08.43-.78.56-1.01.66-1.44l.07-.29c.22-.9.02-1.84-.55-2.57-.57-.73-1.44-1.15-2.36-1.15h0Z"/>
      </g>
      <g>
        <path class="cls-2" d="M66.67,54.81c-.46,0-.9-.21-1.18-.58s-.39-.84-.27-1.29l.07-.27c.06-.24.13-.37.53-1.09.96-1.74,3.5-6.35,4.56-10.41l6.94-25.98c1.07-4.07,1.05-8.67,1.04-10.4,0-.66,0-.82.05-1.05l.07-.27c.17-.67.77-1.14,1.46-1.14h24.05c4.82,0,8.79,1.71,11.17,4.8,2.46,3.2,3.11,7.65,1.82,12.54-2.61,9.99-11.18,15.96-22.92,15.96l-5.68-.06-1.63,6.35c-1,3.79-1.01,7.99-1.02,10.01,0,.9,0,1.25-.1,1.55l-.05.18c-.17.67-.77,1.13-1.45,1.13h-17.46ZM92.09,29.13c4.82,0,7.14-8.18,7.9-10.87,1.16-4.18,1.25-7.35.24-8.67-.25-.33-.71-.76-1.89-.76h-2.77l-5.45,20.3h1.96Z"/>
        <path class="cls-1" d="M103.98,3.83c9.28,0,13.88,6.6,11.55,15.46-2.93,11.23-12.87,14.85-21.47,14.85-.08,0-.16,0-.24,0l-6.6-.07-1.92,7.49c-1.37,5.22-.96,11.2-1.1,11.48l-.07.27h-17.46l.07-.27c.07-.28,3.71-6.25,5.09-11.48l6.94-25.98c1.37-5.22,1.03-11.2,1.1-11.48l.07-.28h24.05M88.18,30.63h3.92c5.64,0,8.18-7.83,9.35-11.96,1.03-3.71,2.54-11.34-3.09-11.34h-3.92l-6.25,23.3M103.98.83h-24.05c-1.38,0-2.58.94-2.91,2.28l-.07.28c-.1.41-.1.71-.1,1.42,0,1.68.03,6.13-.99,10.01l-6.94,25.97c-1.02,3.88-3.5,8.38-4.43,10.07-.43.78-.56,1.02-.67,1.45l-.07.28c-.22.9-.02,1.84.55,2.57.57.73,1.44,1.15,2.36,1.15h17.46c1.38,0,2.58-.94,2.91-2.27l.03-.12c.16-.51.16-1.03.17-1.98,0-1.96.02-6.03.96-9.62l1.34-5.23,4.25.04h.27c12.48,0,21.59-6.39,24.38-17.09,1.41-5.34.67-10.26-2.09-13.83-2.68-3.47-7.07-5.39-12.36-5.39h0ZM96.73,10.33h1.62c.26,0,.59.03.7.17.39.52.8,2.72-.5,7.37-2.29,8.06-4.77,9.76-6.46,9.76h0l4.64-17.3h0Z"/>
      </g>
      <g>
        <path class="cls-2" d="M50.48,55.64c-6.61-.1-11.89-2.47-15.24-6.85-3.87-5.05-4.82-12.5-2.68-21C36.52,12.07,48.65,1.5,62.73,1.5c.19,0,.39,0,.58,0,6.59.14,11.85,2.53,15.2,6.92,3.85,5.04,4.82,12.45,2.72,20.86-3.91,15.77-16.09,26.36-30.32,26.36h-.43ZM62.37,7.74c-3.98,0-9.42,10.96-12,21.2-1.87,7.42-2.64,16.89-.38,19.82.38.49.79.71,1.35.72,4.02,0,9.48-11,12.07-21.27,1.86-7.37,2.63-16.79.39-19.72-.38-.5-.81-.73-1.38-.75l-.05-1.5v1.5Z"/>
        <path class="cls-1" d="M62.73,3c.18,0,.37,0,.55,0,13.4.28,20.34,10.51,16.49,25.91-3.81,15.37-15.56,25.23-28.86,25.23-.14,0-.27,0-.41,0-13.47-.21-20.41-10.45-16.49-25.98,3.86-15.32,15.42-25.16,28.73-25.16M51.37,50.98c5.83,0,11.37-13.97,13.5-22.4,2.13-8.45,3.44-22.2-2.41-22.34-.03,0-.06,0-.09,0-5.81,0-11.33,13.92-13.45,22.34-2.13,8.45-3.44,22.33,2.41,22.4.01,0,.03,0,.04,0M62.74,0h0c-14.79,0-27.5,11.02-31.64,27.43-2.26,8.95-1.21,16.86,2.95,22.28,3.65,4.76,9.32,7.33,16.41,7.44.15,0,.31,0,.46,0,14.93,0,27.7-11.05,31.78-27.5,2.21-8.85,1.16-16.71-2.98-22.13C76.07,2.75,70.41.15,63.35,0c-.2,0-.41,0-.61,0h0ZM51.37,50.98v-3c-.06,0-.08,0-.08,0-1.27-.77-2.04-8.44.54-18.67,2.8-11.12,8.06-20.07,10.54-20.07.06,0,.09,0,.1,0,1.29.7,2.08,8.29-.51,18.59-2.81,11.15-8.09,20.14-10.59,20.14v3h0Z"/>
      </g>
      <g>
        <path class="cls-2" d="M21.76,55.57c-3.44,0-10.53-.59-19.37-4.53-.67-.3-1.02-1.03-.84-1.74l3.23-12.78c.17-.67.77-1.13,1.45-1.13h.48c.46,0,.89.21,1.17.56.54.68,1.12,1.45,1.74,2.26,3.43,4.52,8.13,10.72,13.1,10.72,1.28,0,4.36-.41,5.35-4.17,1.01-3.73-1.03-6.8-7.04-10.58-8.47-5.34-13.63-10.73-11.23-19.66C12.1,6.16,19.74,1.57,31.31,1.57c5.73,0,12.46,1.26,18.45,3.46.73.27,1.13,1.05.93,1.8l-3.57,13.33c-.18.66-.77,1.11-1.45,1.11h-.41c-.43,0-.84-.19-1.13-.51-.83-.95-1.71-2.17-2.64-3.46-2.99-4.14-6.7-9.29-11.35-9.29-2.57,0-4.66,1.58-5.21,3.93-.8,3.42,1.86,5.79,8.14,9.81,6.41,4.12,13.42,10.08,10.67,19.62-1.98,7.07-9.55,14.21-21.99,14.21Z"/>
        <path class="cls-1" d="M31.31,3.07c5.22,0,11.75,1.1,17.94,3.37l-3.57,13.33h-.41c-3.44-3.92-8.11-13.26-15.12-13.26-3.37,0-5.98,2.13-6.67,5.09-1.1,4.67,2.89,7.63,8.8,11.41,7.7,4.95,12.23,10.31,10.03,17.94-1.92,6.87-9.42,13.13-20.55,13.13-4.6,0-11.2-1.03-18.76-4.4l3.23-12.78h.48c3.78,4.74,9.35,13.54,16.01,13.54,2.34,0,5.7-1.1,6.8-5.29,1.31-4.81-1.58-8.38-7.7-12.23-8.73-5.5-12.65-10.31-10.58-18.01,1.99-7.22,8.66-11.82,20.07-11.82M31.31.07C19.18.07,10.82,5.18,8.36,14.1c-2.79,10.43,4.06,16.42,11.88,21.34,6.95,4.37,6.95,6.89,6.4,8.91-.67,2.55-2.49,3.08-3.91,3.08-4.23,0-8.66-5.85-11.9-10.12-.62-.82-1.2-1.59-1.76-2.29-.57-.71-1.43-1.13-2.35-1.13h-.48c-1.37,0-2.57.93-2.91,2.27L.09,48.93c-.36,1.41.35,2.88,1.69,3.48,9.1,4.05,16.43,4.66,19.98,4.66,13.23,0,21.3-7.69,23.44-15.32,3.05-10.59-4.99-17.21-11.3-21.27-6.36-4.07-8.04-5.9-7.5-8.2.39-1.69,1.86-2.77,3.75-2.77,3.88,0,7.35,4.81,10.13,8.67.95,1.32,1.86,2.57,2.73,3.57.57.65,1.39,1.02,2.26,1.02h.41c1.36,0,2.55-.91,2.9-2.22l3.57-13.33c.4-1.5-.41-3.06-1.86-3.59C44.13,1.37,37.22.07,31.31.07h0Z"/>
      </g>
    </g>
  </g>
</svg>