<?xml version="1.0" encoding="UTF-8" standalone="no"?>
<!DOCTYPE svg PUBLIC "-//W3C//DTD SVG 1.1//EN" "http://www.w3.org/Graphics/SVG/1.1/DTD/svg11.dtd">
<svg width="100%" height="100%" viewBox="0 0 60 71" version="1.1" xmlns="http://www.w3.org/2000/svg" xmlns:xlink="http://www.w3.org/1999/xlink" xml:space="preserve" xmlns:serif="http://www.serif.com/" style="fill-rule:evenodd;clip-rule:evenodd;stroke-linejoin:round;stroke-miterlimit:2;">
    <g transform="matrix(1,0,0,1,-149.868,-187.826)">
        <g transform="matrix(0.70747,0,0,0.70747,38.588,21.7462)">
            <g transform="matrix(1.41349,0,0,1.41349,-4.57748,-27.3369)">
                <path d="M143.87,249.764C147.494,249.764 150.748,249.333 153.636,248.493C156.658,247.613 159.233,246.349 161.376,244.729C163.629,243.025 165.357,240.956 166.57,238.53C167.778,236.113 168.398,233.412 168.398,230.42C168.398,225.844 166.916,222.151 164.064,219.299C161.423,216.658 157.474,214.675 152.137,213.52L143.775,211.718C142.166,211.375 141.019,211.074 140.42,210.578C140.332,210.504 140.246,210.439 140.246,210.332C140.246,210.056 140.334,209.813 140.511,209.603C140.842,209.211 141.357,208.964 141.995,208.755C142.985,208.432 144.188,208.292 145.598,208.292C147.061,208.292 148.578,208.434 150.148,208.713C151.639,208.979 152.979,209.371 154.163,209.901C154.185,209.911 154.208,209.921 154.23,209.931C156.436,210.855 158.354,211.009 159.955,210.618C161.721,210.186 163.124,209.285 164.184,207.95C165.197,206.673 165.788,205.195 165.939,203.506C166.082,201.89 165.801,200.326 165.083,198.818C164.34,197.259 163.145,196.006 161.45,195.106C159.355,193.879 156.859,192.936 153.969,192.315C151.188,191.717 148.445,191.42 145.742,191.42C142.206,191.42 139.001,191.866 136.125,192.737C133.141,193.64 130.574,194.925 128.412,196.567C126.141,198.291 124.393,200.379 123.157,202.822C121.919,205.269 121.286,207.986 121.286,210.98C121.286,215.619 122.724,219.386 125.484,222.323C128.093,225.098 132.017,227.131 137.343,228.243L145.766,230.042C147.439,230.398 148.638,230.73 149.296,231.228C149.387,231.297 149.438,231.386 149.438,231.5C149.438,231.787 149.169,231.936 148.877,232.129C147.927,232.756 146.237,232.892 143.87,232.892C142.044,232.892 140.089,232.67 138.002,232.235C135.949,231.807 134.108,231.215 132.483,230.445C132.464,230.436 132.445,230.427 132.425,230.418C130.278,229.456 128.341,229.32 126.638,229.801C124.879,230.298 123.469,231.262 122.398,232.678C121.41,233.984 120.801,235.481 120.589,237.176C120.369,238.939 120.663,240.611 121.472,242.19C122.273,243.756 123.609,245.063 125.575,246.01C127.208,246.8 129.05,247.488 131.104,248.067C133.114,248.634 135.24,249.061 137.482,249.344C139.701,249.625 141.83,249.764 143.87,249.764Z" style="fill:rgb(214,202,144);fill-rule:nonzero;"/>
                <path d="M120.741,226.026C119.558,226.85 118.518,227.862 117.614,229.057C115.992,231.2 114.983,233.652 114.636,236.432C114.263,239.418 114.761,242.248 116.13,244.923C117.477,247.556 119.663,249.821 122.968,251.414C124.891,252.344 127.057,253.16 129.475,253.842C131.762,254.487 134.179,254.974 136.729,255.297C139.209,255.61 141.59,255.764 143.87,255.764C148.116,255.764 151.928,255.238 155.312,254.254C159.098,253.153 162.312,251.544 164.996,249.514C168.01,247.234 170.313,244.459 171.936,241.213C173.545,237.995 174.398,234.404 174.398,230.42C174.398,224.084 172.256,219.006 168.306,215.056C167.855,214.605 167.375,214.167 166.865,213.743C167.602,213.137 168.273,212.448 168.882,211.681C170.627,209.484 171.657,206.944 171.915,204.037C172.154,201.349 171.695,198.747 170.5,196.239C169.236,193.584 167.24,191.415 164.376,189.867C161.81,188.379 158.762,187.208 155.23,186.449C152.022,185.76 148.86,185.42 145.742,185.42C141.566,185.42 137.784,185.966 134.386,186.994C130.668,188.12 127.478,189.742 124.783,191.789C121.764,194.082 119.447,196.865 117.803,200.113C116.154,203.374 115.286,206.99 115.286,210.98C115.286,217.103 117.209,222.08 120.741,226.026ZM143.87,249.764C147.494,249.764 150.748,249.333 153.636,248.493C156.658,247.613 159.233,246.349 161.376,244.729C163.629,243.025 165.357,240.956 166.57,238.53C167.778,236.113 168.398,233.412 168.398,230.42C168.398,225.844 166.916,222.151 164.064,219.299C161.423,216.658 157.474,214.675 152.137,213.52L143.775,211.718C142.166,211.375 141.019,211.074 140.42,210.578C140.332,210.504 140.246,210.439 140.246,210.332C140.246,210.056 140.334,209.813 140.511,209.603C140.842,209.211 141.357,208.964 141.995,208.755C142.985,208.432 144.188,208.292 145.598,208.292C147.061,208.292 148.578,208.434 150.148,208.713C151.639,208.979 152.979,209.371 154.163,209.901C154.185,209.911 154.208,209.921 154.23,209.931C156.436,210.855 158.354,211.009 159.955,210.618C161.721,210.186 163.124,209.285 164.184,207.95C165.197,206.673 165.788,205.195 165.939,203.506C166.082,201.89 165.801,200.326 165.083,198.818C164.34,197.259 163.145,196.006 161.45,195.106C159.355,193.879 156.859,192.936 153.969,192.315C151.188,191.717 148.445,191.42 145.742,191.42C142.206,191.42 139.001,191.866 136.125,192.737C133.141,193.64 130.574,194.925 128.412,196.567C126.141,198.291 124.393,200.379 123.157,202.822C121.919,205.269 121.286,207.986 121.286,210.98C121.286,215.619 122.724,219.386 125.484,222.323C128.093,225.098 132.017,227.131 137.343,228.243L145.766,230.042C147.439,230.398 148.638,230.73 149.296,231.228C149.387,231.297 149.438,231.386 149.438,231.5C149.438,231.787 149.169,231.936 148.877,232.129C147.927,232.756 146.237,232.892 143.87,232.892C142.044,232.892 140.089,232.67 138.002,232.235C135.949,231.807 134.108,231.215 132.483,230.445C132.464,230.436 132.445,230.427 132.425,230.418C130.278,229.456 128.341,229.32 126.638,229.801C124.879,230.298 123.469,231.262 122.398,232.678C121.41,233.984 120.801,235.481 120.589,237.176C120.369,238.939 120.663,240.611 121.472,242.19C122.273,243.756 123.609,245.063 125.575,246.01C127.208,246.8 129.05,247.488 131.104,248.067C133.114,248.634 135.24,249.061 137.482,249.344C139.701,249.625 141.83,249.764 143.87,249.764Z" style="fill: #26100b;"/>
            </g>
        </g>
    </g>
</svg>
