<?xml version="1.0" encoding="UTF-8" standalone="no"?>
<!DOCTYPE svg PUBLIC "-//W3C//DTD SVG 1.1//EN" "http://www.w3.org/Graphics/SVG/1.1/DTD/svg11.dtd">
<svg width="100%" height="100%" viewBox="0 0 470 470" version="1.1" xmlns="http://www.w3.org/2000/svg" xmlns:xlink="http://www.w3.org/1999/xlink" xml:space="preserve" xmlns:serif="http://www.serif.com/" style="fill-rule:evenodd;clip-rule:evenodd;stroke-linejoin:round;stroke-miterlimit:2;">
    <g transform="matrix(1,0,0,1,-1505.37,-734.037)">
        <g transform="matrix(1,0,0,1,0,68.3078)">
            <path d="M1579.88,1072.33C1580.86,1069.86 1582.94,1067.28 1585.54,1064.77C1590.5,1059.97 1597.42,1055.57 1603.76,1053.08C1614.8,1048.73 1621.23,1046.78 1631.68,1041.37C1635.38,1039.45 1638.59,1037.8 1641.58,1036.16C1641.25,1036.71 1640.92,1037.28 1640.57,1037.86C1638.12,1041.93 1635.65,1045.56 1632.16,1052.16C1631.03,1054.31 1628.51,1058.21 1628.04,1060.45C1627.68,1062.18 1628.1,1063.55 1628.8,1064.47C1629.44,1065.32 1630.38,1066 1631.84,1066.18C1635.13,1066.59 1638.5,1066.22 1641.82,1065.8C1644.58,1065.45 1647.3,1065.05 1649.89,1065.33C1658.94,1066.28 1665.66,1066.27 1673.6,1070.79C1674.27,1071.17 1682.01,1077.85 1690.09,1084.84C1690.27,1085.04 1690.48,1085.22 1690.69,1085.36L1695.42,1089.45C1700.76,1094.07 1718.82,1117.08 1722.67,1122.7C1723.77,1124.3 1725.95,1124.7 1727.54,1123.61C1729.13,1122.52 1729.54,1120.34 1728.45,1118.74C1724.43,1112.89 1705.56,1088.96 1700,1084.16C1698.43,1082.8 1696.81,1081.4 1695.19,1080.01C1691.39,1074.94 1687.26,1067.98 1686.61,1063.69C1685.58,1056.86 1685.07,1044.53 1685.19,1037.84C1685.27,1033.24 1685.04,1029.24 1686.82,1024.76C1688.67,1020.08 1692.84,1016.88 1696.49,1013.69C1700.47,1010.21 1702.25,1008.51 1703.62,1007.16C1704.36,1010.74 1706.38,1013.78 1709.03,1016.41C1711.66,1019.02 1714.91,1021.23 1717.68,1023.28C1723.77,1027.79 1731.53,1032.72 1739.15,1033.12C1742.64,1033.3 1747,1031.9 1751.62,1029.36C1757.73,1026 1764.47,1020.68 1770.26,1015.57C1774.42,1011.89 1776.43,1009.46 1778.05,1005.5C1779.88,1007.51 1781.7,1009.81 1783.22,1011.11C1785.23,1012.84 1787.52,1014.5 1789.44,1016.37C1790.92,1017.81 1792.22,1019.33 1792.68,1021.25C1793.38,1024.15 1792.16,1030.42 1791.57,1033.14C1789.48,1042.77 1788.49,1046.84 1783.68,1058.36C1782.2,1061.9 1777.61,1069.19 1775.47,1072.2C1769.1,1081.18 1766.5,1084.35 1762.73,1089.42C1762.7,1089.47 1762.66,1089.52 1762.63,1089.57C1758.72,1094.02 1748.54,1112.01 1743.78,1118.69C1742.66,1120.27 1743.03,1122.45 1744.6,1123.57C1746.17,1124.69 1748.36,1124.33 1749.48,1122.75C1754.27,1116.03 1764.63,1097.28 1767.96,1094.11C1776.26,1086.21 1788.95,1074.5 1794.68,1072.52C1799.65,1070.81 1807.97,1068.59 1815.34,1067.08C1819.37,1066.26 1823.12,1065.65 1825.84,1065.49C1832.25,1065.1 1834,1064.88 1838.15,1065.16C1842.67,1065.47 1845.57,1064.03 1846.74,1062.38C1847.9,1060.75 1848.27,1058.52 1846.67,1055.82C1843.2,1049.93 1839.22,1044.49 1834.8,1038.86C1832.18,1035.53 1829.28,1032.29 1826.35,1029.23C1827.59,1029.61 1828.54,1029.92 1829,1030.08C1837.85,1033.19 1839.83,1034.92 1847.9,1039.72C1859.42,1046.56 1867.12,1051.16 1877.81,1059.46C1880.9,1061.86 1889.24,1069.73 1896.06,1076.7C1854.6,1113.42 1800.07,1135.73 1740.37,1135.73C1678.35,1135.73 1621.9,1111.65 1579.88,1072.33ZM1574.62,1067.25C1531.85,1024.68 1505.37,965.774 1505.37,900.729C1505.37,771.029 1610.67,665.729 1740.37,665.729C1870.07,665.729 1975.37,771.029 1975.37,900.729C1975.37,968.212 1946.86,1029.09 1901.23,1071.98C1894.13,1064.71 1885.34,1056.44 1882.11,1053.93C1871.16,1045.43 1863.27,1040.71 1851.47,1033.7C1842.88,1028.59 1840.74,1026.79 1831.32,1023.48C1829.62,1022.88 1821.89,1020.5 1816.03,1019.05L1813.87,1017C1810.66,1013.95 1806.53,1009.36 1803.62,1006.65C1801.86,1005.01 1800.31,1004 1799.42,1003.72C1797.26,1003.03 1793.75,1001.51 1782.82,1000.21C1782.72,1000.2 1782.62,1000.19 1782.51,1000.19C1781.28,998.839 1780.04,997.587 1778.87,996.76C1778.8,995.516 1778.71,994.131 1778.67,992.543C1778.58,989.351 1778.64,986.71 1778.61,983.88C1778.85,983.468 1779,983.016 1779.06,982.556C1789.68,975.643 1799.17,967.181 1806.35,959.975C1811.2,955.107 1814.32,948.25 1817.15,938.926C1826.56,938.798 1835.58,937.182 1843.01,930.655C1854.46,920.6 1858.04,906.685 1859.96,892.382C1860.57,887.816 1860.79,882.772 1859.78,879.484C1859.1,877.303 1857.41,875.713 1854.95,874.814C1851.46,873.543 1845.97,873.833 1842.82,873.972C1838.02,874.183 1834.59,874.757 1831.52,875.468L1831.65,874.234C1831.8,873.776 1831.85,873.283 1831.79,872.783C1832.06,867.95 1830.23,865.771 1827.59,860.21C1825.38,855.542 1823.41,851.056 1822.25,843.882C1819.77,828.453 1812.14,825.657 1804.67,818.868C1799.94,814.575 1796.31,812.069 1793.36,809.819C1789.54,806.908 1787.05,804.484 1784.72,798.063C1783.2,793.894 1782.49,788.193 1777.99,781.057C1776.88,779.302 1774.78,777.596 1772.14,776.31C1768.69,774.63 1764.33,773.606 1760.88,773.696C1759.04,773.744 1757.23,773.987 1755.65,774.293C1755.72,772.188 1755.76,768.346 1755.86,766.808C1756.45,758.077 1757.27,752.389 1757.75,743.651C1757.78,743.099 1757.87,742.288 1757.92,741.375C1758.07,741.257 1758.21,741.128 1758.34,740.989C1759.37,740.296 1761.74,738.717 1762.47,738.434C1768.35,736.164 1780.11,736.374 1784.93,736.448C1798.29,736.655 1803.06,740.333 1810.7,748.029C1818.29,755.663 1820.25,755.743 1825.37,763.699C1828.75,768.955 1830.96,776.099 1833.58,782.405C1835.56,787.164 1837.78,791.477 1840.63,794.507C1847.3,801.59 1855.26,807.905 1861.79,814.472C1867.7,820.418 1872.49,826.503 1873.37,833.841C1874.54,843.55 1873.47,851.321 1872.59,859.305C1871.64,867.834 1870.9,876.59 1872.86,887.869C1874.69,898.374 1880.86,905.908 1884.87,915.174C1886.85,919.739 1890.3,926.974 1890.21,932.013C1890.06,940.324 1888.1,949.216 1888.9,957.782C1889.43,963.398 1891.18,967.056 1892.95,970.659C1894.37,973.565 1895.81,976.423 1896.14,980.816C1897.16,994.768 1889.67,999.452 1881.4,1008.99C1877.14,1013.83 1873.51,1016.07 1868.3,1015.7C1866.57,1015.58 1864.94,1015.3 1863.73,1014.67C1865.23,1013.56 1866.84,1012.24 1868.72,1010.68C1874.44,1005.95 1880.18,996.64 1879.43,986.762C1879.28,984.836 1877.59,983.393 1875.67,983.541C1873.74,983.689 1872.3,985.373 1872.45,987.299C1873.02,994.749 1868.57,1001.72 1864.26,1005.29C1857.81,1010.63 1855.35,1012.63 1846.69,1013.48C1845.22,1013.63 1843.04,1013.55 1840.86,1013.21C1849.04,1008.36 1856.15,1000.96 1854.34,986.592C1853.21,977.627 1853.24,972.016 1852.5,961.783C1852.23,957.977 1853.99,953.08 1858.05,952.161C1859.93,951.734 1861.11,949.858 1860.69,947.974C1860.26,946.09 1858.38,944.907 1856.5,945.333C1849.12,947.005 1845.02,955.364 1845.52,962.287C1846.27,972.675 1846.24,978.369 1847.39,987.469C1849.15,1001.34 1839.55,1006.42 1831.62,1010.13C1826.88,1012.36 1825.01,1012.4 1820.07,1010.94C1818.22,1010.39 1816.27,1011.44 1815.72,1013.3C1815.17,1015.15 1816.22,1017.1 1818.08,1017.65C1824.24,1019.48 1827.06,1019.64 1832.18,1017.54C1832.5,1017.89 1832.89,1018.17 1833.35,1018.38C1837.41,1020.14 1843.9,1020.79 1847.38,1020.45C1851.63,1020.03 1854.66,1019.41 1857.28,1018.39C1859.57,1020.82 1863.35,1022.37 1867.81,1022.69C1875.21,1023.21 1880.61,1020.49 1886.66,1013.6C1886.67,1013.6 1886.67,1013.59 1886.68,1013.58C1896.33,1002.45 1904.32,996.591 1903.12,980.303C1903.04,979.266 1902.92,978.295 1902.76,977.38C1906.48,978.007 1910.77,976.168 1914.49,972.287C1915.83,970.893 1915.78,968.675 1914.39,967.338C1913,966.001 1910.78,966.047 1909.44,967.441C1908.24,968.697 1906.98,969.688 1905.72,970.211C1905,970.511 1904.29,970.671 1903.64,970.401C1902.37,969.868 1901.55,968.296 1900.8,965.803C1900.3,964.138 1900.74,962.501 1901.45,960.805C1902.44,958.444 1904,956.028 1905.49,953.459C1909.11,947.263 1912.29,940.315 1909.84,931.918C1908.09,925.913 1903.95,922.144 1899.76,918.412C1896.58,915.577 1893.32,912.791 1892.24,908.029C1891.54,904.974 1891.81,900.839 1892.67,897.01C1894.46,889.098 1895.68,884.609 1896.43,876.448C1897.09,869.364 1895.7,859.563 1893,852.183C1891.28,847.472 1884.18,838.229 1880.52,834.871C1880.46,834.256 1880.4,833.633 1880.32,833.003C1879.46,825.863 1875.78,819.58 1870.62,813.668C1863.59,805.612 1853.74,798.212 1845.73,789.707C1842.74,786.542 1840.75,781.613 1838.75,776.484C1836.48,770.676 1834.27,764.606 1831.26,759.913C1825.79,751.413 1823.77,751.252 1815.67,743.096C1806.6,733.962 1800.89,729.695 1785.03,729.449C1779.65,729.366 1766.52,729.366 1759.95,731.904C1759.19,732.196 1757.44,733.236 1755.94,734.194C1755.45,733.726 1754.88,733.34 1754.21,733.049C1733.11,723.877 1722.59,730.231 1709.64,734.977C1704.87,736.727 1696.99,737.336 1691.38,739.633C1686.25,741.737 1679.21,748.718 1676.96,751.573C1672.21,757.612 1667.36,764.163 1662.34,769.149C1659.32,772.151 1656.27,774.58 1653.1,775.781C1643.14,779.559 1640.51,785.647 1633.94,793.644C1626.91,802.204 1625.58,807.135 1624.73,812.167C1624,816.479 1623.76,820.913 1619.58,828.699C1614.53,838.12 1612.11,842.681 1606.11,850.924C1605.77,850.971 1605.43,851.069 1605.1,851.222C1602.28,852.543 1599.11,853.281 1596.61,855.156C1582.65,865.656 1578.32,884.61 1582.87,900.898C1584.4,906.403 1586.79,911.499 1588.68,916.694C1590.36,921.33 1591.63,926.048 1591.15,931.324C1590.58,937.617 1586.03,944.659 1579.63,946.246C1577.74,946.716 1576.95,946.406 1575.96,945.639C1575.17,945.015 1574.3,944.262 1573.16,943.443L1572.37,942.876C1572.23,942.25 1571.92,941.655 1571.43,941.168C1570.06,939.802 1567.85,939.802 1566.48,941.168C1564.95,942.691 1564.83,944.401 1565.86,946.193C1566.44,947.19 1568.1,948.422 1569.07,949.123C1573.78,952.515 1574.94,954.623 1581.32,953.04C1581.95,952.884 1582.57,952.692 1583.17,952.466C1581.07,955.351 1578.95,958.228 1576.95,961.068C1570.08,970.825 1569.79,979.561 1569.63,988.519C1569.52,994.577 1572.65,1001.65 1577.58,1006.04C1582.08,1010.04 1587.94,1011.95 1594.16,1009.43C1597.27,1013.08 1601.49,1015.78 1605.72,1017.95C1612.16,1021.25 1619.04,1023.17 1627.37,1021.95C1628.15,1021.84 1628.83,1021.48 1629.34,1020.96C1629.99,1021.31 1630.63,1021.64 1631.26,1021.95C1635.14,1023.87 1640.07,1025.44 1644.92,1026.16C1639.93,1029.24 1634.99,1031.77 1628.46,1035.15C1618.26,1040.43 1611.97,1042.32 1601.19,1046.56C1594.06,1049.38 1586.26,1054.34 1580.67,1059.74C1578.14,1062.19 1576.06,1064.75 1574.62,1067.25ZM1791.23,1008.65C1792.79,1009.93 1794.32,1011.25 1795.61,1012.69C1797.46,1014.73 1798.86,1017 1799.48,1019.61C1800.36,1023.27 1799.15,1031.19 1798.41,1034.62C1796.22,1044.72 1795.18,1048.99 1790.14,1061.06C1789.21,1063.28 1787.17,1066.87 1785.15,1070.15C1788.03,1068.08 1790.56,1066.54 1792.4,1065.91C1797.58,1064.12 1806.25,1061.79 1813.94,1060.22C1818.35,1059.33 1822.44,1058.68 1825.41,1058.5C1832.3,1058.08 1834.18,1057.88 1838.63,1058.18C1839.04,1058.21 1839.5,1058.19 1839.92,1058.16C1836.78,1053 1833.22,1048.17 1829.3,1043.19C1823.01,1035.18 1815.03,1027.77 1809.05,1022.07C1805.85,1019.03 1801.74,1014.46 1798.85,1011.77C1798.2,1011.17 1797.29,1010.46 1797.1,1010.32C1795.93,1009.94 1794.31,1009.32 1791.23,1008.65ZM1691.98,1008.34C1691.05,1008.67 1690.25,1008.96 1689.63,1009.18C1682.24,1011.8 1676.16,1014.04 1669.06,1017.35C1661.8,1020.74 1660.85,1021.85 1654.99,1028.04C1652.41,1030.77 1650.52,1034.89 1646.57,1041.46C1644.18,1045.44 1641.76,1048.97 1638.36,1055.43C1637.9,1056.29 1637.02,1057.93 1636.26,1059.34C1637.82,1059.26 1639.39,1059.06 1640.94,1058.86C1644.25,1058.44 1647.52,1058.04 1650.63,1058.37C1660.74,1059.43 1668.19,1059.66 1677.06,1064.71C1677.31,1064.85 1678.5,1065.82 1680.32,1067.33C1680.03,1066.4 1679.81,1065.53 1679.69,1064.74C1678.61,1057.6 1678.07,1044.71 1678.19,1037.72C1678.28,1032.24 1678.2,1027.51 1680.31,1022.19C1682.57,1016.46 1687.42,1012.32 1691.88,1008.42L1691.98,1008.34ZM1771.62,989.621C1767.4,992.538 1762.76,995.354 1761.75,995.82C1750.88,1000.83 1745.62,1003.08 1734.33,1007.02C1731.15,1008.13 1722.59,1010.45 1714.08,1011.55C1716.44,1013.88 1719.36,1015.82 1721.84,1017.65C1726.9,1021.39 1733.2,1025.79 1739.52,1026.13C1741.98,1026.26 1744.98,1025.02 1748.25,1023.23C1753.95,1020.09 1760.22,1015.1 1765.63,1010.32C1768.78,1007.54 1770.39,1005.78 1771.61,1002.76C1772.08,1001.61 1772.12,1000.55 1772.07,999.304C1772,997.52 1771.75,995.465 1771.67,992.739C1771.64,991.645 1771.63,990.616 1771.62,989.621ZM1750.92,739.258C1732.61,731.47 1723.39,737.392 1712.05,741.549C1707.34,743.276 1699.57,743.846 1694.04,746.11C1689.88,747.814 1684.28,753.592 1682.46,755.905C1677.53,762.167 1672.48,768.944 1667.27,774.115C1663.48,777.885 1659.56,780.818 1655.59,782.326C1646.98,785.589 1645.02,791.18 1639.35,798.088C1632.3,806.672 1632.03,810.851 1631.19,816.102C1630.53,820.211 1629.58,824.879 1625.75,832.008C1620.31,842.148 1617.8,846.848 1611.04,856.041C1601.59,868.89 1599.97,874.537 1600.34,889.432C1600.46,894.398 1602.33,899.527 1603.87,905.006C1605.62,911.239 1607,917.862 1605.9,925.047C1604.06,937.115 1592.18,951.59 1582.67,965.098C1576.79,973.448 1576.77,980.981 1576.63,988.647C1576.55,992.863 1578.8,997.754 1582.23,1000.81C1584.51,1002.83 1587.38,1003.96 1590.46,1003.22C1589.82,1001.48 1589.4,999.58 1589.27,997.502C1589.15,995.574 1590.62,993.91 1592.54,993.789C1594.47,993.668 1596.13,995.135 1596.26,997.063C1596.36,998.767 1596.76,1000.29 1597.37,1001.65C1597.82,1001.91 1598.23,1002.28 1598.54,1002.75C1598.91,1003.3 1599.1,1003.93 1599.12,1004.55C1601.62,1007.72 1605.36,1009.9 1608.92,1011.72C1612.99,1013.81 1617.26,1015.26 1622.16,1015.31C1620.84,1013.74 1619.63,1011.82 1618.6,1009.43C1617.83,1007.66 1618.65,1005.6 1620.43,1004.84C1622.2,1004.07 1624.26,1004.89 1625.03,1006.66C1627.36,1012.07 1631.07,1014.04 1634.38,1015.68C1638.79,1017.87 1644.83,1019.52 1650.12,1019.59C1651.03,1019.6 1651.86,1019.96 1652.47,1020.53C1657.1,1015.72 1658.94,1014.35 1666.1,1011.01C1673.42,1007.59 1679.67,1005.28 1687.29,1002.58C1690.43,1001.47 1698.07,998.681 1703.28,996.643C1703.32,995.782 1703.37,994.864 1703.42,993.83C1703.55,991.352 1703.45,988.951 1703.53,984.784C1698.64,982.256 1693.7,979.283 1687.74,975.458C1682.52,972.104 1672.04,963.304 1668.28,957.904C1664.83,952.964 1661.47,948.146 1659.37,941.667C1653.95,941.772 1652.17,941.61 1648.43,940.068C1646.81,939.399 1643.79,937.151 1640.65,934.09C1636.22,929.758 1631.45,923.828 1629.8,919.422C1626.2,909.814 1624.08,901.778 1624.68,891.577C1624.83,889.131 1626.24,880.768 1627.48,878.478C1627.92,877.646 1629.02,876.523 1631.13,875.938C1633.26,875.347 1637.19,875.028 1642.21,875.317C1644.18,875.43 1645.99,875.702 1647.58,876.068C1647.38,874.643 1647.22,873.237 1647.07,871.868C1647.06,871.782 1647.05,871.697 1647.05,871.611C1646.35,864.833 1646.27,859.01 1646.27,856.488C1646.24,843.474 1646.93,834.693 1653.77,825.503C1662.78,813.417 1674.83,808.067 1685.16,797.214C1688.05,794.181 1691.11,787.603 1691.33,781.702C1691.41,779.772 1693.04,778.265 1694.97,778.339C1696.9,778.413 1698.4,780.041 1698.33,781.971C1698.03,789.621 1693.97,798.109 1690.23,802.04C1680.1,812.679 1668.22,817.838 1659.39,829.686C1653.49,837.607 1653.24,845.257 1653.27,856.474C1653.27,858.1 1653.3,861.178 1653.53,865.004C1654.87,863.991 1656.26,862.896 1657.67,861.771C1664.89,855.971 1671.04,851.228 1674.79,843.43C1676.62,839.619 1678.12,835.398 1678.85,831.235C1680.03,824.491 1683.28,817.743 1686.31,813.805C1689.3,809.908 1690.67,807.935 1702.5,805.752C1707.06,804.912 1710,802.491 1713.89,799.956C1715.92,798.626 1718.33,795.716 1719.45,792.741C1720.77,789.261 1721.22,786.516 1722.03,784.228C1723.1,781.2 1724.63,778.777 1728.21,776.584C1734.65,772.635 1740.05,772.678 1748.64,774.553C1748.72,772.659 1748.76,768.063 1748.88,766.335C1749.47,757.637 1750.28,751.972 1750.76,743.268C1750.8,742.627 1750.97,741.546 1751.01,740.411C1751.02,740.084 1750.96,739.566 1750.92,739.258ZM1822.63,981.278C1821.97,983.963 1821.37,985.364 1819.82,988.248C1818.33,991.042 1813.63,994.76 1810.76,995.75C1808.94,996.38 1807.97,998.375 1808.6,1000.2C1809.23,1002.03 1811.22,1003 1813.05,1002.37C1817.16,1000.95 1823.85,995.562 1825.99,991.556C1827.89,988.008 1828.6,986.275 1829.43,982.971C1829.89,981.097 1828.75,979.196 1826.88,978.729C1825,978.261 1823.1,979.403 1822.63,981.278ZM1821.83,878.213L1821.54,878.275C1821.43,879.808 1821.22,881.337 1821.06,882.586C1820.79,884.779 1818.99,891.407 1818.36,893.024C1815,901.711 1811.79,906.338 1807.13,908.932C1802.65,911.426 1796.57,912.012 1786.87,911.942C1775.9,911.863 1771.84,913.89 1759.9,909.962C1755.73,908.592 1751.89,903.868 1750.86,900.764C1748.62,893.971 1748.12,888.376 1748.36,880.289L1748.37,879.777C1746.49,879.327 1744.45,879.049 1742.18,879.022C1740.4,879.001 1738.19,879.398 1736.09,879.946C1736.06,880.873 1735.99,881.825 1735.89,882.789C1735.3,888.468 1733.68,894.595 1732.2,898.259C1728.78,906.719 1722.84,910.334 1715.87,911.79C1709.75,913.071 1702.73,912.515 1696.16,912.404C1691.31,912.323 1686.03,912.361 1681.26,911.277C1675.8,910.035 1670.99,907.391 1667.82,901.992C1664.4,896.172 1663.85,886.777 1663.8,879.516C1661.68,879.495 1658.76,879.437 1655.21,879.469L1655.38,880.348L1655.61,880.789L1655.74,881.109L1655.88,881.62L1655.91,881.797C1656.9,888.834 1658.11,894.797 1658.78,899.087C1661.25,914.861 1662.82,919.838 1664.59,933.099C1665.85,942.45 1669.94,948.045 1674.02,953.9C1677.39,958.74 1686.84,966.562 1691.53,969.568C1705.53,978.562 1713.66,982.64 1729.64,987.573C1739.86,990.723 1750.52,988.843 1760.68,984.554C1776.65,977.807 1791.37,965.095 1801.39,955.034C1805.12,951.291 1807.55,946.149 1809.75,939.434C1812.12,932.174 1814.15,923.166 1816.83,912.137C1819.24,902.247 1821.11,893.583 1823.45,883.676C1823.62,882.944 1823.91,880.552 1824.23,877.681L1821.83,878.213ZM1643.01,958.583C1639.99,967.572 1641.09,974.351 1645.9,980.243C1648.3,983.175 1649.88,985.679 1653.85,987.525C1655.6,988.338 1657.69,987.576 1658.5,985.824C1659.31,984.072 1658.55,981.989 1656.8,981.175C1653.97,979.863 1653.03,977.898 1651.32,975.814C1648,971.743 1647.56,967.02 1649.64,960.811C1650.26,958.98 1649.27,956.994 1647.44,956.379C1645.61,955.764 1643.62,956.752 1643.01,958.583ZM1661.9,967.111C1660.9,973.24 1661.61,975.561 1664.61,979.522C1665.66,980.916 1666.53,981.789 1669.84,983.991C1671.45,985.059 1673.63,984.62 1674.7,983.01C1675.76,981.401 1675.33,979.227 1673.72,978.159C1671.53,976.706 1670.88,976.216 1670.19,975.296C1668.49,973.054 1668.24,971.709 1668.81,968.241C1669.12,966.334 1667.83,964.533 1665.92,964.222C1664.01,963.91 1662.21,965.204 1661.9,967.111ZM1618.21,944.511C1616.13,947.25 1614.19,953.157 1614.06,956.091C1613.74,962.926 1616.12,970.843 1622.06,981.023C1623.03,982.691 1625.18,983.255 1626.85,982.281C1628.52,981.307 1629.08,979.162 1628.1,977.494C1623.06,968.85 1620.78,962.214 1621.05,956.412C1621.14,954.471 1622.41,950.558 1623.78,948.746C1624.95,947.208 1624.65,945.01 1623.11,943.841C1621.58,942.673 1619.38,942.973 1618.21,944.511ZM1729.46,954.307C1732.72,957.444 1737.11,959.884 1741.46,960.308C1746.31,960.781 1750.54,960.572 1754.52,957.303C1753.21,959.437 1751.8,961.043 1749.97,962.051C1747.89,963.2 1745.32,963.538 1742,963.273C1740.11,963.122 1737.31,962.547 1735.08,961.334C1734.04,960.774 1733.09,960.122 1732.7,959.143C1731.99,957.348 1729.95,956.469 1728.15,957.182C1726.36,957.894 1725.48,959.93 1726.19,961.726C1727.15,964.146 1729.18,966.1 1731.73,967.485C1734.87,969.189 1738.79,970.039 1741.44,970.251C1746.43,970.648 1750.23,969.902 1753.35,968.18C1756.48,966.455 1758.96,963.718 1761.15,959.823C1762.02,958.273 1761.58,956.341 1760.19,955.306C1765.32,955.019 1770.49,952.434 1774.33,950.265C1776.01,949.315 1776.6,947.178 1775.65,945.496C1774.7,943.815 1772.56,943.221 1770.88,944.172C1767.52,946.074 1762.9,948.745 1758.45,948.296C1755.97,948.046 1753.57,946.817 1751.14,945.827C1747.77,944.454 1744.38,943.465 1740.93,944.067C1736.02,944.923 1729.83,947.673 1725.59,947.842C1724.82,947.872 1723.73,947.441 1722.66,946.881C1721.56,946.301 1720.46,945.551 1719.9,944.621C1718.92,942.961 1716.77,942.416 1715.11,943.403C1713.45,944.391 1712.9,946.541 1713.89,948.201C1715.03,950.121 1717.13,951.882 1719.41,953.079C1721.73,954.296 1724.2,954.903 1725.87,954.836C1726.96,954.793 1728.17,954.595 1729.46,954.307ZM1895.88,924.327C1896.7,927.104 1897.25,929.827 1897.21,932.139C1897.07,939.962 1895.21,948.311 1895.81,956.393C1896.33,955.312 1896.93,954.222 1897.57,953.118C1900.77,947.626 1905.38,941.634 1903.12,933.878C1901.87,929.614 1898.87,926.966 1895.88,924.327ZM1748.98,952.508L1748.5,952.309C1746.38,951.446 1744.3,950.585 1742.13,950.963C1740.8,951.195 1739.38,951.552 1737.92,951.957C1739.26,952.693 1740.69,953.2 1742.14,953.341C1744.62,953.583 1746.88,953.641 1748.98,952.508ZM1649.16,884.042C1648.03,883.612 1644.78,882.476 1641.81,882.305C1638.32,882.104 1634.63,882.521 1633.27,882.7C1632.46,885.169 1631.77,890.338 1631.67,891.991C1631.13,901.147 1633.13,908.344 1636.36,916.968C1637.73,920.639 1641.85,925.471 1645.54,929.08C1647.83,931.315 1649.91,933.108 1651.1,933.597C1653.52,934.597 1654.89,934.743 1657.75,934.702C1657.72,934.481 1657.68,934.256 1657.65,934.029C1656.22,923.313 1654.92,918.03 1653.17,908.022L1653,907.983C1652.06,907.734 1649.76,906.786 1649.27,906.58C1648.76,906.545 1647.97,906.649 1647.57,906.709C1646.68,909.87 1647.7,912.922 1649.14,916.031C1649.92,917.714 1651.15,920.187 1653.54,922.039C1655.06,923.224 1655.34,925.425 1654.15,926.95C1652.97,928.476 1650.77,928.752 1649.24,927.567C1645.8,924.895 1643.92,921.407 1642.79,918.98C1640.46,913.963 1639.35,908.984 1641.13,903.861C1641.72,902.181 1643.02,900.926 1644.8,900.216C1645.38,899.985 1646.02,899.817 1646.68,899.709C1644.73,898.343 1642.18,897.798 1639.86,898.378C1637.99,898.846 1636.08,897.704 1635.62,895.83C1635.15,893.956 1636.29,892.054 1638.16,891.586C1642.48,890.509 1647.22,891.539 1650.83,894.096C1650.3,891.121 1649.71,887.739 1649.16,884.042ZM1853.12,881.682C1853.01,881.616 1852.74,881.459 1852.55,881.39C1851.91,881.156 1851.16,881.027 1850.37,880.941C1847.84,880.666 1844.99,880.883 1843.13,880.965C1837.57,881.21 1834.05,882.005 1830.64,882.899C1830.49,884.039 1830.36,884.888 1830.26,885.285C1829.76,887.438 1829.27,889.533 1828.8,891.595C1831.07,889.608 1833.81,888.315 1838.06,887.302C1839.94,886.855 1841.83,888.018 1842.28,889.897C1842.72,891.776 1841.56,893.665 1839.68,894.112C1835.23,895.171 1833.17,896.72 1831.01,899.601C1833.22,899.635 1835.12,900.265 1836.64,901.448C1838.03,902.538 1839.16,904.124 1839.8,906.373C1842.21,914.887 1835.64,924.583 1827.56,926.918C1825.7,927.454 1823.76,926.383 1823.23,924.527C1822.69,922.671 1823.76,920.729 1825.62,920.193C1830.36,918.821 1834.48,913.286 1833.06,908.285C1832.9,907.704 1832.69,907.246 1832.33,906.965C1831.7,906.471 1830.81,906.531 1829.81,906.679C1829.27,906.758 1828.37,907.024 1827.77,907.35C1827.31,907.927 1825.79,909.86 1825.69,909.938C1825.24,910.313 1824.79,910.523 1824.4,910.634L1823.64,913.794C1822,920.528 1820.56,926.534 1819.15,931.877C1826.13,931.607 1832.83,930.276 1838.39,925.395C1848.5,916.516 1851.33,904.083 1853.02,891.453C1853.48,888.008 1853.85,884.208 1853.12,881.682ZM1730.55,920.724C1730.15,920.148 1728.76,918.18 1727.88,917.462C1726.37,916.247 1724.17,916.479 1722.95,917.98C1721.74,919.481 1721.97,921.687 1723.47,922.903C1724.27,923.551 1725.21,925.283 1725.36,925.438C1727.76,927.917 1731.61,930.051 1735.34,930.898C1741.1,932.207 1747.96,930.919 1751.71,928.62C1753.86,927.307 1754.99,926.216 1756.82,924.13C1758.09,922.677 1757.95,920.464 1756.49,919.191C1755.04,917.918 1752.83,918.064 1751.56,919.517C1750.3,920.957 1749.54,921.743 1748.06,922.649C1745.5,924.215 1740.82,924.963 1736.89,924.072C1734.55,923.54 1732.11,922.266 1730.55,920.724ZM1598.13,863.039C1588.67,872.102 1586.12,886.531 1589.61,899.017C1591.09,904.348 1593.43,909.276 1595.26,914.306C1596.78,918.496 1597.95,922.752 1598.2,927.3C1598.55,926.179 1598.81,925.075 1598.98,923.99C1599.92,917.858 1598.62,912.217 1597.13,906.898C1595.43,900.824 1593.48,895.112 1593.34,889.607C1593.04,877.724 1593.86,871.049 1598.13,863.039ZM1826.69,908.607L1826.56,908.86C1826.61,908.775 1826.65,908.69 1826.69,908.607ZM1671.81,867.778C1679.31,863.419 1699.85,858.512 1714.29,864.528C1716.86,865.598 1720.22,866.885 1723.18,868.675C1725.57,870.117 1727.77,871.837 1728.6,874.275C1729.27,876.26 1729.24,879.088 1728.93,882.069C1728.41,887.047 1727.01,892.423 1725.71,895.634C1722.84,902.738 1717.33,904.827 1711.19,905.419C1706.38,905.884 1701.2,905.488 1696.28,905.405C1691.9,905.331 1687.12,905.431 1682.81,904.452C1679.21,903.631 1675.95,902.011 1673.85,898.447C1670.28,892.365 1670.75,881.703 1670.81,875.321C1670.82,874.015 1670.83,871.975 1671.12,870.095C1671.25,869.266 1671.71,868.033 1671.81,867.778ZM1755.39,879.099C1755.37,879.681 1755.36,880.166 1755.35,880.497C1755.14,887.633 1755.54,892.577 1757.51,898.572C1758.04,900.157 1759.95,902.613 1762.08,903.313C1773.08,906.928 1776.83,904.87 1786.92,904.943C1794.94,905.001 1800.02,904.878 1803.73,902.814C1807.26,900.85 1809.29,897.075 1811.83,890.496C1812.36,889.138 1813.89,883.574 1814.12,881.731C1814.35,879.801 1814.94,876.993 1814.56,875.086C1814.08,872.699 1812.31,871.233 1810.34,870.164C1807.75,868.758 1804.74,868.029 1802.45,867.476C1791.08,864.721 1776.79,865.492 1767.23,867.351C1764.43,867.895 1758.69,870.353 1756.8,872.476C1756.26,873.085 1756.03,874.063 1755.83,875.034C1755.76,875.378 1755.7,875.724 1755.65,876.068C1755.94,876.811 1755.97,877.654 1755.69,878.463C1755.61,878.689 1755.51,878.901 1755.39,879.099ZM1880.82,845.688C1880.63,850.676 1880.07,855.34 1879.54,860.073C1878.67,868.015 1877.93,876.169 1879.76,886.672C1880.66,891.85 1882.73,896.243 1885.04,900.503C1885.2,898.825 1885.47,897.124 1885.85,895.467C1887.56,887.901 1888.74,883.612 1889.46,875.807C1890.03,869.609 1888.79,861.041 1886.43,854.585C1885.6,852.31 1883.25,848.801 1880.82,845.688ZM1767.64,888.509C1770.98,887.434 1778.27,886.724 1782.79,886.727C1786.83,886.73 1793.88,887.21 1797.26,887.75C1799.16,888.056 1800.96,886.755 1801.27,884.848C1801.57,882.94 1800.27,881.144 1798.36,880.838C1794.73,880.257 1787.14,879.73 1782.79,879.727C1777.63,879.724 1769.32,880.616 1765.5,881.844C1763.66,882.435 1762.64,884.407 1763.23,886.247C1763.82,888.086 1765.8,889.1 1767.64,888.509ZM1686.21,887.296C1691.28,886.607 1696.88,886.144 1699.88,886.065C1706.07,885.901 1708.75,886.353 1716.47,887.302C1718.39,887.538 1720.13,886.172 1720.37,884.255C1720.61,882.338 1719.24,880.59 1717.32,880.354C1709.12,879.345 1706.28,878.894 1699.7,879.067C1696.53,879.151 1690.62,879.633 1685.27,880.36C1683.35,880.62 1682.01,882.385 1682.27,884.299C1682.53,886.213 1684.29,887.556 1686.21,887.296ZM1749.95,782.034C1742,780.068 1737.41,779.15 1731.87,782.551C1729.52,783.988 1728.86,785.656 1728.24,787.807C1727.64,789.883 1727.1,792.299 1726,795.21C1724.35,799.605 1720.72,803.852 1717.71,805.817C1713,808.897 1709.31,811.615 1703.77,812.636C1695.21,814.216 1694.02,815.246 1691.86,818.068C1689.37,821.313 1686.72,826.888 1685.74,832.446C1684.9,837.229 1683.2,842.084 1681.1,846.461C1678.24,852.403 1674.23,856.842 1669.41,861.117C1671.59,860.003 1674.46,858.887 1677.77,857.913C1677.33,856.449 1677.89,854.813 1679.25,853.953C1689.98,847.125 1698.8,847.101 1706.94,847.626C1711.81,847.941 1716.61,849.231 1719.63,850.969C1721.31,851.933 1721.88,854.074 1720.92,855.749C1719.96,857.423 1717.82,858 1716.14,857.037C1713.85,855.719 1710.18,854.85 1706.49,854.612C1702.99,854.386 1699.34,854.251 1695.4,854.93C1702.78,854.561 1710.43,855.337 1716.98,858.067C1720.44,859.506 1725.14,861.351 1728.85,864.035C1731.8,866.158 1734.13,868.804 1735.23,872.023C1735.32,872.303 1735.41,872.594 1735.49,872.897C1737.86,872.354 1740.27,871.999 1742.26,872.023C1744.77,872.052 1747.05,872.328 1749.17,872.781C1749.67,870.839 1750.47,869.054 1751.58,867.814C1754.2,864.875 1762.02,861.233 1765.89,860.48C1766.41,860.38 1766.93,860.283 1767.47,860.191C1766.03,860.2 1764.67,859.309 1764.16,857.875C1763.5,856.057 1764.45,854.051 1766.27,853.398C1772.32,851.223 1777.09,850.009 1779.49,849.774C1786.02,849.137 1793.44,849.858 1798.6,851.165C1802.75,852.217 1806.1,853.342 1810.15,855.733C1811.82,856.714 1812.37,858.862 1811.39,860.526C1810.9,861.354 1810.12,861.907 1809.26,862.132C1811.48,862.888 1813.75,863.885 1815.69,865.254C1817.87,866.791 1819.65,868.765 1820.69,871.294L1824.64,870.42C1824.48,869.63 1824.18,868.92 1823.8,868.15C1823.12,866.77 1822.24,865.257 1821.27,863.21C1818.8,858.004 1816.63,852.994 1815.34,844.994C1813.23,831.882 1806.31,829.819 1799.96,824.048C1795.43,819.935 1791.94,817.543 1789.12,815.386C1784.26,811.688 1781.1,808.609 1778.14,800.452C1776.75,796.624 1776.2,791.346 1772.07,784.793C1771.52,783.928 1770.37,783.237 1769.07,782.603C1766.61,781.406 1763.52,780.63 1761.06,780.694C1758.66,780.756 1755.84,781.444 1754.43,781.832L1754.43,781.834C1754.2,781.998 1753.96,782.138 1753.7,782.247L1753.19,782.417L1752.88,782.481C1751.16,782.798 1750.24,782.215 1750.02,782.082L1749.95,782.034ZM1665.79,864.199C1664.58,865.196 1663.33,866.2 1662.05,867.23C1659.68,869.128 1657.34,870.943 1655.2,872.469C1658.8,872.438 1661.76,872.498 1663.89,872.517C1663.99,870.416 1664.25,867.963 1664.91,866.074C1665.15,865.386 1665.44,864.758 1665.79,864.199ZM1805.06,860.911C1802.31,859.471 1799.83,858.699 1796.88,857.951C1792.37,856.808 1785.88,856.184 1780.17,856.741C1778.07,856.946 1773.92,858.084 1768.63,859.985L1768.57,860.008C1778.8,858.361 1792.78,857.931 1804.1,860.672C1804.41,860.748 1804.73,860.827 1805.06,860.911Z" style="fill:rgb(223,214,164);"/>
        </g>
    </g>
</svg>
