<?xml version="1.0" encoding="UTF-8"?>
<svg id="Ebene_2" data-name="Ebene 2" xmlns="http://www.w3.org/2000/svg" viewBox="0 0 100 119.95">
  <defs>
    <style>
      .cls-1 {
        fill: #26100b;
      }

      .cls-2 {
        fill: #f8d5d8;
        opacity: .5;
      }
    </style>
  </defs>
  <g id="Ebene_1-2" data-name="Ebene 1">
    <g>
      <path class="cls-2" d="M.05,15.6C.05,40.84-.01,51.17.06,73.53c.03,9.83-.11,20.01.09,29.84.11,5.24-1.56,9.97,3.91,14.11,4.18,3.16,6.47,2.38,28.3,2.38s39.86-.16,48.7-.16c12.05,0,13.87.2,16.44-1.59,1.88-1.31,2.1-2.99,2.1-5.27,0-16.64.4-31.5.4-48.24,0-7.91-.59-21.45-.86-29.27-.08-2.45-.3-4.35-.3-4.35,0,0-1.34-1.88-3.42-3.96-4.6-4.6-11.56-11.52-16.21-16.06-2.43-2.37-4.61-4.78-7.2-7.32-.83-.81-2.05-2.01-2.05-2.01,0,0-4.09-.13-7.48-.35C52.12.61,36.31.03,25.92.03,8.14-.11.05-.24.05,15.6Z"/>
      <path class="cls-2" d="M79.11,32.11c12.26.77,19.73-1.12,19.73-1.12,0,0-1.34-1.88-3.42-3.96-4.6-4.6-11.56-11.52-16.21-16.06-2.43-2.37-4.61-4.78-7.2-7.32-.83-.81-2.05-2.01-2.05-2.01,0,0-.77,4.66-.77,11.59,0,11.96-.46,18.22,9.92,18.88Z"/>
      <g>
        <path class="cls-1" d="M17.05,57.77h12.58c4.93,0,8.3,3.34,8.3,7.5,0,5.39-5.14,7.61-9.73,7.61h-3.13v3.96c0,2.64,1.08,5.66,1.08,5.8v.14h-9.1v-.14c0-.14,1.08-3.16,1.08-5.8v-13.13c0-2.64-1.08-5.66-1.08-5.8v-.14ZM30.71,65.27c0-1.88-.42-5.73-3.54-5.73h-2.08v11.57h2.08c3.13,0,3.54-3.75,3.54-5.84Z"/>
        <path class="cls-1" d="M39.67,57.77h10.94c6.88,0,12.26,4.86,12.26,12.47s-5.39,12.54-12.26,12.54h-10.94v-.14c0-.14,1.08-3.16,1.08-5.8v-13.13c0-2.64-1.08-5.66-1.08-5.8v-.14ZM47.7,59.33v21.85h.8c5.07,0,6.64-5.63,6.64-10.94s-1.56-10.91-6.64-10.91h-.8Z"/>
        <path class="cls-1" d="M64.73,57.77h18.48v7.02h-.17c-.17,0-4.1-5.39-7.54-5.39h-2.74v9.8c3.3-.21,6.88-2.15,7.05-2.15h.17v5.7h-.17c-.17,0-3.75-1.95-7.05-2.15v12.2h-8.03v-.14c0-.14,1.08-3.16,1.08-5.8v-13.13c0-2.64-1.08-5.66-1.08-5.8v-.14Z"/>
      </g>
    </g>
  </g>
</svg>