<?xml version="1.0" encoding="UTF-8" standalone="no"?>
<!DOCTYPE svg PUBLIC "-//W3C//DTD SVG 1.1//EN" "http://www.w3.org/Graphics/SVG/1.1/DTD/svg11.dtd">
<svg width="100%" height="100%" viewBox="0 0 443 63" version="1.1" xmlns="http://www.w3.org/2000/svg" xmlns:xlink="http://www.w3.org/1999/xlink" xml:space="preserve" xmlns:serif="http://www.serif.com/" style="fill-rule:evenodd;clip-rule:evenodd;stroke-linejoin:round;stroke-miterlimit:2;">
    <g transform="matrix(1,0,0,1,-1003.87,-39.1304)">
        <g transform="matrix(1,0,0,1,850,2.84217e-14)">
            <g transform="matrix(0.70747,0,0,0.70747,38.588,-130.949)">
                <g transform="matrix(1.41349,0,0,1.41349,-4.57748,-27.3369)">
                    <path d="M513.95,248.972L528.062,248.972C532.83,248.972 537.065,248.348 540.771,247.13C544.643,245.857 547.898,243.974 550.552,241.51C553.226,239.027 555.28,236.002 556.699,232.427C558.075,228.959 558.782,225.004 558.782,220.556C558.782,211.521 555.977,204.571 550.572,199.623C545.262,194.762 537.785,192.212 528.062,192.212L513.95,192.212C510.744,192.212 508.352,193.183 506.681,194.855C505.003,196.533 504.038,198.902 504.038,202.052L504.038,239.132C504.038,242.282 505.003,244.651 506.681,246.329C508.352,248.001 510.744,248.972 513.95,248.972ZM523.286,232.244L523.286,208.94C523.286,208.94 527.198,208.94 527.198,208.94C531.233,208.94 534.29,209.736 536.269,211.657C538.227,213.558 539.03,216.562 539.03,220.556C539.03,222.69 538.793,224.539 538.281,226.099C537.841,227.434 537.19,228.551 536.294,229.43C535.376,230.33 534.213,230.997 532.827,231.466C531.249,231.998 529.371,232.244 527.198,232.244L523.286,232.244Z" style="fill:rgb(214,202,144);fill-rule:nonzero;"/>
                    <path d="M513.95,250.972L528.062,250.972C533.065,250.972 537.507,250.308 541.395,249.03C545.561,247.661 549.058,245.627 551.913,242.976C554.802,240.293 557.024,237.027 558.558,233.165C560.02,229.48 560.782,225.281 560.782,220.556C560.782,210.874 557.714,203.45 551.922,198.148C546.288,192.99 538.378,190.212 528.062,190.212L513.95,190.212C510.11,190.212 507.269,191.438 505.267,193.44C503.254,195.453 502.038,198.273 502.038,202.052L502.038,239.132C502.038,242.911 503.254,245.731 505.267,247.743C507.269,249.746 510.11,250.972 513.95,250.972ZM513.95,248.972L528.062,248.972C532.83,248.972 537.065,248.348 540.771,247.13C544.643,245.857 547.898,243.974 550.552,241.51C553.226,239.027 555.28,236.002 556.699,232.427C558.075,228.959 558.782,225.004 558.782,220.556C558.782,211.521 555.977,204.571 550.572,199.623C545.262,194.762 537.785,192.212 528.062,192.212L513.95,192.212C510.744,192.212 508.352,193.183 506.681,194.855C505.003,196.533 504.038,198.902 504.038,202.052L504.038,239.132C504.038,242.282 505.003,244.651 506.681,246.329C508.352,248.001 510.744,248.972 513.95,248.972ZM523.286,232.244L523.286,208.94C523.286,208.94 527.198,208.94 527.198,208.94C531.233,208.94 534.29,209.736 536.269,211.657C538.227,213.558 539.03,216.562 539.03,220.556C539.03,222.69 538.793,224.539 538.281,226.099C537.841,227.434 537.19,228.551 536.294,229.43C535.376,230.33 534.213,230.997 532.827,231.466C531.249,231.998 529.371,232.244 527.198,232.244L523.286,232.244ZM525.286,210.94L527.198,210.94C530.596,210.94 533.21,211.475 534.876,213.092C536.509,214.677 537.03,217.226 537.03,220.556C537.03,222.448 536.836,224.091 536.381,225.474C536.048,226.483 535.572,227.337 534.894,228.002C534.179,228.702 533.266,229.206 532.187,229.571C530.789,230.043 529.123,230.244 527.198,230.244L525.286,230.244L525.286,210.94Z" style="fill: #26100b;"/>
                </g>
                <g transform="matrix(1.41349,0,0,1.41349,0.430933,-27.3369)">
                    <path d="M478.814,248.972L502.934,248.972C505.684,248.972 507.758,248.127 509.241,246.679C510.751,245.207 511.622,243.152 511.622,240.428C511.622,237.682 510.735,235.633 509.214,234.186C507.737,232.781 505.672,231.956 502.934,231.956C502.934,231.956 488.366,231.956 488.366,231.956C488.366,231.956 488.366,201.836 488.366,201.836C488.366,198.744 487.432,196.418 485.818,194.769C484.189,193.105 481.862,192.14 478.742,192.14C475.697,192.14 473.386,193.086 471.725,194.747C470.071,196.401 469.118,198.734 469.118,201.836L469.118,239.276C469.118,242.313 470.07,244.638 471.761,246.329C473.452,248.02 475.777,248.972 478.814,248.972Z" style="fill:rgb(214,202,144);fill-rule:nonzero;"/>
                    <path d="M490.366,229.956L490.366,201.836C490.366,198.123 489.186,195.35 487.247,193.37C485.283,191.364 482.502,190.14 478.742,190.14C475.075,190.14 472.311,191.332 470.311,193.332C468.321,195.322 467.118,198.106 467.118,201.836L467.118,239.276C467.118,242.93 468.312,245.709 470.347,247.743C472.381,249.778 475.16,250.972 478.814,250.972L502.934,250.972C506.302,250.972 508.821,249.883 510.638,248.111C512.497,246.297 513.622,243.784 513.622,240.428C513.622,237.036 512.472,234.525 510.592,232.737C508.787,231.02 506.281,229.956 502.934,229.956L490.366,229.956ZM478.814,248.972L502.934,248.972C505.684,248.972 507.758,248.127 509.241,246.679C510.751,245.207 511.622,243.152 511.622,240.428C511.622,237.682 510.735,235.633 509.214,234.186C507.737,232.781 505.672,231.956 502.934,231.956C502.934,231.956 488.366,231.956 488.366,231.956C488.366,231.956 488.366,201.836 488.366,201.836C488.366,198.744 487.432,196.418 485.818,194.769C484.189,193.105 481.862,192.14 478.742,192.14C475.697,192.14 473.386,193.086 471.725,194.747C470.071,196.401 469.118,198.734 469.118,201.836L469.118,239.276C469.118,242.313 470.07,244.638 471.761,246.329C473.452,248.02 475.777,248.972 478.814,248.972Z" style="fill:rgb(47,24,10);"/>
                </g>
                <g transform="matrix(1.41349,0,0,1.41349,-4.57748,-27.3369)">
                    <path d="M463.478,249.62C466.683,249.62 469.031,248.616 470.634,246.909C472.2,245.241 473.102,242.916 473.102,239.852C473.102,239.852 473.102,201.332 473.102,201.332C473.102,198.184 472.162,195.836 470.554,194.193C468.925,192.529 466.598,191.564 463.478,191.564C460.433,191.564 458.122,192.51 456.461,194.171C454.813,195.818 453.854,198.174 453.854,201.332L453.854,239.852C453.854,242.936 454.794,245.276 456.439,246.955C458.105,248.656 460.424,249.62 463.478,249.62Z" style="fill:rgb(214,202,144);fill-rule:nonzero;"/>
                    <path d="M463.478,251.62C467.348,251.62 470.157,250.339 472.092,248.278C473.966,246.282 475.102,243.519 475.102,239.852L475.102,201.332C475.102,197.557 473.912,194.764 471.983,192.794C470.019,190.788 467.238,189.564 463.478,189.564C459.811,189.564 457.047,190.756 455.047,192.756C453.068,194.735 451.854,197.54 451.854,201.332L451.854,239.852C451.854,243.553 453.037,246.34 455.01,248.355C457.019,250.406 459.795,251.62 463.478,251.62ZM463.478,249.62C466.683,249.62 469.031,248.616 470.634,246.909C472.2,245.241 473.102,242.916 473.102,239.852C473.102,239.852 473.102,201.332 473.102,201.332C473.102,198.184 472.162,195.836 470.554,194.193C468.925,192.529 466.598,191.564 463.478,191.564C460.433,191.564 458.122,192.51 456.461,194.171C454.813,195.818 453.854,198.174 453.854,201.332L453.854,239.852C453.854,242.936 454.794,245.276 456.439,246.955C458.105,248.656 460.424,249.62 463.478,249.62Z" style="fill: #26100b;"/>
                </g>
                <g transform="matrix(1.41349,0,0,1.41349,-4.57748,-27.3369)">
                    <path d="M434.932,218.351L428.373,198.849C427.541,196.418 426.413,194.686 425.134,193.566C423.67,192.285 421.758,191.564 419.342,191.564C416.967,191.564 415.045,192.26 413.534,193.519C412.196,194.634 411.02,196.33 410.128,198.686C410.122,198.703 410.116,198.72 410.11,198.737L403.267,217.853L396.919,198.808C396.134,196.395 394.986,194.662 393.615,193.519C392.135,192.286 390.125,191.564 387.518,191.564C383.64,191.564 381.048,192.92 379.532,195.141C377.993,197.396 377.642,200.123 378.788,203.345L392.829,242.444C393.681,244.863 394.924,246.602 396.43,247.747C398.004,248.945 400.034,249.62 402.566,249.62C405.191,249.62 407.234,248.917 408.754,247.708C410.166,246.585 411.376,244.906 412.274,242.595C412.283,242.574 412.291,242.552 412.298,242.531L418.912,224.298L425.372,242.441C426.221,244.853 427.445,246.586 428.912,247.728C430.456,248.928 432.504,249.62 435.11,249.62C437.66,249.62 439.685,248.934 441.236,247.728C442.705,246.585 443.923,244.878 444.772,242.527C444.771,242.529 458.95,203.376 458.95,203.376C460.164,200.143 459.834,197.405 458.288,195.141C456.717,192.839 454.311,191.564 450.95,191.564C448.323,191.564 446.318,192.3 444.862,193.542C443.531,194.679 442.403,196.405 441.622,198.806L434.932,218.351Z" style="fill:rgb(214,202,144);fill-rule:nonzero;"/>
                    <path d="M446.653,243.206L460.828,204.064C462.306,200.117 461.828,196.78 459.94,194.013C458.01,191.185 455.08,189.564 450.95,189.564C447.756,189.564 445.334,190.51 443.564,192.021C442.001,193.355 440.644,195.357 439.725,198.171L434.949,212.127L430.265,198.202C429.295,195.365 427.943,193.367 426.451,192.061C424.651,190.486 422.312,189.564 419.342,189.564C416.439,189.564 414.101,190.443 412.253,191.983C410.696,193.281 409.296,195.235 408.258,197.978C408.247,198.007 408.237,198.035 408.227,198.063C408.227,198.063 403.335,211.73 403.335,211.73C403.335,211.73 398.818,198.18 398.818,198.18C397.894,195.344 396.508,193.327 394.895,191.983C393.101,190.488 390.679,189.564 387.518,189.564C382.814,189.564 379.72,191.319 377.881,194.013C376.002,196.765 375.506,200.084 376.903,204.015L390.945,243.117C391.95,245.964 393.446,247.99 395.219,249.339C397.106,250.775 399.53,251.62 402.566,251.62C405.726,251.62 408.17,250.728 409.999,249.273C411.648,247.961 413.089,246.019 414.138,243.32C414.152,243.285 414.166,243.249 414.179,243.213C414.179,243.213 418.894,230.212 418.894,230.212C418.894,230.212 423.487,243.112 423.487,243.112C424.485,245.944 425.957,247.963 427.685,249.307C429.537,250.747 431.982,251.62 435.11,251.62C438.176,251.62 440.6,250.757 442.464,249.307C444.193,247.962 445.654,245.972 446.653,243.206ZM434.932,218.351L428.373,198.849C427.541,196.418 426.413,194.686 425.134,193.566C423.67,192.285 421.758,191.564 419.342,191.564C416.967,191.564 415.045,192.26 413.534,193.519C412.196,194.634 411.02,196.33 410.128,198.686C410.122,198.703 410.116,198.72 410.11,198.737L403.267,217.853L396.919,198.808C396.134,196.395 394.986,194.662 393.615,193.519C392.135,192.286 390.125,191.564 387.518,191.564C383.64,191.564 381.048,192.92 379.532,195.141C377.993,197.396 377.642,200.123 378.788,203.345L392.829,242.444C393.681,244.863 394.924,246.602 396.43,247.747C398.004,248.945 400.034,249.62 402.566,249.62C405.191,249.62 407.234,248.917 408.754,247.708C410.166,246.585 411.376,244.906 412.274,242.595C412.283,242.574 412.291,242.552 412.298,242.531L418.912,224.298L425.372,242.441C426.221,244.853 427.445,246.586 428.912,247.728C430.456,248.928 432.504,249.62 435.11,249.62C437.66,249.62 439.685,248.934 441.236,247.728C442.705,246.585 443.923,244.878 444.772,242.527C444.771,242.529 458.95,203.376 458.95,203.376C460.164,200.143 459.834,197.405 458.288,195.141C456.717,192.839 454.311,191.564 450.95,191.564C448.323,191.564 446.318,192.3 444.862,193.542C443.531,194.679 442.403,196.405 441.622,198.806L434.932,218.351Z" style="fill: #26100b;"/>
                </g>
                <g transform="matrix(1.41349,0,0,1.41349,-4.57748,-27.3369)">
                    <path d="M335.237,238.676L353.903,238.676L355.453,242.322C356.497,244.778 357.74,246.519 359.06,247.624C360.55,248.871 362.643,249.62 365.414,249.62C367.53,249.62 369.297,249.077 370.742,248.089C372.403,246.955 373.442,245.35 373.806,243.244C374.116,241.454 373.814,239.441 372.719,237.24C372.726,237.256 354.815,198.7 354.815,198.7C354.807,198.683 354.799,198.667 354.791,198.65C353.618,196.242 352.195,194.521 350.62,193.409C348.9,192.195 346.9,191.564 344.606,191.564C342.341,191.564 340.33,192.179 338.565,193.378C336.901,194.509 335.453,196.258 334.322,198.707C334.326,198.7 316.398,237.292 316.398,237.292C316.388,237.312 316.379,237.333 316.37,237.353C315.411,239.545 315.184,241.527 315.526,243.273C315.924,245.303 316.966,246.89 318.638,248.045C320.109,249.06 321.915,249.62 324.086,249.62C326.907,249.62 328.951,248.804 330.326,247.502C331.451,246.435 332.596,244.749 333.662,242.379C333.671,242.36 333.679,242.341 333.687,242.322L335.237,238.676ZM342.066,222.524L347.047,222.524L344.546,216.603L342.066,222.524Z" style="fill:rgb(214,202,144);"/>
                    <path d="M332.506,197.869L314.584,236.449C314.568,236.483 314.553,236.518 314.537,236.552C313.387,239.181 313.153,241.563 313.564,243.658C314.067,246.225 315.387,248.231 317.501,249.69C319.281,250.919 321.459,251.62 324.086,251.62C327.54,251.62 330.018,250.548 331.701,248.954C332.969,247.752 334.285,245.869 335.486,243.2C335.5,243.168 335.514,243.136 335.528,243.104L336.56,240.676L352.58,240.676C352.58,240.676 353.613,243.104 353.613,243.104C354.809,245.918 356.264,247.891 357.777,249.158C359.572,250.66 362.075,251.62 365.414,251.62C367.98,251.62 370.117,250.938 371.87,249.741C373.983,248.298 375.313,246.264 375.777,243.585C376.148,241.44 375.83,239.021 374.527,236.385L374.033,235.322C371.137,229.088 356.629,197.857 356.629,197.857C356.616,197.83 356.603,197.802 356.589,197.774C355.242,195.008 353.582,193.052 351.774,191.775C349.722,190.327 347.341,189.564 344.606,189.564C341.919,189.564 339.536,190.301 337.441,191.724C335.516,193.032 333.814,195.035 332.506,197.869ZM335.237,238.676L353.903,238.676L355.453,242.322C356.497,244.778 357.74,246.519 359.06,247.624C360.55,248.871 362.643,249.62 365.414,249.62C367.53,249.62 369.297,249.077 370.742,248.089C372.403,246.955 373.442,245.35 373.806,243.244C374.116,241.454 373.814,239.441 372.719,237.24C372.726,237.256 354.815,198.7 354.815,198.7C354.807,198.683 354.799,198.667 354.791,198.65C353.618,196.242 352.195,194.521 350.62,193.409C348.9,192.195 346.9,191.564 344.606,191.564C342.341,191.564 340.33,192.179 338.565,193.378C336.901,194.509 335.453,196.258 334.322,198.707C334.326,198.7 316.398,237.292 316.398,237.292C316.388,237.312 316.379,237.333 316.37,237.353C315.411,239.545 315.184,241.527 315.526,243.273C315.924,245.303 316.966,246.89 318.638,248.045C320.109,249.06 321.915,249.62 324.086,249.62C326.907,249.62 328.951,248.804 330.326,247.502C331.451,246.435 332.596,244.749 333.662,242.379C333.671,242.36 333.679,242.341 333.687,242.322L335.237,238.676ZM342.066,222.524L347.047,222.524L344.546,216.603L342.066,222.524Z" style="fill: #26100b;"/>
                </g>
                <g transform="matrix(1.41349,0,0,1.41349,-4.57748,-27.3369)">
                    <path d="M313.07,249.62C316.275,249.62 318.623,248.616 320.226,246.909C321.792,245.241 322.694,242.916 322.694,239.852C322.694,239.852 322.694,201.332 322.694,201.332C322.694,198.184 321.754,195.836 320.146,194.193C318.517,192.529 316.19,191.564 313.07,191.564C310.025,191.564 307.714,192.51 306.053,194.171C304.405,195.818 303.446,198.174 303.446,201.332C303.446,201.332 303.446,239.852 303.446,239.852C303.446,242.936 304.386,245.276 306.031,246.955C307.697,248.656 310.016,249.62 313.07,249.62Z" style="fill:rgb(214,202,144);fill-rule:nonzero;"/>
                    <path d="M313.07,251.62C316.94,251.62 319.749,250.339 321.684,248.278C323.558,246.282 324.694,243.519 324.694,239.852C324.694,239.852 324.694,201.332 324.694,201.332C324.694,197.557 323.504,194.764 321.575,192.794C319.611,190.788 316.83,189.564 313.07,189.564C309.403,189.564 306.639,190.756 304.639,192.756C302.66,194.735 301.446,197.54 301.446,201.332C301.446,201.332 301.446,239.852 301.446,239.852C301.446,243.553 302.629,246.34 304.602,248.355C306.611,250.406 309.387,251.62 313.07,251.62ZM313.07,249.62C316.275,249.62 318.623,248.616 320.226,246.909C321.792,245.241 322.694,242.916 322.694,239.852C322.694,239.852 322.694,201.332 322.694,201.332C322.694,198.184 321.754,195.836 320.146,194.193C318.517,192.529 316.19,191.564 313.07,191.564C310.025,191.564 307.714,192.51 306.053,194.171C304.405,195.818 303.446,198.174 303.446,201.332C303.446,201.332 303.446,239.852 303.446,239.852C303.446,242.936 304.386,245.276 306.031,246.955C307.697,248.656 310.016,249.62 313.07,249.62Z" style="fill: #26100b;"/>
                </g>
                <g transform="matrix(1.41349,0,0,1.41349,-9.08506,-27.3369)">
                    <path d="M263.678,249.62C266.883,249.62 269.231,248.616 270.834,246.909C272.4,245.241 273.302,242.916 273.302,239.852L273.302,228.668C273.302,228.668 288.254,228.668 288.254,228.668C288.254,228.668 288.254,239.852 288.254,239.852C288.254,242.926 289.176,245.259 290.781,246.933C292.415,248.636 294.749,249.62 297.878,249.62C300.951,249.62 303.262,248.643 304.903,246.933C306.509,245.259 307.43,242.926 307.43,239.852C307.43,239.852 307.43,201.332 307.43,201.332C307.43,198.184 306.49,195.836 304.882,194.193C303.246,192.522 300.941,191.564 297.878,191.564C294.758,191.564 292.432,192.529 290.803,194.193C289.194,195.836 288.254,198.184 288.254,201.332L288.254,211.796C288.254,211.796 273.302,211.796 273.302,211.796C273.302,211.796 273.302,201.332 273.302,201.332C273.302,198.184 272.362,195.836 270.754,194.193C269.125,192.529 266.798,191.564 263.678,191.564C260.633,191.564 258.322,192.51 256.661,194.171C255.013,195.818 254.054,198.174 254.054,201.332L254.054,239.852C254.054,242.936 254.994,245.276 256.639,246.955C258.305,248.656 260.624,249.62 263.678,249.62Z" style="fill:rgb(214,202,144);fill-rule:nonzero;"/>
                    <path d="M286.254,209.796L275.302,209.796L275.302,201.332C275.302,197.557 274.112,194.764 272.183,192.794C270.219,190.788 267.438,189.564 263.678,189.564C260.011,189.564 257.247,190.756 255.247,192.756C253.268,194.735 252.054,197.54 252.054,201.332L252.054,239.852C252.054,243.553 253.237,246.34 255.21,248.355C257.219,250.406 259.995,251.62 263.678,251.62C267.548,251.62 270.357,250.339 272.292,248.278C274.166,246.282 275.302,243.519 275.302,239.852L275.302,230.668L286.254,230.668L286.254,239.852C286.254,243.536 287.414,246.311 289.338,248.317C291.31,250.373 294.102,251.62 297.878,251.62C301.591,251.62 304.364,250.385 306.347,248.317C308.271,246.311 309.43,243.536 309.43,239.852L309.43,201.332C309.43,197.557 308.24,194.764 306.311,192.794C304.336,190.777 301.576,189.564 297.878,189.564C294.118,189.564 291.337,190.788 289.374,192.794C287.445,194.764 286.254,197.557 286.254,201.332L286.254,209.796ZM288.254,230.668L288.254,239.852C288.254,242.926 289.176,245.259 290.781,246.933C292.415,248.636 294.749,249.62 297.878,249.62C300.951,249.62 303.262,248.643 304.903,246.933C306.509,245.259 307.43,242.926 307.43,239.852C307.43,239.852 307.43,201.332 307.43,201.332C307.43,198.184 306.49,195.836 304.882,194.193C303.246,192.522 300.941,191.564 297.878,191.564C294.758,191.564 292.432,192.529 290.803,194.193C289.194,195.836 288.254,198.184 288.254,201.332L288.254,211.796L275.302,211.796L275.297,211.661L275.286,211.796L273.302,211.796C273.302,211.796 273.302,201.332 273.302,201.332C273.302,198.184 272.362,195.836 270.754,194.193C269.125,192.529 266.798,191.564 263.678,191.564C260.633,191.564 258.322,192.51 256.661,194.171C255.013,195.818 254.054,198.174 254.054,201.332L254.054,239.852C254.054,242.936 254.994,245.276 256.639,246.955C258.305,248.656 260.624,249.62 263.678,249.62C266.883,249.62 269.231,248.616 270.834,246.909C272.4,245.241 273.302,242.916 273.302,239.852L273.302,228.668L286.254,228.668L286.254,228.671L288.254,230.668L288.254,230.668Z" style="fill: #26100b;"/>
                </g>
                <g transform="matrix(1.41349,0,0,1.41349,-4.57748,-27.3369)">
                    <path d="M222.206,249.62C225.411,249.62 227.759,248.616 229.362,246.909C230.934,245.235 231.83,242.932 231.83,239.924C231.83,239.924 231.83,231.476 231.83,231.476C231.83,231.476 239.99,231.476 239.99,231.476C246.653,231.476 251.763,229.65 255.4,226.235C259.116,222.746 261.062,217.972 261.062,211.844C261.062,205.716 259.116,200.942 255.4,197.453C251.763,194.038 246.653,192.212 239.99,192.212L222.278,192.212C219.251,192.212 216.933,193.145 215.247,194.797C213.553,196.456 212.582,198.797 212.582,201.908L212.582,239.924C212.582,242.952 213.516,245.269 215.167,246.955C216.833,248.656 219.152,249.62 222.206,249.62ZM231.83,215.324L231.83,208.364C231.83,208.364 237.686,208.364 237.686,208.364C239.365,208.364 240.689,208.597 241.593,209.307C242.274,209.842 242.462,210.726 242.462,211.844C242.462,212.942 242.251,213.816 241.567,214.365C240.669,215.087 239.354,215.324 237.686,215.324L231.83,215.324Z" style="fill:rgb(214,202,144);fill-rule:nonzero;"/>
                    <path d="M233.83,233.476L239.99,233.476C247.255,233.476 252.803,231.416 256.769,227.693C260.867,223.845 263.062,218.601 263.062,211.844C263.062,205.087 260.867,199.842 256.769,195.995C252.803,192.272 247.255,190.212 239.99,190.212L222.278,190.212C218.64,190.212 215.873,191.384 213.847,193.368C211.808,195.366 210.582,198.162 210.582,201.908C210.582,201.908 210.582,239.924 210.582,239.924C210.582,243.562 211.754,246.329 213.738,248.355C215.747,250.406 218.523,251.62 222.206,251.62C226.076,251.62 228.885,250.339 230.82,248.278C232.704,246.271 233.83,243.529 233.83,239.924L233.83,233.476ZM222.206,249.62C225.411,249.62 227.759,248.616 229.362,246.909C230.934,245.235 231.83,242.932 231.83,239.924C231.83,239.924 231.83,231.476 231.83,231.476C231.83,231.476 239.99,231.476 239.99,231.476C246.653,231.476 251.763,229.65 255.4,226.235C259.116,222.746 261.062,217.972 261.062,211.844C261.062,205.716 259.116,200.942 255.4,197.453C251.763,194.038 246.653,192.212 239.99,192.212L222.278,192.212C219.251,192.212 216.933,193.145 215.247,194.797C213.553,196.456 212.582,198.797 212.582,201.908L212.582,239.924C212.582,242.952 213.516,245.269 215.167,246.955C216.833,248.656 219.152,249.62 222.206,249.62ZM231.83,215.324L231.83,208.364C231.83,208.364 237.686,208.364 237.686,208.364C239.365,208.364 240.689,208.597 241.593,209.307C242.274,209.842 242.462,210.726 242.462,211.844C242.462,212.942 242.251,213.816 241.567,214.365C240.669,215.087 239.354,215.324 237.686,215.324L231.83,215.324ZM233.83,213.324L233.83,210.345C233.83,210.345 237.686,210.364 237.686,210.364C238.823,210.364 239.745,210.399 240.357,210.88C240.442,210.946 240.406,211.071 240.424,211.191C240.453,211.393 240.462,211.611 240.462,211.844C240.462,212.063 240.452,212.268 240.422,212.458C240.401,212.593 240.411,212.728 240.314,212.806C239.713,213.29 238.804,213.324 237.686,213.324L233.83,213.324Z" style="fill: #26100b;"/>
                </g>
                <g transform="matrix(1.41349,0,0,1.41349,-4.57748,-27.3369)">
                    <path d="M189.158,249.764C193.394,249.764 197.257,249.076 200.751,247.726C204.332,246.343 207.408,244.331 209.986,241.699C212.55,239.081 214.526,235.968 215.902,232.351C217.248,228.814 217.934,224.884 217.934,220.556C217.934,214.718 216.709,209.643 214.321,205.318C211.883,200.903 208.483,197.479 204.122,195.041C199.837,192.646 194.854,191.42 189.158,191.42C184.923,191.42 181.06,192.107 177.565,193.458C173.988,194.84 170.916,196.836 168.342,199.438C165.774,202.033 163.793,205.138 162.414,208.761C161.068,212.297 160.382,216.228 160.382,220.556C160.382,226.335 161.59,231.391 163.95,235.739C166.361,240.183 169.763,243.638 174.153,246.104C178.465,248.526 183.462,249.764 189.158,249.764ZM189.158,232.676C186.385,232.676 184.198,231.765 182.653,229.816C180.901,227.606 180.134,224.499 180.134,220.556C180.134,217.809 180.51,215.476 181.33,213.569C182.037,211.925 183.029,210.65 184.355,209.783C185.694,208.909 187.302,208.508 189.158,208.508C191.935,208.508 194.125,209.409 195.672,211.342C197.421,213.528 198.182,216.621 198.182,220.556C198.182,223.264 197.803,225.588 196.982,227.517C196.268,229.194 195.278,230.498 193.959,231.39C192.646,232.277 191.038,232.676 189.158,232.676Z" style="fill:rgb(214,202,144);fill-rule:nonzero;"/>
                    <path d="M189.158,251.764C193.658,251.764 197.76,251.026 201.472,249.592C205.329,248.102 208.639,245.932 211.414,243.098C214.168,240.287 216.293,236.946 217.771,233.062C219.199,229.312 219.934,225.146 219.934,220.556C219.934,214.346 218.612,208.952 216.071,204.351C213.449,199.602 209.789,195.918 205.098,193.296C200.532,190.743 195.227,189.42 189.158,189.42C184.659,189.42 180.556,190.158 176.844,191.592C172.995,193.079 169.691,195.231 166.92,198.031C164.16,200.821 162.027,204.155 160.545,208.049C159.118,211.8 158.382,215.966 158.382,220.556C158.382,226.699 159.684,232.071 162.192,236.693C164.787,241.476 168.449,245.193 173.174,247.847C177.768,250.428 183.089,251.764 189.158,251.764ZM189.158,249.764C193.394,249.764 197.257,249.076 200.751,247.726C204.332,246.343 207.408,244.331 209.986,241.699C212.55,239.081 214.526,235.968 215.902,232.351C217.248,228.814 217.934,224.884 217.934,220.556C217.934,214.718 216.709,209.643 214.321,205.318C211.883,200.903 208.483,197.479 204.122,195.041C199.837,192.646 194.854,191.42 189.158,191.42C184.923,191.42 181.06,192.107 177.565,193.458C173.988,194.84 170.916,196.836 168.342,199.438C165.774,202.033 163.793,205.138 162.414,208.761C161.068,212.297 160.382,216.228 160.382,220.556C160.382,226.335 161.59,231.391 163.95,235.739C166.361,240.183 169.763,243.638 174.153,246.104C178.465,248.526 183.462,249.764 189.158,249.764ZM189.158,232.676C186.385,232.676 184.198,231.765 182.653,229.816C180.901,227.606 180.134,224.499 180.134,220.556C180.134,217.809 180.51,215.476 181.33,213.569C182.037,211.925 183.029,210.65 184.355,209.783C185.694,208.909 187.302,208.508 189.158,208.508C191.935,208.508 194.125,209.409 195.672,211.342C197.421,213.528 198.182,216.621 198.182,220.556C198.182,223.264 197.803,225.588 196.982,227.517C196.268,229.194 195.278,230.498 193.959,231.39C192.646,232.277 191.038,232.676 189.158,232.676ZM189.158,230.676C187.064,230.676 185.387,230.045 184.22,228.574C182.708,226.666 182.134,223.96 182.134,220.556C182.134,218.121 182.441,216.049 183.167,214.36C183.706,213.107 184.439,212.118 185.449,211.458C186.481,210.784 187.728,210.508 189.158,210.508C191.258,210.508 192.94,211.129 194.11,212.591C195.617,214.475 196.182,217.165 196.182,220.556C196.182,222.958 195.869,225.023 195.142,226.734C194.593,228.024 193.855,229.047 192.839,229.733C191.836,230.411 190.596,230.676 189.158,230.676Z" style="fill: #26100b;"/>
                </g>
                <g transform="matrix(1.41349,0,0,1.41349,-4.57748,-27.3369)">
                    <path d="M143.87,249.764C147.494,249.764 150.748,249.333 153.636,248.493C156.658,247.613 159.233,246.349 161.376,244.729C163.629,243.025 165.357,240.956 166.57,238.53C167.778,236.113 168.398,233.412 168.398,230.42C168.398,225.844 166.916,222.151 164.064,219.299C161.423,216.658 157.474,214.675 152.137,213.52L143.775,211.718C142.166,211.375 141.019,211.074 140.42,210.578C140.332,210.504 140.246,210.439 140.246,210.332C140.246,210.056 140.334,209.813 140.511,209.603C140.842,209.211 141.357,208.964 141.995,208.755C142.985,208.432 144.188,208.292 145.598,208.292C147.061,208.292 148.578,208.434 150.148,208.713C151.639,208.979 152.979,209.371 154.163,209.901C154.185,209.911 154.208,209.921 154.23,209.931C156.436,210.855 158.354,211.009 159.955,210.618C161.721,210.186 163.124,209.285 164.184,207.95C165.197,206.673 165.788,205.195 165.939,203.506C166.082,201.89 165.801,200.326 165.083,198.818C164.34,197.259 163.145,196.006 161.45,195.106C159.355,193.879 156.859,192.936 153.969,192.315C151.188,191.717 148.445,191.42 145.742,191.42C142.206,191.42 139.001,191.866 136.125,192.737C133.141,193.64 130.574,194.925 128.412,196.567C126.141,198.291 124.393,200.379 123.157,202.822C121.919,205.269 121.286,207.986 121.286,210.98C121.286,215.619 122.724,219.386 125.484,222.323C128.093,225.098 132.017,227.131 137.343,228.243L145.766,230.042C147.439,230.398 148.638,230.73 149.296,231.228C149.387,231.297 149.438,231.386 149.438,231.5C149.438,231.787 149.169,231.936 148.877,232.129C147.927,232.756 146.237,232.892 143.87,232.892C142.044,232.892 140.089,232.67 138.002,232.235C135.949,231.807 134.108,231.215 132.483,230.445C132.464,230.436 132.445,230.427 132.425,230.418C130.278,229.456 128.341,229.32 126.638,229.801C124.879,230.298 123.469,231.262 122.398,232.678C121.41,233.984 120.801,235.481 120.589,237.176C120.369,238.939 120.663,240.611 121.472,242.19C122.273,243.756 123.609,245.063 125.575,246.01C127.208,246.8 129.05,247.488 131.104,248.067C133.114,248.634 135.24,249.061 137.482,249.344C139.701,249.625 141.83,249.764 143.87,249.764Z" style="fill:rgb(214,202,144);fill-rule:nonzero;"/>
                    <path d="M129.219,227.548C128.117,227.478 127.074,227.6 126.095,227.876C123.898,228.497 122.14,229.704 120.803,231.471C119.604,233.056 118.862,234.871 118.605,236.928C118.334,239.099 118.696,241.157 119.691,243.101C120.674,245.023 122.294,246.649 124.706,247.811C126.436,248.648 128.386,249.379 130.561,249.992C132.663,250.585 134.886,251.032 137.231,251.328C139.537,251.62 141.75,251.764 143.87,251.764C147.701,251.764 151.141,251.301 154.195,250.413C157.471,249.46 160.259,248.081 162.583,246.324C165.089,244.428 167.009,242.123 168.358,239.424C169.7,236.74 170.398,233.743 170.398,230.42C170.398,225.257 168.696,221.103 165.478,217.884C163.341,215.748 160.43,213.982 156.687,212.702C158.058,212.906 159.309,212.835 160.43,212.561C162.654,212.017 164.415,210.874 165.75,209.193C167.007,207.61 167.744,205.778 167.931,203.683C168.106,201.709 167.766,199.8 166.889,197.958C165.971,196.03 164.505,194.47 162.414,193.354C160.189,192.052 157.502,191.029 154.389,190.36C151.466,189.731 148.583,189.42 145.742,189.42C141.993,189.42 138.595,189.899 135.545,190.822C132.317,191.8 129.542,193.197 127.202,194.974C124.682,196.888 122.744,199.208 121.373,201.919C119.998,204.637 119.286,207.654 119.286,210.98C119.286,216.185 120.931,220.398 124.027,223.692C125.416,225.17 127.141,226.468 129.219,227.548ZM143.87,249.764C147.494,249.764 150.748,249.333 153.636,248.493C156.658,247.613 159.233,246.349 161.376,244.729C163.629,243.025 165.357,240.956 166.57,238.53C167.778,236.113 168.398,233.412 168.398,230.42C168.398,225.844 166.916,222.151 164.064,219.299C161.423,216.658 157.474,214.675 152.137,213.52L143.775,211.718C142.166,211.375 141.019,211.074 140.42,210.578C140.332,210.504 140.246,210.439 140.246,210.332C140.246,210.056 140.334,209.813 140.511,209.603C140.842,209.211 141.357,208.964 141.995,208.755C142.985,208.432 144.188,208.292 145.598,208.292C147.061,208.292 148.578,208.434 150.148,208.713C151.639,208.979 152.979,209.371 154.163,209.901C154.185,209.911 154.208,209.921 154.23,209.931C156.436,210.855 158.354,211.009 159.955,210.618C161.721,210.186 163.124,209.285 164.184,207.95C165.197,206.673 165.788,205.195 165.939,203.506C166.082,201.89 165.801,200.326 165.083,198.818C164.34,197.259 163.145,196.006 161.45,195.106C159.355,193.879 156.859,192.936 153.969,192.315C151.188,191.717 148.445,191.42 145.742,191.42C142.206,191.42 139.001,191.866 136.125,192.737C133.141,193.64 130.574,194.925 128.412,196.567C126.141,198.291 124.393,200.379 123.157,202.822C121.919,205.269 121.286,207.986 121.286,210.98C121.286,215.619 122.724,219.386 125.484,222.323C128.093,225.098 132.017,227.131 137.343,228.243L145.766,230.042C147.439,230.398 148.638,230.73 149.296,231.228C149.387,231.297 149.438,231.386 149.438,231.5C149.438,231.787 149.169,231.936 148.877,232.129C147.927,232.756 146.237,232.892 143.87,232.892C142.044,232.892 140.089,232.67 138.002,232.235C135.949,231.807 134.108,231.215 132.483,230.445C132.464,230.436 132.445,230.427 132.425,230.418C130.278,229.456 128.341,229.32 126.638,229.801C124.879,230.298 123.469,231.262 122.398,232.678C121.41,233.984 120.801,235.481 120.589,237.176C120.369,238.939 120.663,240.611 121.472,242.19C122.273,243.756 123.609,245.063 125.575,246.01C127.208,246.8 129.05,247.488 131.104,248.067C133.114,248.634 135.24,249.061 137.482,249.344C139.701,249.625 141.83,249.764 143.87,249.764ZM146.823,210.329L152.56,211.565C152.856,211.629 153.147,211.696 153.434,211.765L153.345,211.726C152.299,211.258 151.114,210.917 149.798,210.683C148.782,210.502 147.79,210.382 146.823,210.329Z" style="fill: #26100b;"/>
                </g>
            </g>
        </g>
    </g>
</svg>
