<?xml version="1.0" encoding="UTF-8" standalone="no"?>
<!DOCTYPE svg PUBLIC "-//W3C//DTD SVG 1.1//EN" "http://www.w3.org/Graphics/SVG/1.1/DTD/svg11.dtd">
<svg width="100%" height="100%" viewBox="0 0 447 67" version="1.1" xmlns="http://www.w3.org/2000/svg" xmlns:xlink="http://www.w3.org/1999/xlink" xml:space="preserve" xmlns:serif="http://www.serif.com/" style="fill-rule:evenodd;clip-rule:evenodd;stroke-linejoin:round;stroke-miterlimit:2;">
    <g transform="matrix(1,0,0,1,-151.868,-189.826)">
        <g transform="matrix(0.70747,0,0,0.70747,38.588,21.7462)">
            <g transform="matrix(1.41349,0,0,1.41349,-4.57748,-27.3369)">
                <path d="M513.95,248.972L528.062,248.972C532.83,248.972 537.065,248.348 540.771,247.13C544.643,245.857 547.898,243.974 550.552,241.51C553.226,239.027 555.28,236.002 556.699,232.427C558.075,228.959 558.782,225.004 558.782,220.556C558.782,211.521 555.977,204.571 550.572,199.623C545.262,194.762 537.785,192.212 528.062,192.212L513.95,192.212C510.744,192.212 508.352,193.183 506.681,194.855C505.003,196.533 504.038,198.902 504.038,202.052L504.038,239.132C504.038,242.282 505.003,244.651 506.681,246.329C508.352,248.001 510.744,248.972 513.95,248.972ZM523.286,232.244L523.286,208.94C523.286,208.94 527.198,208.94 527.198,208.94C531.233,208.94 534.29,209.736 536.269,211.657C538.227,213.558 539.03,216.562 539.03,220.556C539.03,222.69 538.793,224.539 538.281,226.099C537.841,227.434 537.19,228.551 536.294,229.43C535.376,230.33 534.213,230.997 532.827,231.466C531.249,231.998 529.371,232.244 527.198,232.244L523.286,232.244Z" style="fill:rgb(214,202,144);fill-rule:nonzero;"/>
                <path d="M513.95,252.972L528.062,252.972C533.3,252.972 537.949,252.268 542.02,250.93C546.479,249.464 550.217,247.279 553.273,244.442C556.378,241.559 558.769,238.053 560.416,233.903C561.965,230.002 562.782,225.558 562.782,220.556C562.782,210.227 559.452,202.329 553.273,196.673C547.314,191.218 538.972,188.212 528.062,188.212L513.95,188.212C509.475,188.212 506.185,189.694 503.853,192.026C501.505,194.374 500.038,197.644 500.038,202.052L500.038,239.132C500.038,243.539 501.505,246.81 503.853,249.158C506.185,251.49 509.475,252.972 513.95,252.972ZM513.95,248.972L528.062,248.972C532.83,248.972 537.065,248.348 540.771,247.13C544.643,245.857 547.898,243.974 550.552,241.51C553.226,239.027 555.28,236.002 556.699,232.427C558.075,228.959 558.782,225.004 558.782,220.556C558.782,211.521 555.977,204.571 550.572,199.623C545.262,194.762 537.785,192.212 528.062,192.212L513.95,192.212C510.744,192.212 508.352,193.183 506.681,194.855C505.003,196.533 504.038,198.902 504.038,202.052L504.038,239.132C504.038,242.282 505.003,244.651 506.681,246.329C508.352,248.001 510.744,248.972 513.95,248.972ZM523.286,232.244L523.286,208.94C523.286,208.94 527.198,208.94 527.198,208.94C531.233,208.94 534.29,209.736 536.269,211.657C538.227,213.558 539.03,216.562 539.03,220.556C539.03,222.69 538.793,224.539 538.281,226.099C537.841,227.434 537.19,228.551 536.294,229.43C535.376,230.33 534.213,230.997 532.827,231.466C531.249,231.998 529.371,232.244 527.198,232.244L523.286,232.244ZM527.286,212.941C530.006,212.946 532.143,213.226 533.483,214.527C534.791,215.797 535.03,217.888 535.03,220.556C535.03,222.207 534.878,223.642 534.481,224.849C534.256,225.533 533.953,226.123 533.494,226.573C532.983,227.074 532.318,227.415 531.547,227.676C530.35,228.08 528.926,228.238 527.286,228.243L527.286,212.941Z" style="fill:rgb(47,24,10);"/>
            </g>
            <g transform="matrix(1.41349,0,0,1.41349,0.430933,-27.3369)">
                <path d="M478.814,248.972L502.934,248.972C505.684,248.972 507.758,248.127 509.241,246.679C510.751,245.207 511.622,243.152 511.622,240.428C511.622,237.682 510.735,235.633 509.214,234.186C507.737,232.781 505.672,231.956 502.934,231.956C502.934,231.956 488.366,231.956 488.366,231.956C488.366,231.956 488.366,201.836 488.366,201.836C488.366,198.744 487.432,196.418 485.818,194.769C484.189,193.105 481.862,192.14 478.742,192.14C475.697,192.14 473.386,193.086 471.725,194.747C470.071,196.401 469.118,198.734 469.118,201.836L469.118,239.276C469.118,242.313 470.07,244.638 471.761,246.329C473.452,248.02 475.777,248.972 478.814,248.972Z" style="fill:rgb(214,202,144);fill-rule:nonzero;"/>
                <path d="M492.366,227.956L492.366,201.836C492.366,197.501 490.94,194.283 488.676,191.971C486.378,189.624 483.143,188.14 478.742,188.14C474.452,188.14 471.236,189.578 468.897,191.918C466.572,194.243 465.118,197.478 465.118,201.836L465.118,239.276C465.118,243.547 466.554,246.78 468.933,249.158C471.311,251.536 474.543,252.972 478.814,252.972L502.934,252.972C506.919,252.972 509.885,251.64 512.035,249.542C514.245,247.386 515.622,244.417 515.622,240.428C515.622,236.389 514.209,233.417 511.971,231.288C509.836,229.258 506.891,227.956 502.934,227.956L492.366,227.956ZM478.814,248.972L502.934,248.972C505.684,248.972 507.758,248.127 509.241,246.679C510.751,245.207 511.622,243.152 511.622,240.428C511.622,237.682 510.735,235.633 509.214,234.186C507.737,232.781 505.672,231.956 502.934,231.956C502.934,231.956 488.366,231.956 488.366,231.956C488.366,231.956 488.366,201.836 488.366,201.836C488.366,198.744 487.432,196.418 485.818,194.769C484.189,193.105 481.862,192.14 478.742,192.14C475.697,192.14 473.386,193.086 471.725,194.747C470.071,196.401 469.118,198.734 469.118,201.836L469.118,239.276C469.118,242.313 470.07,244.638 471.761,246.329C473.452,248.02 475.777,248.972 478.814,248.972Z" style="fill:rgb(47,24,10);"/>
            </g>
            <g transform="matrix(1.41349,0,0,1.41349,-4.57748,-27.3369)">
                <path d="M463.478,249.62C466.683,249.62 469.031,248.616 470.634,246.909C472.2,245.241 473.102,242.916 473.102,239.852C473.102,239.852 473.102,201.332 473.102,201.332C473.102,198.184 472.162,195.836 470.554,194.193C468.925,192.529 466.598,191.564 463.478,191.564C460.433,191.564 458.122,192.51 456.461,194.171C454.813,195.818 453.854,198.174 453.854,201.332L453.854,239.852C453.854,242.936 454.794,245.276 456.439,246.955C458.105,248.656 460.424,249.62 463.478,249.62Z" style="fill:rgb(214,202,144);fill-rule:nonzero;"/>
                <path d="M463.478,253.62C468.013,253.62 471.283,252.062 473.55,249.647C475.732,247.322 477.102,244.122 477.102,239.852C477.102,239.852 477.102,201.332 477.102,201.332C477.102,196.929 475.661,193.692 473.412,191.395C471.114,189.048 467.879,187.564 463.478,187.564C459.188,187.564 455.972,189.002 453.633,191.342C451.323,193.651 449.854,196.906 449.854,201.332L449.854,239.852C449.854,244.169 451.279,247.404 453.582,249.754C455.934,252.155 459.166,253.62 463.478,253.62ZM463.478,249.62C466.683,249.62 469.031,248.616 470.634,246.909C472.2,245.241 473.102,242.916 473.102,239.852C473.102,239.852 473.102,201.332 473.102,201.332C473.102,198.184 472.162,195.836 470.554,194.193C468.925,192.529 466.598,191.564 463.478,191.564C460.433,191.564 458.122,192.51 456.461,194.171C454.813,195.818 453.854,198.174 453.854,201.332L453.854,239.852C453.854,242.936 454.794,245.276 456.439,246.955C458.105,248.656 460.424,249.62 463.478,249.62Z" style="fill:rgb(47,24,10);"/>
            </g>
            <g transform="matrix(1.41349,0,0,1.41349,-4.57748,-27.3369)">
                <path d="M434.932,218.351L428.373,198.849C427.541,196.418 426.413,194.686 425.134,193.566C423.67,192.285 421.758,191.564 419.342,191.564C416.967,191.564 415.045,192.26 413.534,193.519C412.196,194.634 411.02,196.33 410.128,198.686C410.122,198.703 410.116,198.72 410.11,198.737L403.267,217.853L396.919,198.808C396.134,196.395 394.986,194.662 393.615,193.519C392.135,192.286 390.125,191.564 387.518,191.564C383.64,191.564 381.048,192.92 379.532,195.141C377.993,197.396 377.642,200.123 378.788,203.345L392.829,242.444C393.681,244.863 394.924,246.602 396.43,247.747C398.004,248.945 400.034,249.62 402.566,249.62C405.191,249.62 407.234,248.917 408.754,247.708C410.166,246.585 411.376,244.906 412.274,242.595C412.283,242.574 412.291,242.552 412.298,242.531L418.912,224.298L425.372,242.441C426.221,244.853 427.445,246.586 428.912,247.728C430.456,248.928 432.504,249.62 435.11,249.62C437.66,249.62 439.685,248.934 441.236,247.728C442.705,246.585 443.923,244.878 444.772,242.527C444.771,242.529 458.95,203.376 458.95,203.376C460.164,200.143 459.834,197.405 458.288,195.141C456.717,192.839 454.311,191.564 450.95,191.564C448.323,191.564 446.318,192.3 444.862,193.542C443.531,194.679 442.403,196.405 441.622,198.806L434.932,218.351Z" style="fill:rgb(214,202,144);fill-rule:nonzero;"/>
                <path d="M448.534,243.885L462.704,204.757C464.448,200.093 463.823,196.155 461.592,192.886C459.302,189.531 455.849,187.564 450.95,187.564C447.188,187.564 444.35,188.72 442.265,190.5C440.469,192.033 438.879,194.317 437.824,197.552C437.829,197.535 434.965,205.902 434.965,205.902L432.157,197.554C431.049,194.313 429.474,192.049 427.768,190.556C425.632,188.687 422.866,187.564 419.342,187.564C415.912,187.564 413.156,188.627 410.973,190.446C409.196,191.927 407.572,194.14 406.387,197.271C406.372,197.31 406.358,197.349 406.344,197.389C406.344,197.389 403.402,205.607 403.402,205.607C403.402,205.607 400.717,197.552 400.717,197.552C399.653,194.292 398.03,191.992 396.176,190.446C394.067,188.689 391.233,187.564 387.518,187.564C381.987,187.564 378.391,189.718 376.229,192.886C374.012,196.133 373.369,200.046 375.019,204.685L389.062,243.79C390.219,247.065 391.967,249.378 394.008,250.931C396.209,252.605 399.026,253.62 402.566,253.62C406.26,253.62 409.106,252.539 411.244,250.838C413.13,249.338 414.802,247.132 416.002,244.045C416.022,243.995 416.041,243.945 416.059,243.895C416.059,243.895 418.877,236.125 418.877,236.125C418.877,236.125 421.603,243.782 421.603,243.782C422.748,247.035 424.469,249.339 426.457,250.885C428.618,252.567 431.46,253.62 435.11,253.62C438.692,253.62 441.514,252.58 443.692,250.885C445.68,249.339 447.385,247.067 448.534,243.885ZM434.932,218.351L428.373,198.849C427.541,196.418 426.413,194.686 425.134,193.566C423.67,192.285 421.758,191.564 419.342,191.564C416.967,191.564 415.045,192.26 413.534,193.519C412.196,194.634 411.02,196.33 410.128,198.686C410.122,198.703 410.116,198.72 410.11,198.737L403.267,217.853L396.919,198.808C396.134,196.395 394.986,194.662 393.615,193.519C392.135,192.286 390.125,191.564 387.518,191.564C383.64,191.564 381.048,192.92 379.532,195.141C377.993,197.396 377.642,200.123 378.788,203.345L392.829,242.444C393.681,244.863 394.924,246.602 396.43,247.747C398.004,248.945 400.034,249.62 402.566,249.62C405.191,249.62 407.234,248.917 408.754,247.708C410.166,246.585 411.376,244.906 412.274,242.595C412.283,242.574 412.291,242.552 412.298,242.531L418.912,224.298L425.372,242.441C426.221,244.853 427.445,246.586 428.912,247.728C430.456,248.928 432.504,249.62 435.11,249.62C437.66,249.62 439.685,248.934 441.236,247.728C442.705,246.585 443.923,244.878 444.772,242.527C444.771,242.529 458.95,203.376 458.95,203.376C460.164,200.143 459.834,197.405 458.288,195.141C456.717,192.839 454.311,191.564 450.95,191.564C448.323,191.564 446.318,192.3 444.862,193.542C443.531,194.679 442.403,196.405 441.622,198.806L434.932,218.351Z" style="fill:rgb(47,24,10);"/>
            </g>
            <g transform="matrix(1.41349,0,0,1.41349,-4.57748,-27.3369)">
                <path d="M335.237,238.676L353.903,238.676L355.453,242.322C356.497,244.778 357.74,246.519 359.06,247.624C360.55,248.871 362.643,249.62 365.414,249.62C367.53,249.62 369.297,249.077 370.742,248.089C372.403,246.955 373.442,245.35 373.806,243.244C374.116,241.454 373.814,239.441 372.719,237.24C372.726,237.256 354.815,198.7 354.815,198.7C354.807,198.683 354.799,198.667 354.791,198.65C353.618,196.242 352.195,194.521 350.62,193.409C348.9,192.195 346.9,191.564 344.606,191.564C342.341,191.564 340.33,192.179 338.565,193.378C336.901,194.509 335.453,196.258 334.322,198.707C334.326,198.7 316.398,237.292 316.398,237.292C316.388,237.312 316.379,237.333 316.37,237.353C315.411,239.545 315.184,241.527 315.526,243.273C315.924,245.303 316.966,246.89 318.638,248.045C320.109,249.06 321.915,249.62 324.086,249.62C326.907,249.62 328.951,248.804 330.326,247.502C331.451,246.435 332.596,244.749 333.662,242.379C333.671,242.36 333.679,242.341 333.687,242.322L335.237,238.676ZM342.066,222.524L347.047,222.524L344.546,216.603L342.066,222.524Z" style="fill:rgb(214,202,144);"/>
                <path d="M330.691,197.031L312.77,235.607C312.748,235.654 312.726,235.702 312.705,235.75C311.364,238.817 311.122,241.599 311.601,244.043C312.21,247.147 313.809,249.571 316.365,251.336C318.453,252.778 321.004,253.62 324.086,253.62C328.174,253.62 331.085,252.292 333.076,250.406C334.487,249.069 335.973,246.99 337.31,244.021L337.883,242.676L351.257,242.676C351.257,242.676 351.772,243.887 351.772,243.887C353.12,247.058 354.787,249.264 356.493,250.691C358.593,252.45 361.507,253.62 365.414,253.62C368.431,253.62 370.937,252.8 372.998,251.393C375.562,249.642 377.185,247.178 377.748,243.926C378.179,241.433 377.849,238.62 376.348,235.561L375.847,234.48C372.951,228.245 358.443,197.015 358.443,197.015C358.425,196.976 358.406,196.937 358.387,196.898C356.866,193.775 354.969,191.583 352.927,190.141C350.545,188.46 347.783,187.564 344.606,187.564C341.497,187.564 338.741,188.423 336.317,190.069C334.13,191.555 332.176,193.812 330.691,197.031ZM335.237,238.676L353.903,238.676L355.453,242.322C356.497,244.778 357.74,246.519 359.06,247.624C360.55,248.871 362.643,249.62 365.414,249.62C367.53,249.62 369.297,249.077 370.742,248.089C372.403,246.955 373.442,245.35 373.806,243.244C374.116,241.454 373.814,239.441 372.719,237.24C372.726,237.256 354.815,198.7 354.815,198.7C354.807,198.683 354.799,198.667 354.791,198.65C353.618,196.242 352.195,194.521 350.62,193.409C348.9,192.195 346.9,191.564 344.606,191.564C342.341,191.564 340.33,192.179 338.565,193.378C336.901,194.509 335.453,196.258 334.322,198.707C334.326,198.7 316.398,237.292 316.398,237.292C316.388,237.312 316.379,237.333 316.37,237.353C315.411,239.545 315.184,241.527 315.526,243.273C315.924,245.303 316.966,246.89 318.638,248.045C320.109,249.06 321.915,249.62 324.086,249.62C326.907,249.62 328.951,248.804 330.326,247.502C331.451,246.435 332.596,244.749 333.662,242.379C333.671,242.36 333.679,242.341 333.687,242.322L335.237,238.676ZM342.066,222.524L347.047,222.524L344.546,216.603L342.066,222.524Z" style="fill:rgb(47,24,10);"/>
            </g>
            <g transform="matrix(1.41349,0,0,1.41349,-4.57748,-27.3369)">
                <path d="M313.07,249.62C316.275,249.62 318.623,248.616 320.226,246.909C321.792,245.241 322.694,242.916 322.694,239.852C322.694,239.852 322.694,201.332 322.694,201.332C322.694,198.184 321.754,195.836 320.146,194.193C318.517,192.529 316.19,191.564 313.07,191.564C310.025,191.564 307.714,192.51 306.053,194.171C304.405,195.818 303.446,198.174 303.446,201.332C303.446,201.332 303.446,239.852 303.446,239.852C303.446,242.936 304.386,245.276 306.031,246.955C307.697,248.656 310.016,249.62 313.07,249.62Z" style="fill:rgb(214,202,144);fill-rule:nonzero;"/>
                <path d="M313.07,253.62C317.605,253.62 320.875,252.062 323.142,249.647C325.324,247.322 326.694,244.122 326.694,239.852L326.694,201.332C326.694,196.929 325.253,193.692 323.004,191.395C320.706,189.048 317.471,187.564 313.07,187.564C308.78,187.564 305.564,189.002 303.225,191.342C300.915,193.651 299.446,196.906 299.446,201.332C299.446,201.332 299.446,239.852 299.446,239.852C299.446,244.169 300.871,247.404 303.174,249.754C305.526,252.155 308.758,253.62 313.07,253.62ZM313.07,249.62C316.275,249.62 318.623,248.616 320.226,246.909C321.792,245.241 322.694,242.916 322.694,239.852C322.694,239.852 322.694,201.332 322.694,201.332C322.694,198.184 321.754,195.836 320.146,194.193C318.517,192.529 316.19,191.564 313.07,191.564C310.025,191.564 307.714,192.51 306.053,194.171C304.405,195.818 303.446,198.174 303.446,201.332C303.446,201.332 303.446,239.852 303.446,239.852C303.446,242.936 304.386,245.276 306.031,246.955C307.697,248.656 310.016,249.62 313.07,249.62Z" style="fill:rgb(47,24,10);"/>
            </g>
            <g transform="matrix(1.41349,0,0,1.41349,-9.08506,-27.3369)">
                <path d="M263.678,249.62C266.883,249.62 269.231,248.616 270.834,246.909C272.4,245.241 273.302,242.916 273.302,239.852L273.302,228.668C273.302,228.668 288.254,228.668 288.254,228.668C288.254,228.668 288.254,239.852 288.254,239.852C288.254,242.926 289.176,245.259 290.781,246.933C292.415,248.636 294.749,249.62 297.878,249.62C300.951,249.62 303.262,248.643 304.903,246.933C306.509,245.259 307.43,242.926 307.43,239.852C307.43,239.852 307.43,201.332 307.43,201.332C307.43,198.184 306.49,195.836 304.882,194.193C303.246,192.522 300.941,191.564 297.878,191.564C294.758,191.564 292.432,192.529 290.803,194.193C289.194,195.836 288.254,198.184 288.254,201.332L288.254,211.796C288.254,211.796 273.302,211.796 273.302,211.796C273.302,211.796 273.302,201.332 273.302,201.332C273.302,198.184 272.362,195.836 270.754,194.193C269.125,192.529 266.798,191.564 263.678,191.564C260.633,191.564 258.322,192.51 256.661,194.171C255.013,195.818 254.054,198.174 254.054,201.332L254.054,239.852C254.054,242.936 254.994,245.276 256.639,246.955C258.305,248.656 260.624,249.62 263.678,249.62Z" style="fill:rgb(214,202,144);fill-rule:nonzero;"/>
                <path d="M284.254,207.796L277.302,207.796L277.302,201.332C277.302,196.929 275.861,193.692 273.612,191.395C271.314,189.048 268.079,187.564 263.678,187.564C259.388,187.564 256.172,189.002 253.833,191.342C251.523,193.651 250.054,196.906 250.054,201.332C250.054,201.332 250.054,239.852 250.054,239.852C250.054,244.169 251.479,247.404 253.782,249.754C256.134,252.155 259.366,253.62 263.678,253.62C268.213,253.62 271.483,252.062 273.75,249.647C275.932,247.322 277.302,244.122 277.302,239.852L277.302,232.668L284.254,232.668L284.254,239.852C284.254,244.146 285.652,247.364 287.895,249.702C290.204,252.109 293.456,253.62 297.878,253.62C302.232,253.62 305.465,252.126 307.79,249.702C310.032,247.364 311.43,244.146 311.43,239.852C311.43,239.852 311.43,201.332 311.43,201.332C311.43,196.929 309.989,193.692 307.74,191.395C305.426,189.032 302.21,187.564 297.878,187.564C293.478,187.564 290.243,189.048 287.945,191.395C285.696,193.692 284.254,196.929 284.254,201.332L284.254,207.796ZM263.678,249.62C266.883,249.62 269.231,248.616 270.834,246.909C272.4,245.241 273.302,242.916 273.302,239.852L273.302,228.668C273.302,228.668 288.254,228.668 288.254,228.668C288.254,228.668 288.254,239.852 288.254,239.852C288.254,242.926 289.176,245.259 290.781,246.933C292.415,248.636 294.749,249.62 297.878,249.62C300.951,249.62 303.262,248.643 304.903,246.933C306.509,245.259 307.43,242.926 307.43,239.852C307.43,239.852 307.43,201.332 307.43,201.332C307.43,198.184 306.49,195.836 304.882,194.193C303.246,192.522 300.941,191.564 297.878,191.564C294.758,191.564 292.432,192.529 290.803,194.193C289.194,195.836 288.254,198.184 288.254,201.332L288.254,211.796C288.254,211.796 273.302,211.796 273.302,211.796C273.302,211.796 273.302,201.332 273.302,201.332C273.302,198.184 272.362,195.836 270.754,194.193C269.125,192.529 266.798,191.564 263.678,191.564C260.633,191.564 258.322,192.51 256.661,194.171C255.013,195.818 254.054,198.174 254.054,201.332L254.054,239.852C254.054,242.936 254.994,245.276 256.639,246.955C258.305,248.656 260.624,249.62 263.678,249.62Z" style="fill:rgb(47,24,10);"/>
            </g>
            <g transform="matrix(1.41349,0,0,1.41349,-4.57748,-27.3369)">
                <path d="M222.206,249.62C225.411,249.62 227.759,248.616 229.362,246.909C230.934,245.235 231.83,242.932 231.83,239.924C231.83,239.924 231.83,231.476 231.83,231.476C231.83,231.476 239.99,231.476 239.99,231.476C246.653,231.476 251.763,229.65 255.4,226.235C259.116,222.746 261.062,217.972 261.062,211.844C261.062,205.716 259.116,200.942 255.4,197.453C251.763,194.038 246.653,192.212 239.99,192.212L222.278,192.212C219.251,192.212 216.933,193.145 215.247,194.797C213.553,196.456 212.582,198.797 212.582,201.908L212.582,239.924C212.582,242.952 213.516,245.269 215.167,246.955C216.833,248.656 219.152,249.62 222.206,249.62ZM231.83,215.324L231.83,208.364C231.83,208.364 237.686,208.364 237.686,208.364C239.365,208.364 240.689,208.597 241.593,209.307C242.274,209.842 242.462,210.726 242.462,211.844C242.462,212.942 242.251,213.816 241.567,214.365C240.669,215.087 239.354,215.324 237.686,215.324L231.83,215.324Z" style="fill:rgb(214,202,144);fill-rule:nonzero;"/>
                <path d="M235.83,235.476L239.99,235.476C247.857,235.476 253.844,233.183 258.138,229.151C262.617,224.945 265.062,219.23 265.062,211.844C265.062,204.458 262.617,198.743 258.138,194.537C253.844,190.505 247.857,188.212 239.99,188.212L222.278,188.212C218.029,188.212 214.814,189.622 212.448,191.939C210.063,194.276 208.582,197.527 208.582,201.908C208.582,201.908 208.582,239.924 208.582,239.924C208.582,244.173 209.992,247.389 212.31,249.754C214.662,252.155 217.894,253.62 222.206,253.62C226.741,253.62 230.011,252.062 232.278,249.647C234.474,247.307 235.83,244.126 235.83,239.924L235.83,235.476ZM222.206,249.62C225.411,249.62 227.759,248.616 229.362,246.909C230.934,245.235 231.83,242.932 231.83,239.924C231.83,239.924 231.83,231.476 231.83,231.476C231.83,231.476 239.99,231.476 239.99,231.476C246.653,231.476 251.763,229.65 255.4,226.235C259.116,222.746 261.062,217.972 261.062,211.844C261.062,205.716 259.116,200.942 255.4,197.453C251.763,194.038 246.653,192.212 239.99,192.212L222.278,192.212C219.251,192.212 216.933,193.145 215.247,194.797C213.553,196.456 212.582,198.797 212.582,201.908L212.582,239.924C212.582,242.952 213.516,245.269 215.167,246.955C216.833,248.656 219.152,249.62 222.206,249.62ZM231.83,215.324L231.83,208.364C231.83,208.364 237.686,208.364 237.686,208.364C239.365,208.364 240.689,208.597 241.593,209.307C242.274,209.842 242.462,210.726 242.462,211.844C242.462,212.942 242.251,213.816 241.567,214.365C240.669,215.087 239.354,215.324 237.686,215.324L231.83,215.324Z" style="fill:rgb(47,24,10);"/>
            </g>
            <g transform="matrix(1.41349,0,0,1.41349,-4.57748,-27.3369)">
                <path d="M189.158,249.764C193.394,249.764 197.257,249.076 200.751,247.726C204.332,246.343 207.408,244.331 209.986,241.699C212.55,239.081 214.526,235.968 215.902,232.351C217.248,228.814 217.934,224.884 217.934,220.556C217.934,214.718 216.709,209.643 214.321,205.318C211.883,200.903 208.483,197.479 204.122,195.041C199.837,192.646 194.854,191.42 189.158,191.42C184.923,191.42 181.06,192.107 177.565,193.458C173.988,194.84 170.916,196.836 168.342,199.438C165.774,202.033 163.793,205.138 162.414,208.761C161.068,212.297 160.382,216.228 160.382,220.556C160.382,226.335 161.59,231.391 163.95,235.739C166.361,240.183 169.763,243.638 174.153,246.104C178.465,248.526 183.462,249.764 189.158,249.764ZM189.158,232.676C186.385,232.676 184.198,231.765 182.653,229.816C180.901,227.606 180.134,224.499 180.134,220.556C180.134,217.809 180.51,215.476 181.33,213.569C182.037,211.925 183.029,210.65 184.355,209.783C185.694,208.909 187.302,208.508 189.158,208.508C191.935,208.508 194.125,209.409 195.672,211.342C197.421,213.528 198.182,216.621 198.182,220.556C198.182,223.264 197.803,225.588 196.982,227.517C196.268,229.194 195.278,230.498 193.959,231.39C192.646,232.277 191.038,232.676 189.158,232.676Z" style="fill:rgb(214,202,144);fill-rule:nonzero;"/>
                <path d="M189.158,253.764C193.922,253.764 198.263,252.976 202.193,251.458C206.325,249.861 209.87,247.534 212.843,244.498C215.786,241.493 218.061,237.924 219.64,233.774C221.149,229.81 221.934,225.407 221.934,220.556C221.934,213.974 220.515,208.261 217.822,203.384C215.015,198.3 211.096,194.357 206.074,191.55C201.228,188.841 195.6,187.42 189.158,187.42C184.395,187.42 180.053,188.208 176.123,189.726C172.002,191.319 168.465,193.626 165.499,196.624C162.546,199.608 160.261,203.173 158.676,207.338C157.167,211.302 156.382,215.704 156.382,220.556C156.382,227.064 157.777,232.751 160.434,237.647C163.213,242.769 167.135,246.749 172.194,249.591C177.071,252.331 182.716,253.764 189.158,253.764ZM189.158,249.764C193.394,249.764 197.257,249.076 200.751,247.726C204.332,246.343 207.408,244.331 209.986,241.699C212.55,239.081 214.526,235.968 215.902,232.351C217.248,228.814 217.934,224.884 217.934,220.556C217.934,214.718 216.709,209.643 214.321,205.318C211.883,200.903 208.483,197.479 204.122,195.041C199.837,192.646 194.854,191.42 189.158,191.42C184.923,191.42 181.06,192.107 177.565,193.458C173.988,194.84 170.916,196.836 168.342,199.438C165.774,202.033 163.793,205.138 162.414,208.761C161.068,212.297 160.382,216.228 160.382,220.556C160.382,226.335 161.59,231.391 163.95,235.739C166.361,240.183 169.763,243.638 174.153,246.104C178.465,248.526 183.462,249.764 189.158,249.764ZM189.158,232.676C186.385,232.676 184.198,231.765 182.653,229.816C180.901,227.606 180.134,224.499 180.134,220.556C180.134,217.809 180.51,215.476 181.33,213.569C182.037,211.925 183.029,210.65 184.355,209.783C185.694,208.909 187.302,208.508 189.158,208.508C191.935,208.508 194.125,209.409 195.672,211.342C197.421,213.528 198.182,216.621 198.182,220.556C198.182,223.264 197.803,225.588 196.982,227.517C196.268,229.194 195.278,230.498 193.959,231.39C192.646,232.277 191.038,232.676 189.158,232.676ZM189.158,228.676C187.742,228.676 186.576,228.326 185.788,227.331C184.514,225.725 184.134,223.421 184.134,220.556C184.134,218.434 184.371,216.623 185.005,215.15C185.375,214.289 185.849,213.586 186.543,213.132C187.267,212.659 188.154,212.508 189.158,212.508C190.582,212.508 191.755,212.85 192.548,213.841C193.814,215.423 194.182,217.708 194.182,220.556C194.182,222.652 193.936,224.458 193.301,225.951C192.917,226.855 192.431,227.595 191.719,228.076C191.025,228.545 190.153,228.676 189.158,228.676Z" style="fill:rgb(47,24,10);"/>
            </g>
            <g transform="matrix(1.41349,0,0,1.41349,-4.57748,-27.3369)">
                <path d="M143.87,249.764C147.494,249.764 150.748,249.333 153.636,248.493C156.658,247.613 159.233,246.349 161.376,244.729C163.629,243.025 165.357,240.956 166.57,238.53C167.778,236.113 168.398,233.412 168.398,230.42C168.398,225.844 166.916,222.151 164.064,219.299C161.423,216.658 157.474,214.675 152.137,213.52L143.775,211.718C142.166,211.375 141.019,211.074 140.42,210.578C140.332,210.504 140.246,210.439 140.246,210.332C140.246,210.056 140.334,209.813 140.511,209.603C140.842,209.211 141.357,208.964 141.995,208.755C142.985,208.432 144.188,208.292 145.598,208.292C147.061,208.292 148.578,208.434 150.148,208.713C151.639,208.979 152.979,209.371 154.163,209.901C154.185,209.911 154.208,209.921 154.23,209.931C156.436,210.855 158.354,211.009 159.955,210.618C161.721,210.186 163.124,209.285 164.184,207.95C165.197,206.673 165.788,205.195 165.939,203.506C166.082,201.89 165.801,200.326 165.083,198.818C164.34,197.259 163.145,196.006 161.45,195.106C159.355,193.879 156.859,192.936 153.969,192.315C151.188,191.717 148.445,191.42 145.742,191.42C142.206,191.42 139.001,191.866 136.125,192.737C133.141,193.64 130.574,194.925 128.412,196.567C126.141,198.291 124.393,200.379 123.157,202.822C121.919,205.269 121.286,207.986 121.286,210.98C121.286,215.619 122.724,219.386 125.484,222.323C128.093,225.098 132.017,227.131 137.343,228.243L145.766,230.042C147.439,230.398 148.638,230.73 149.296,231.228C149.387,231.297 149.438,231.386 149.438,231.5C149.438,231.787 149.169,231.936 148.877,232.129C147.927,232.756 146.237,232.892 143.87,232.892C142.044,232.892 140.089,232.67 138.002,232.235C135.949,231.807 134.108,231.215 132.483,230.445C132.464,230.436 132.445,230.427 132.425,230.418C130.278,229.456 128.341,229.32 126.638,229.801C124.879,230.298 123.469,231.262 122.398,232.678C121.41,233.984 120.801,235.481 120.589,237.176C120.369,238.939 120.663,240.611 121.472,242.19C122.273,243.756 123.609,245.063 125.575,246.01C127.208,246.8 129.05,247.488 131.104,248.067C133.114,248.634 135.24,249.061 137.482,249.344C139.701,249.625 141.83,249.764 143.87,249.764Z" style="fill:rgb(214,202,144);fill-rule:nonzero;"/>
                <path d="M124.051,226.477C122.105,227.295 120.495,228.564 119.208,230.264C117.798,232.128 116.923,234.261 116.62,236.68C116.298,239.258 116.729,241.702 117.911,244.012C119.076,246.29 120.978,248.235 123.837,249.613C125.663,250.496 127.722,251.269 130.018,251.917C132.212,252.536 134.533,253.003 136.98,253.313C139.373,253.615 141.67,253.764 143.87,253.764C147.909,253.764 151.534,253.27 154.754,252.333C158.284,251.306 161.285,249.813 163.789,247.919C166.549,245.831 168.661,243.291 170.147,240.318C171.623,237.367 172.398,234.074 172.398,230.42C172.398,224.67 170.476,220.054 166.892,216.47C165.87,215.448 164.686,214.5 163.332,213.64C164.905,212.885 166.227,211.808 167.316,210.437C168.817,208.547 169.7,206.361 169.923,203.86C170.13,201.529 169.73,199.274 168.694,197.098C167.603,194.807 165.872,192.942 163.395,191.61C160.99,190.212 158.126,189.117 154.809,188.404C151.744,187.745 148.722,187.42 145.742,187.42C141.779,187.42 138.189,187.932 134.966,188.908C131.492,189.96 128.51,191.469 125.992,193.381C123.223,195.485 121.096,198.036 119.588,201.016C118.076,204.006 117.286,207.322 117.286,210.98C117.286,216.75 119.137,221.411 122.57,225.062C123.03,225.552 123.523,226.024 124.051,226.477ZM143.87,249.764C147.494,249.764 150.748,249.333 153.636,248.493C156.658,247.613 159.233,246.349 161.376,244.729C163.629,243.025 165.357,240.956 166.57,238.53C167.778,236.113 168.398,233.412 168.398,230.42C168.398,225.844 166.916,222.151 164.064,219.299C161.423,216.658 157.474,214.675 152.137,213.52L143.775,211.718C142.166,211.375 141.019,211.074 140.42,210.578C140.332,210.504 140.246,210.439 140.246,210.332C140.246,210.056 140.334,209.813 140.511,209.603C140.842,209.211 141.357,208.964 141.995,208.755C142.985,208.432 144.188,208.292 145.598,208.292C147.061,208.292 148.578,208.434 150.148,208.713C151.639,208.979 152.979,209.371 154.163,209.901C154.185,209.911 154.208,209.921 154.23,209.931C156.436,210.855 158.354,211.009 159.955,210.618C161.721,210.186 163.124,209.285 164.184,207.95C165.197,206.673 165.788,205.195 165.939,203.506C166.082,201.89 165.801,200.326 165.083,198.818C164.34,197.259 163.145,196.006 161.45,195.106C159.355,193.879 156.859,192.936 153.969,192.315C151.188,191.717 148.445,191.42 145.742,191.42C142.206,191.42 139.001,191.866 136.125,192.737C133.141,193.64 130.574,194.925 128.412,196.567C126.141,198.291 124.393,200.379 123.157,202.822C121.919,205.269 121.286,207.986 121.286,210.98C121.286,215.619 122.724,219.386 125.484,222.323C128.093,225.098 132.017,227.131 137.343,228.243L145.766,230.042C147.439,230.398 148.638,230.73 149.296,231.228C149.387,231.297 149.438,231.386 149.438,231.5C149.438,231.787 149.169,231.936 148.877,232.129C147.927,232.756 146.237,232.892 143.87,232.892C142.044,232.892 140.089,232.67 138.002,232.235C135.949,231.807 134.108,231.215 132.483,230.445C132.464,230.436 132.445,230.427 132.425,230.418C130.278,229.456 128.341,229.32 126.638,229.801C124.879,230.298 123.469,231.262 122.398,232.678C121.41,233.984 120.801,235.481 120.589,237.176C120.369,238.939 120.663,240.611 121.472,242.19C122.273,243.756 123.609,245.063 125.575,246.01C127.208,246.8 129.05,247.488 131.104,248.067C133.114,248.634 135.24,249.061 137.482,249.344C139.701,249.625 141.83,249.764 143.87,249.764Z" style="fill:rgb(47,24,10);"/>
            </g>
        </g>
    </g>
</svg>
